<svg width="216" height="151" viewBox="0 0 216 151" fill="none" xmlns="http://www.w3.org/2000/svg">
<path d="M14.9502 115.83H8.49902V117.289H13.1221V120.664H3.84082V122.193H13.5967V123.248H2.46973V119.68H11.7686V118.326H2.43457V117.289H7.14551V115.83H0.729492V114.758H14.9502V115.83ZM1.48535 112.982C2.45801 112.918 3.34863 112.769 4.15723 112.534C4.97168 112.3 5.63672 111.989 6.15234 111.603C6.66797 111.21 6.9668 110.762 7.04883 110.258H2.18848V109.168H7.14551V107.709H8.49902V109.168H13.5088V110.258H8.60449C8.68652 110.762 8.98242 111.21 9.49219 111.603C10.0078 111.989 10.6729 112.3 11.4873 112.534C12.3018 112.769 13.1982 112.918 14.1768 112.982L13.7549 114.037C12.3779 113.92 11.1592 113.65 10.0986 113.229C9.04395 112.807 8.28809 112.238 7.83105 111.523C7.36816 112.238 6.60645 112.807 5.5459 113.229C4.49121 113.65 3.27246 113.92 1.88965 114.037L1.48535 112.982ZM18.29 110.715H22.8428V108.465H24.2139V115.268H16.9365V108.465H18.29V110.715ZM22.8428 114.143V111.787H18.29V114.143H22.8428ZM18.5186 116.621H28.4854V120.4H19.9072V122.123H29.0654V123.248H18.5537V119.346H27.1143V117.729H18.5186V116.621ZM27.1143 107.797H28.4854V111.189H30.8408V112.35H28.4854V115.883H27.1143V107.797ZM37.415 112.596C37.415 113.457 37.6055 114.315 37.9863 115.171C38.373 116.026 38.8887 116.788 39.5332 117.456C40.1836 118.118 40.8896 118.613 41.6514 118.941L40.8779 120.031C39.958 119.615 39.1289 118.982 38.3906 118.133C37.6582 117.283 37.1104 116.319 36.7471 115.241C36.3838 116.384 35.833 117.421 35.0947 118.353C34.3623 119.278 33.5479 119.967 32.6514 120.418L31.8252 119.328C32.5693 118.971 33.2607 118.432 33.8994 117.711C34.5439 116.99 35.0596 116.179 35.4463 115.276C35.833 114.368 36.0264 113.475 36.0264 112.596V110.557H32.335V109.414H41.1416V110.557H37.415V112.596ZM43.3213 107.797H44.71V123.424H43.3213V107.797ZM52.0928 108.816C52.8896 108.822 53.6016 108.98 54.2285 109.291C54.8613 109.602 55.3564 110.035 55.7139 110.592C56.0771 111.143 56.2588 111.775 56.2588 112.49C56.2588 113.135 56.1123 113.715 55.8193 114.23C55.5264 114.746 55.1162 115.165 54.5889 115.487C54.0674 115.81 53.4697 116.015 52.7959 116.103V118.757C54.4131 118.687 55.8428 118.572 57.085 118.414L57.1729 119.451C55.8428 119.68 54.4453 119.835 52.9805 119.917C51.5156 119.993 49.9775 120.031 48.3662 120.031H47.417L47.1885 118.871C49.0342 118.859 50.4404 118.839 51.4072 118.81V116.103C50.7158 116.021 50.1064 115.818 49.5791 115.496C49.0576 115.174 48.6504 114.755 48.3574 114.239C48.0703 113.718 47.9268 113.135 47.9268 112.49C47.9268 111.775 48.1025 111.143 48.4541 110.592C48.8057 110.035 49.2979 109.602 49.9307 109.291C50.5635 108.98 51.2842 108.822 52.0928 108.816ZM49.2803 112.49C49.2744 112.971 49.3916 113.401 49.6318 113.782C49.8721 114.157 50.2061 114.45 50.6338 114.661C51.0615 114.866 51.5479 114.969 52.0928 114.969C52.626 114.969 53.1035 114.866 53.5254 114.661C53.9531 114.45 54.2871 114.157 54.5273 113.782C54.7734 113.401 54.8994 112.971 54.9053 112.49C54.8994 112.01 54.7734 111.582 54.5273 111.207C54.2871 110.832 53.9531 110.539 53.5254 110.328C53.1035 110.117 52.626 110.012 52.0928 110.012C51.5479 110.012 51.0615 110.117 50.6338 110.328C50.2061 110.539 49.8721 110.832 49.6318 111.207C49.3916 111.582 49.2744 112.01 49.2803 112.49ZM58.0869 107.797H59.458V114.248H62.0068V115.443H59.458V123.424H58.0869V107.797ZM80.0771 116.252H75.2432V120.295H81.7646V121.455H67.4561V120.295H73.8896V116.252H69.2842V109.08H79.9189V110.205H70.6729V115.127H80.0771V116.252ZM88.3389 111.207C88.3389 111.846 88.5029 112.461 88.8311 113.053C89.1592 113.639 89.6162 114.157 90.2021 114.608C90.7881 115.054 91.4619 115.391 92.2236 115.619L91.5557 116.709C90.6592 116.428 89.877 116.003 89.209 115.435C88.541 114.86 88.0342 114.187 87.6885 113.413C87.3486 114.257 86.833 114.989 86.1416 115.61C85.4561 116.231 84.6533 116.697 83.7334 117.008L83.0303 115.918C83.8037 115.678 84.4893 115.323 85.0869 114.854C85.6846 114.38 86.1504 113.829 86.4844 113.202C86.8184 112.569 86.9854 111.904 86.9854 111.207V110.855H83.4521V109.748H86.9854V107.744H88.374V109.748H91.8721V110.855H88.3389V111.207ZM84.999 118.15H95.2295V123.459H93.8584V119.293H84.999V118.15ZM93.8584 107.797H95.2295V111.98H97.585V113.158H95.2295V117.342H93.8584V107.797ZM104.159 112.596C104.159 113.457 104.35 114.315 104.73 115.171C105.117 116.026 105.633 116.788 106.277 117.456C106.928 118.118 107.634 118.613 108.396 118.941L107.622 120.031C106.702 119.615 105.873 118.982 105.135 118.133C104.402 117.283 103.854 116.319 103.491 115.241C103.128 116.384 102.577 117.421 101.839 118.353C101.106 119.278 100.292 119.967 99.3955 120.418L98.5693 119.328C99.3135 118.971 100.005 118.432 100.644 117.711C101.288 116.99 101.804 116.179 102.19 115.276C102.577 114.368 102.771 113.475 102.771 112.596V110.557H99.0791V109.414H107.886V110.557H104.159V112.596ZM110.065 107.797H111.454V123.424H110.065V107.797ZM126.22 114.16H128.751V115.32H126.22V123.424H124.849V107.797H126.22V114.16ZM114.231 119.363C116.235 118.367 117.788 117.131 118.89 115.654C119.991 114.178 120.621 112.508 120.779 110.645H114.952V109.484H122.177C122.171 111.805 121.585 113.911 120.419 115.804C119.253 117.696 117.448 119.246 115.005 120.453L114.231 119.363ZM148.456 116.639H134.2V115.531H140.651V113.703H136.011V108.535H146.681V109.643H137.364V112.578H146.786V113.703H141.987V115.531H148.456V116.639ZM135.923 120.594C135.923 120.002 136.137 119.498 136.564 119.082C136.992 118.66 137.61 118.338 138.419 118.115C139.228 117.893 140.194 117.781 141.319 117.781C142.433 117.781 143.391 117.893 144.193 118.115C144.996 118.338 145.611 118.66 146.039 119.082C146.473 119.498 146.692 120.002 146.698 120.594C146.692 121.191 146.476 121.698 146.048 122.114C145.62 122.536 145.002 122.858 144.193 123.081C143.391 123.304 142.433 123.418 141.319 123.424C140.194 123.418 139.228 123.304 138.419 123.081C137.61 122.858 136.992 122.536 136.564 122.114C136.137 121.692 135.923 121.186 135.923 120.594ZM137.329 120.594C137.323 120.951 137.476 121.262 137.786 121.525C138.103 121.783 138.557 121.979 139.148 122.114C139.74 122.249 140.446 122.316 141.267 122.316C142.532 122.316 143.52 122.167 144.229 121.868C144.943 121.569 145.304 121.145 145.31 120.594C145.31 120.236 145.148 119.929 144.826 119.671C144.504 119.413 144.044 119.217 143.446 119.082C142.849 118.941 142.14 118.871 141.319 118.871C140.487 118.871 139.77 118.941 139.166 119.082C138.568 119.217 138.111 119.413 137.795 119.671C137.479 119.929 137.323 120.236 137.329 120.594ZM154.187 108.377C154.96 108.377 155.651 108.526 156.261 108.825C156.876 109.118 157.356 109.528 157.702 110.056C158.054 110.577 158.229 111.172 158.229 111.84C158.229 112.508 158.054 113.105 157.702 113.633C157.356 114.154 156.876 114.562 156.261 114.854C155.651 115.142 154.96 115.285 154.187 115.285C153.407 115.285 152.707 115.142 152.086 114.854C151.471 114.562 150.99 114.154 150.645 113.633C150.299 113.105 150.126 112.508 150.126 111.84C150.126 111.172 150.299 110.577 150.645 110.056C150.99 109.528 151.471 109.118 152.086 108.825C152.707 108.526 153.407 108.377 154.187 108.377ZM151.479 111.84C151.474 112.291 151.585 112.692 151.813 113.044C152.048 113.396 152.37 113.671 152.78 113.87C153.196 114.063 153.665 114.16 154.187 114.16C154.696 114.16 155.156 114.063 155.566 113.87C155.982 113.671 156.308 113.396 156.542 113.044C156.776 112.692 156.894 112.291 156.894 111.84C156.894 111.395 156.776 110.996 156.542 110.645C156.308 110.293 155.982 110.021 155.566 109.827C155.156 109.634 154.696 109.537 154.187 109.537C153.665 109.537 153.196 109.634 152.78 109.827C152.37 110.021 152.048 110.293 151.813 110.645C151.585 110.996 151.474 111.395 151.479 111.84ZM152.499 116.586H162.659V120.348H153.888V122.105H163.222V123.213H152.534V119.311H161.288V117.693H152.499V116.586ZM161.288 107.797H162.659V115.83H161.288V107.797ZM177.53 111.805H179.886V112.982H177.53V116.885H176.159V107.797H177.53V111.805ZM165.349 109.414H169.321V107.656H170.692V109.414H174.665V110.557H165.349V109.414ZM166.245 114.02C166.245 113.469 166.4 112.988 166.711 112.578C167.021 112.162 167.461 111.843 168.029 111.62C168.598 111.392 169.257 111.277 170.007 111.277C170.751 111.277 171.404 111.392 171.967 111.62C172.535 111.843 172.975 112.162 173.285 112.578C173.602 112.988 173.763 113.469 173.769 114.02C173.763 114.57 173.602 115.054 173.285 115.47C172.975 115.886 172.535 116.205 171.967 116.428C171.398 116.65 170.745 116.762 170.007 116.762C169.257 116.762 168.598 116.65 168.029 116.428C167.461 116.205 167.021 115.886 166.711 115.47C166.4 115.054 166.245 114.57 166.245 114.02ZM167.563 114.02C167.563 114.354 167.663 114.649 167.862 114.907C168.062 115.159 168.346 115.355 168.715 115.496C169.09 115.637 169.521 115.707 170.007 115.707C170.487 115.707 170.912 115.637 171.281 115.496C171.656 115.355 171.946 115.159 172.151 114.907C172.356 114.649 172.462 114.354 172.468 114.02C172.462 113.686 172.354 113.393 172.143 113.141C171.938 112.883 171.65 112.687 171.281 112.552C170.912 112.411 170.487 112.344 170.007 112.35C169.521 112.344 169.093 112.411 168.724 112.552C168.354 112.687 168.067 112.883 167.862 113.141C167.663 113.393 167.563 113.686 167.563 114.02ZM167.651 117.57H169.022V119.24H176.159V117.57H177.53V123.213H167.651V117.57ZM176.159 122.105V120.33H169.022V122.105H176.159ZM193.755 123.424H192.384V107.797H193.755V123.424ZM181.89 109.344H183.243V118.203C184.532 118.191 185.789 118.13 187.014 118.019C188.238 117.901 189.472 117.711 190.714 117.447L190.907 118.625C189.577 118.9 188.282 119.1 187.022 119.223C185.769 119.34 184.479 119.398 183.155 119.398H181.89V109.344ZM208.521 113.984H211.14V115.145H208.521V123.459H207.149V107.797H208.521V113.984ZM197.112 109.326H204.407V110.469H198.483V118.379C199.96 118.373 201.24 118.329 202.324 118.247C203.408 118.165 204.513 118.021 205.638 117.816L205.813 119.012C204.653 119.223 203.517 119.363 202.403 119.434C201.296 119.504 199.942 119.539 198.343 119.539H197.112V109.326ZM213.636 122.105C213.431 122.105 213.24 122.053 213.064 121.947C212.895 121.842 212.757 121.704 212.651 121.534C212.552 121.358 212.505 121.168 212.511 120.963C212.505 120.764 212.552 120.579 212.651 120.409C212.757 120.233 212.895 120.096 213.064 119.996C213.24 119.891 213.431 119.838 213.636 119.838C213.835 119.838 214.02 119.888 214.189 119.987C214.365 120.087 214.503 120.222 214.603 120.392C214.708 120.562 214.761 120.746 214.761 120.945C214.761 121.262 214.652 121.534 214.436 121.763C214.219 121.985 213.952 122.1 213.636 122.105ZM28.4941 135.543H30.832V136.703H28.4941V141.291H27.1055V130.814H28.4941V135.543ZM16.2246 139.691C18.0293 139.691 19.4414 139.677 20.4609 139.647V138.496C19.541 138.414 18.8115 138.171 18.2725 137.767C17.7334 137.362 17.4668 136.838 17.4727 136.193C17.4727 135.725 17.6221 135.317 17.9209 134.972C18.2256 134.626 18.6533 134.359 19.2041 134.172C19.7607 133.984 20.4023 133.891 21.1289 133.891C21.8613 133.891 22.5029 133.984 23.0537 134.172C23.6104 134.359 24.0381 134.626 24.3369 134.972C24.6416 135.317 24.7969 135.725 24.8027 136.193C24.7969 136.832 24.5273 137.354 23.9941 137.758C23.4668 138.162 22.7461 138.408 21.832 138.496V139.595C23.4434 139.519 24.8789 139.387 26.1387 139.199L26.2617 140.201C24.8613 140.447 23.4023 140.611 21.8848 140.693C20.373 140.775 18.7588 140.816 17.042 140.816H16.3828L16.2246 139.691ZM16.6113 132.238H20.4609V130.674H21.832V132.238H25.6641V133.293H16.6113V132.238ZM18.1406 142.064H28.4941V146.424H27.1055V143.172H18.1406V142.064ZM18.791 136.193C18.791 136.463 18.8848 136.703 19.0723 136.914C19.2598 137.119 19.5293 137.277 19.8809 137.389C20.2383 137.5 20.6543 137.553 21.1289 137.547C21.6035 137.553 22.0166 137.5 22.3682 137.389C22.7256 137.277 23.001 137.119 23.1943 136.914C23.3877 136.703 23.4844 136.463 23.4844 136.193C23.4844 135.783 23.2705 135.458 22.8428 135.218C22.4209 134.978 21.8496 134.863 21.1289 134.875C20.4082 134.863 19.8369 134.978 19.415 135.218C18.9932 135.458 18.7852 135.783 18.791 136.193ZM44.7539 142.24H43.3828V130.814H44.7539V142.24ZM32.2207 135.736C32.2207 134.998 32.3965 134.339 32.748 133.759C33.1055 133.179 33.5947 132.725 34.2158 132.396C34.8428 132.068 35.543 131.904 36.3164 131.904C37.0898 131.904 37.7871 132.068 38.4082 132.396C39.0293 132.725 39.5186 133.179 39.876 133.759C40.2334 134.339 40.4121 134.998 40.4121 135.736C40.4121 136.48 40.2334 137.146 39.876 137.731C39.5186 138.317 39.0293 138.774 38.4082 139.103C37.7871 139.425 37.0898 139.586 36.3164 139.586C35.543 139.586 34.8428 139.425 34.2158 139.103C33.5947 138.774 33.1055 138.317 32.748 137.731C32.3965 137.146 32.2207 136.48 32.2207 135.736ZM33.5742 135.736C33.5684 136.246 33.6826 136.703 33.917 137.107C34.1572 137.506 34.4854 137.816 34.9014 138.039C35.3232 138.262 35.7949 138.373 36.3164 138.373C36.832 138.373 37.2979 138.262 37.7139 138.039C38.1299 137.816 38.458 137.506 38.6982 137.107C38.9385 136.703 39.0586 136.246 39.0586 135.736C39.0586 135.232 38.9385 134.784 38.6982 134.392C38.458 133.993 38.1299 133.683 37.7139 133.46C37.2979 133.231 36.832 133.117 36.3164 133.117C35.7949 133.117 35.3232 133.229 34.9014 133.451C34.4854 133.674 34.1572 133.984 33.917 134.383C33.6826 134.781 33.5684 135.232 33.5742 135.736ZM34.6641 141.08H36.0352V144.93H45.2461V146.09H34.6641V141.08ZM65.3379 133.732H52.6641V132.59H58.3594V130.709H59.7129V132.59H65.3379V133.732ZM51.9258 140.922H66.2344V142.064H59.7129V146.459H58.3594V142.064H51.9258V140.922ZM53.9473 137.248C53.9414 136.691 54.1406 136.217 54.5449 135.824C54.9492 135.432 55.5322 135.136 56.2939 134.937C57.0615 134.731 57.9785 134.629 59.0449 134.629C60.0996 134.629 61.0078 134.731 61.7695 134.937C62.5371 135.136 63.123 135.432 63.5273 135.824C63.9375 136.217 64.1426 136.691 64.1426 137.248C64.1426 137.793 63.9375 138.259 63.5273 138.646C63.123 139.032 62.5371 139.328 61.7695 139.533C61.0078 139.738 60.0996 139.844 59.0449 139.85C57.9785 139.844 57.0615 139.738 56.2939 139.533C55.5322 139.328 54.9492 139.032 54.5449 138.646C54.1406 138.259 53.9414 137.793 53.9473 137.248ZM55.3711 137.248C55.3652 137.564 55.5029 137.837 55.7842 138.065C56.0713 138.294 56.4873 138.47 57.0322 138.593C57.5771 138.716 58.2305 138.777 58.9922 138.777C60.1641 138.777 61.0752 138.646 61.7256 138.382C62.3818 138.112 62.7129 137.734 62.7188 137.248C62.7129 136.756 62.3877 136.375 61.7432 136.105C61.0986 135.83 60.1992 135.689 59.0449 135.684C57.8789 135.689 56.9736 135.83 56.3291 136.105C55.6846 136.375 55.3652 136.756 55.3711 137.248ZM84.0938 136.984H86.7129V138.145H84.0938V146.459H82.7227V130.797H84.0938V136.984ZM72.6855 132.326H79.9805V133.469H74.0566V141.379C75.5332 141.373 76.8135 141.329 77.8975 141.247C78.9814 141.165 80.0859 141.021 81.2109 140.816L81.3867 142.012C80.2266 142.223 79.0898 142.363 77.9766 142.434C76.8691 142.504 75.5156 142.539 73.916 142.539H72.6855V132.326ZM93.1113 134.998C93.1113 135.924 93.3018 136.844 93.6826 137.758C94.0635 138.666 94.5762 139.475 95.2207 140.184C95.8711 140.893 96.5801 141.42 97.3477 141.766L96.5039 142.855C95.6074 142.422 94.7988 141.769 94.0781 140.896C93.3574 140.017 92.8096 139.023 92.4346 137.916C92.0771 139.094 91.5352 140.148 90.8086 141.08C90.082 142.012 89.2617 142.709 88.3477 143.172L87.4688 142.012C88.2422 141.66 88.9541 141.118 89.6045 140.386C90.2549 139.653 90.7705 138.815 91.1514 137.872C91.5381 136.923 91.7344 135.965 91.7402 134.998V132.15H93.1113V134.998ZM99.0527 130.797H100.441V146.459H99.0527V130.797ZM113.221 135.596C113.221 136.457 113.411 137.315 113.792 138.171C114.179 139.026 114.694 139.788 115.339 140.456C115.989 141.118 116.695 141.613 117.457 141.941L116.684 143.031C115.764 142.615 114.935 141.982 114.196 141.133C113.464 140.283 112.916 139.319 112.553 138.241C112.189 139.384 111.639 140.421 110.9 141.353C110.168 142.278 109.354 142.967 108.457 143.418L107.631 142.328C108.375 141.971 109.066 141.432 109.705 140.711C110.35 139.99 110.865 139.179 111.252 138.276C111.639 137.368 111.832 136.475 111.832 135.596V133.557H108.141V132.414H116.947V133.557H113.221V135.596ZM119.127 130.797H120.516V146.424H119.127V130.797ZM136.143 140.113H134.754V136.018H131.607V134.875H134.754V130.797H136.143V140.113ZM123.258 138.865C124.025 138.59 124.708 138.186 125.306 137.652C125.909 137.119 126.381 136.507 126.721 135.815C127.061 135.124 127.23 134.412 127.23 133.68V133.1H123.697V131.939H132.117V133.1H128.619V133.662C128.619 134.336 128.78 134.989 129.103 135.622C129.425 136.255 129.879 136.817 130.465 137.31C131.051 137.796 131.719 138.168 132.469 138.426L131.748 139.533C130.881 139.217 130.116 138.748 129.454 138.127C128.798 137.506 128.3 136.788 127.96 135.974C127.626 136.888 127.11 137.693 126.413 138.391C125.722 139.088 124.91 139.615 123.979 139.973L123.258 138.865ZM125.719 143.506C125.719 142.896 125.927 142.375 126.343 141.941C126.765 141.508 127.368 141.177 128.153 140.948C128.944 140.72 129.879 140.605 130.957 140.605C132.035 140.605 132.967 140.72 133.752 140.948C134.537 141.177 135.141 141.508 135.562 141.941C135.984 142.375 136.195 142.896 136.195 143.506C136.195 144.115 135.984 144.637 135.562 145.07C135.141 145.504 134.537 145.835 133.752 146.063C132.967 146.298 132.035 146.418 130.957 146.424C129.873 146.418 128.938 146.298 128.153 146.063C127.368 145.835 126.765 145.504 126.343 145.07C125.927 144.637 125.719 144.115 125.719 143.506ZM127.09 143.506C127.09 143.875 127.242 144.197 127.547 144.473C127.852 144.742 128.291 144.95 128.865 145.097C129.445 145.243 130.128 145.316 130.913 145.316C131.716 145.316 132.41 145.243 132.996 145.097C133.582 144.956 134.033 144.751 134.35 144.481C134.666 144.206 134.824 143.881 134.824 143.506C134.824 143.131 134.669 142.806 134.358 142.53C134.048 142.255 133.6 142.044 133.014 141.897C132.434 141.751 131.748 141.678 130.957 141.678C130.16 141.678 129.472 141.751 128.892 141.897C128.312 142.044 127.866 142.255 127.556 142.53C127.245 142.806 127.09 143.131 127.09 143.506ZM146.549 134.629H138.709V133.504H141.961V131.271H143.332V133.504H146.549V134.629ZM139.271 139.234C139.271 138.555 139.415 137.945 139.702 137.406C139.995 136.867 140.396 136.445 140.906 136.141C141.416 135.836 141.99 135.684 142.629 135.684C143.279 135.684 143.859 135.836 144.369 136.141C144.885 136.445 145.286 136.867 145.573 137.406C145.866 137.939 146.016 138.549 146.021 139.234C146.016 139.926 145.866 140.544 145.573 141.089C145.286 141.628 144.885 142.053 144.369 142.363C143.859 142.668 143.279 142.82 142.629 142.82C141.99 142.82 141.413 142.668 140.897 142.363C140.388 142.053 139.989 141.628 139.702 141.089C139.415 140.544 139.271 139.926 139.271 139.234ZM140.502 139.234C140.502 139.691 140.593 140.102 140.774 140.465C140.956 140.822 141.208 141.104 141.53 141.309C141.853 141.508 142.219 141.607 142.629 141.607C143.039 141.607 143.408 141.508 143.736 141.309C144.064 141.104 144.322 140.822 144.51 140.465C144.697 140.102 144.791 139.691 144.791 139.234C144.791 138.783 144.697 138.379 144.51 138.021C144.322 137.658 144.064 137.374 143.736 137.169C143.408 136.958 143.039 136.85 142.629 136.844C142.219 136.85 141.853 136.958 141.53 137.169C141.208 137.374 140.956 137.658 140.774 138.021C140.593 138.379 140.502 138.783 140.502 139.234ZM147.357 131.184H148.658V137.389H150.732V130.797H152.051V146.424H150.732V138.531H148.658V145.65H147.357V131.184ZM162.193 133.012C162.193 133.68 162.454 134.318 162.976 134.928C163.503 135.531 164.191 136.041 165.041 136.457C165.891 136.873 166.775 137.148 167.695 137.283L167.186 138.373C166.359 138.232 165.565 137.998 164.804 137.67C164.042 137.336 163.362 136.923 162.765 136.431C162.173 135.938 161.725 135.388 161.42 134.778C161.115 135.388 160.667 135.938 160.075 136.431C159.483 136.923 158.807 137.336 158.045 137.67C157.289 137.998 156.504 138.232 155.689 138.373L155.145 137.283C156.064 137.148 156.946 136.873 157.79 136.457C158.634 136.041 159.319 135.531 159.847 134.928C160.38 134.318 160.646 133.68 160.646 133.012V132.906H155.637V131.781H167.186V132.906H162.193V133.012ZM154.301 139.709H168.539V140.852H162.07V146.424H160.717V140.852H154.301V139.709ZM174.498 135.244C174.498 136.082 174.63 136.917 174.894 137.749C175.157 138.575 175.535 139.331 176.027 140.017C176.525 140.702 177.111 141.244 177.785 141.643L176.994 142.715C176.256 142.27 175.617 141.654 175.078 140.869C174.545 140.084 174.138 139.202 173.856 138.224C173.563 139.284 173.133 140.236 172.564 141.08C171.996 141.924 171.328 142.58 170.561 143.049L169.682 142.012C170.385 141.602 171 141.042 171.527 140.333C172.055 139.618 172.459 138.824 172.74 137.951C173.021 137.078 173.162 136.193 173.162 135.297V132.273H174.498V135.244ZM176.062 136.404H178.717V131.131H180.018V145.633H178.717V137.582H176.062V136.404ZM181.916 130.797H183.252V146.424H181.916V130.797ZM199.723 144.42H185.414V143.26H188.965V139.05C188.285 138.698 187.758 138.244 187.383 137.688C187.008 137.131 186.82 136.504 186.82 135.807C186.82 135.016 187.063 134.315 187.55 133.706C188.036 133.097 188.71 132.625 189.571 132.291C190.438 131.957 191.426 131.787 192.533 131.781C193.641 131.787 194.625 131.957 195.486 132.291C196.354 132.625 197.03 133.097 197.517 133.706C198.003 134.315 198.246 135.016 198.246 135.807C198.246 136.492 198.064 137.11 197.701 137.661C197.338 138.206 196.828 138.654 196.172 139.006V143.26H199.723V144.42ZM188.156 135.807C188.156 136.381 188.341 136.891 188.71 137.336C189.079 137.775 189.595 138.118 190.257 138.364C190.925 138.604 191.684 138.725 192.533 138.725C193.377 138.725 194.13 138.604 194.792 138.364C195.454 138.118 195.973 137.775 196.348 137.336C196.723 136.891 196.91 136.381 196.91 135.807C196.91 135.232 196.723 134.726 196.348 134.286C195.973 133.847 195.454 133.51 194.792 133.275C194.13 133.035 193.377 132.918 192.533 132.924C191.684 132.918 190.925 133.035 190.257 133.275C189.595 133.51 189.079 133.847 188.71 134.286C188.341 134.726 188.156 135.232 188.156 135.807ZM194.783 143.26V139.542C194.086 139.724 193.336 139.814 192.533 139.814C191.725 139.814 190.986 139.727 190.318 139.551V143.26H194.783Z" fill="#DEDEDE"/>
<circle cx="108" cy="44" r="42.25" stroke="#EEEEEE" stroke-width="3.5"/>
<path d="M108 23.6094L108 53.6582" stroke="#EEEEEE" stroke-width="3.5" stroke-linecap="round" stroke-linejoin="round"/>
<circle cx="108" cy="64" r="2" fill="#EEEEEE"/>
</svg>
