<svg width="24" height="24" viewBox="0 0 24 24" fill="none" xmlns="http://www.w3.org/2000/svg">
<path d="M11.7867 3C12.4748 3.00793 13.1603 3.08743 13.8319 3.23722C14.1251 3.30261 14.3444 3.54704 14.3777 3.84559L14.5372 5.27701C14.6094 5.93424 15.1644 6.43204 15.8259 6.43273C16.0037 6.43301 16.1796 6.39598 16.3439 6.32328L17.657 5.74646C17.9301 5.62649 18.2492 5.6919 18.4531 5.90964C19.402 6.9231 20.1087 8.13858 20.52 9.46461C20.6087 9.75054 20.5067 10.0613 20.2657 10.2389L19.1018 11.0968C18.7698 11.3407 18.5737 11.7281 18.5737 12.1401C18.5737 12.5521 18.7698 12.9395 19.1025 13.184L20.2674 14.0422C20.5085 14.2198 20.6106 14.5305 20.5219 14.8165C20.1107 16.1423 19.4044 17.3577 18.4561 18.3713C18.2524 18.589 17.9335 18.6546 17.6605 18.535L16.342 17.9573C15.9649 17.7923 15.5317 17.8165 15.1752 18.0225C14.8187 18.2285 14.5815 18.5918 14.5362 19.001L14.3777 20.4323C14.345 20.7274 14.1305 20.9702 13.8416 21.0389C12.4837 21.362 11.0689 21.362 9.71098 21.0389C9.42212 20.9702 9.20756 20.7274 9.17488 20.4323L9.01661 19.0031C8.97012 18.5946 8.73252 18.2325 8.37635 18.0272C8.02018 17.8219 7.58771 17.7978 7.21177 17.9619L5.89306 18.5397C5.61991 18.6593 5.30099 18.5937 5.09731 18.3759C4.14842 17.3611 3.44207 16.1443 3.03146 14.817C2.94301 14.5311 3.0452 14.2206 3.28612 14.0431L4.45175 13.1844C4.78375 12.9404 4.97984 12.553 4.97984 12.1411C4.97984 11.7291 4.78375 11.3417 4.45131 11.0974L3.28642 10.2402C3.04514 10.0626 2.94286 9.75167 3.03161 9.46555C3.44294 8.13952 4.14965 6.92404 5.09857 5.91058C5.30245 5.69284 5.62152 5.62743 5.89462 5.7474L7.20747 6.32412C7.58523 6.4899 8.01952 6.46486 8.37761 6.25565C8.73416 6.04883 8.97154 5.68521 9.01736 5.27591L9.17681 3.84559C9.21011 3.54689 9.42958 3.30238 9.72296 3.23713C10.3954 3.08758 11.0815 3.00811 11.7867 3ZM11.775 9.32808C10.2217 9.32808 8.96254 10.5873 8.96254 12.1406C8.96254 13.6939 10.2217 14.9531 11.775 14.9531C13.3283 14.9531 14.5875 13.6939 14.5875 12.1406C14.5875 10.5873 13.3283 9.32808 11.775 9.32808Z" fill="#3F3F46"/>
</svg>
