<svg width="20" height="21" viewBox="0 0 20 21" fill="none" xmlns="http://www.w3.org/2000/svg">
<path fill-rule="evenodd" clip-rule="evenodd" d="M10 1.8042C5.1675 1.8042 1.25 5.34837 1.25 9.72087C1.25 11.8267 2.165 13.735 3.64667 15.1542L2.92333 18.695C2.90793 18.7708 2.91389 18.8493 2.94056 18.9218C2.96722 18.9944 3.01353 19.0581 3.07432 19.1058C3.1351 19.1535 3.20796 19.1834 3.28476 19.1921C3.36155 19.2008 3.43925 19.188 3.50917 19.155L7.45167 17.2942C8.28189 17.5223 9.13901 17.6378 10 17.6375C14.8325 17.6375 18.75 14.0934 18.75 9.72087C18.75 5.34837 14.8325 1.8042 10 1.8042Z" fill="#D1D6DB"/>
</svg>
