<svg width="20" height="21" viewBox="0 0 20 21" fill="none" xmlns="http://www.w3.org/2000/svg">
<path fill-rule="evenodd" clip-rule="evenodd" d="M1.80694 10.7593C2.62982 12.3096 3.97152 13.7371 5.2754 14.8935C6.58794 16.0576 7.90865 16.9874 8.73689 17.5346C9.50379 18.0413 10.4954 18.0418 11.2623 17.5348C12.0915 16.9875 13.4123 16.0576 14.7248 14.8935C16.0287 13.737 17.3704 12.3095 18.1939 10.7595C20.4082 6.58841 17.8742 2.08496 14.0523 2.08496C11.9638 2.08496 10.69 3.19205 10.0025 4.11976L10.0001 4.12295L9.99773 4.11976C9.31021 3.19205 8.03641 2.08496 5.94789 2.08496C2.12605 2.08496 -0.408049 6.58825 1.80694 10.7593Z" fill="currentColor"/>
</svg>
