<svg width="100%" height="46%" viewBox="0 0 329 289" fill="none" xmlns="http://www.w3.org/2000/svg">
<rect width="328" height="289" rx="14" fill="white"/>
<path d="M30.4515 19.6796V35.5539H28.5683V27.5235H26.8093V34.7645H24.9757V19.9779H26.8093V25.9261H28.5683V19.6796H30.4515ZM17.4985 31.6008V21.4945H19.4564V29.8854C20.8238 29.8605 22.3217 29.7424 23.9937 29.4192L24.1988 31.116C22.0482 31.4952 20.2271 31.607 18.5551 31.6008H17.4985ZM44.8086 19.6796V25.8826H47.1643V27.5048H44.8086V35.529H42.8507V19.6796H44.8086ZM32.2844 31.1906C36.1505 29.2514 38.2388 26.5539 38.6242 22.9365H33.1297V21.3267H40.6132C40.6007 25.9945 38.6677 30.0967 33.3846 32.6948L32.2844 31.1906ZM65.5255 19.6796V35.5912H63.5614V26.8957H60.5097V25.2983H63.5614V19.6796H65.5255ZM51.982 31.0041C54.5242 29.8108 56.0283 26.8025 56.0345 23.8999V22.8308H52.6347V21.2459H61.442V22.8308H58.0297V23.8999C58.0235 26.6409 59.5152 29.5435 62.0697 30.6685L60.9137 32.2162C59.0677 31.3398 57.75 29.5808 57.0539 27.48C56.3577 29.7238 55.0027 31.6133 53.1505 32.5456L51.982 31.0041ZM73.4496 22.5449C73.4496 24.4841 74.7051 26.3115 77.1851 27.0698L76.259 28.605C74.4751 28.0456 73.2134 26.9144 72.511 25.4848C71.8087 27.1506 70.4724 28.4682 68.5642 29.1084L67.5697 27.5608C70.1305 26.7341 71.4731 24.6706 71.4855 22.5573V22.3584H68.1167V20.7797H76.7438V22.3584H73.4496V22.5449ZM69.7389 32.5083C69.7327 30.6064 71.7901 29.5 75.1153 29.5C78.4095 29.5 80.4296 30.6064 80.4296 32.5083C80.4296 34.4227 78.4095 35.5477 75.1153 35.5414C71.7901 35.5477 69.7327 34.4227 69.7389 32.5083ZM71.6906 32.5083C71.6844 33.4903 72.9337 34.0124 75.1153 34.0062C77.2907 34.0124 78.509 33.4903 78.509 32.5083C78.509 31.5449 77.2907 31.0352 75.1153 31.0352C72.9337 31.0352 71.6844 31.5449 71.6906 32.5083ZM78.3225 29.1519V19.6796H80.2866V23.4896H82.5055V25.0932H80.2866V29.1519H78.3225ZM95.8432 19.692V24.683H98.0622V26.2928H95.8432V31.5635H93.8791V19.692H95.8432ZM83.3191 23.0048V21.451H87.067V19.6796H89.0124V21.451H92.7479V23.0048H83.3191ZM84.1395 26.7093C84.1333 24.8819 85.7245 23.6699 88.0428 23.6699C90.3239 23.6699 91.9088 24.8819 91.9151 26.7093C91.9088 28.518 90.3239 29.7113 88.0428 29.7051C85.7245 29.7113 84.1333 28.518 84.1395 26.7093ZM85.6623 35.2555V30.6312H87.6077V33.6706H96.4648V35.2555H85.6623ZM86.0352 26.7093C86.0228 27.6602 86.8308 28.2134 88.0428 28.2072C89.2424 28.2134 90.0504 27.6602 90.0629 26.7093C90.0504 25.7396 89.2424 25.174 88.0428 25.174C86.8308 25.174 86.0228 25.7396 86.0352 26.7093ZM116.442 19.692V28.9717H114.49V27.2189H110.705V25.6402H114.49V23.9185H110.861C109.86 26.4482 107.535 28.2196 104.073 29.183L103.296 27.6416C107.007 26.6285 108.99 24.7452 109.301 22.3833H104.135V20.7921H111.426C111.426 21.3453 111.383 21.8674 111.296 22.3709H114.49V19.692H116.442ZM105.795 32.3032C105.789 30.3577 107.927 29.1519 111.184 29.1519C114.403 29.1519 116.542 30.3577 116.548 32.3032C116.542 34.261 114.403 35.4855 111.184 35.4793C107.927 35.4855 105.789 34.261 105.795 32.3032ZM107.747 32.3032C107.74 33.3536 109.046 33.9254 111.184 33.9254C113.285 33.9254 114.584 33.3536 114.596 32.3032C114.584 31.2528 113.285 30.6747 111.184 30.6872C109.046 30.6747 107.74 31.2528 107.747 32.3032ZM133.217 32.1043V33.7203H118.691V32.1043H124.95V29.5124H120.413V24.3163H129.562V22.3398H120.388V20.761H131.495V25.8639H122.365V27.9151H131.862V29.5124H126.89V32.1043H133.217Z" fill="black"/>
<path d="M255.439 22.5312V32.9727H254.514V27.0898H252.229V26.3281H254.514V22.5312H255.439ZM246.709 30.1719C248.221 29.4395 249.48 27.4766 249.486 25.625V24.3711H247.107V23.6094H252.803V24.3711H250.412V25.625C250.418 27.3594 251.66 29.2461 253.178 29.9375L252.627 30.6758C251.438 30.0898 250.436 28.8301 249.961 27.377C249.492 28.9238 248.461 30.2656 247.271 30.8867L246.709 30.1719ZM260.701 24.5117C260.707 25.877 261.727 27.0957 263.256 27.5938L262.822 28.3203C261.621 27.9219 260.713 27.0957 260.262 26.0469C259.816 27.2422 258.855 28.1738 257.607 28.625L257.139 27.8867C258.697 27.3594 259.787 26.0176 259.799 24.5117V24.0664H257.42V23.3047H263.045V24.0664H260.701V24.5117ZM258.521 31.0039C258.527 29.8027 259.834 29.1055 261.979 29.1055C264.117 29.1055 265.412 29.8027 265.412 31.0039C265.412 32.2227 264.117 32.9258 261.979 32.9258C259.834 32.9258 258.527 32.2227 258.521 31.0039ZM259.447 31.0039C259.436 31.7539 260.408 32.1934 261.979 32.1875C263.555 32.1934 264.516 31.7539 264.521 31.0039C264.516 30.2773 263.555 29.8438 261.979 29.8438C260.408 29.8438 259.436 30.2773 259.447 31.0039ZM264.404 28.8242V22.5312H265.318V25.1914H266.889V25.9648H265.318V28.8242H264.404ZM276.182 22.543V28.8008H275.256V27.3945H272.49V26.6328H275.256V25.2266H272.596C271.91 26.9023 270.305 28.1152 268.072 28.7773L267.686 28.0508C270.199 27.3066 271.775 25.8945 271.957 24.0898H268.213V23.3164H272.959C272.959 23.7266 272.912 24.1191 272.824 24.4883H275.256V22.543H276.182ZM269.291 30.8984C269.285 29.6562 270.639 28.9062 272.771 28.9062C274.881 28.9062 276.24 29.6562 276.24 30.8984C276.24 32.1465 274.881 32.9023 272.771 32.9023C270.639 32.9023 269.285 32.1465 269.291 30.8984ZM270.193 30.8984C270.199 31.6836 271.201 32.1582 272.771 32.1523C274.318 32.1582 275.32 31.6836 275.326 30.8984C275.32 30.1133 274.318 29.6387 272.771 29.6445C271.201 29.6387 270.199 30.1133 270.193 30.8984ZM287.455 30.8867V31.6602H277.916V30.8867H282.205V28.918H279.111V25.707H285.346V24.0664H279.088V23.3047H286.248V26.457H280.025V28.1562H286.494V28.918H283.107V30.8867H287.455ZM299.936 22.5312V30.2891H299.01V27.2656H297.229V26.4922H299.01V25.2852H297.229V24.5234H299.01V22.5312H299.936ZM291.322 27.9219C291.738 27.9219 292.189 27.916 292.67 27.9102V24.1367H291.615V23.3867H297.146V24.1367H296.08V27.7871C296.561 27.7578 297.035 27.7168 297.486 27.6641L297.533 28.3555C295.512 28.666 293.133 28.7012 291.439 28.707L291.322 27.9219ZM293.221 32.7266V29.6445H294.146V31.9531H300.217V32.7266H293.221ZM293.561 27.8926C294.094 27.8809 294.645 27.8633 295.189 27.8398V24.1367H293.561V27.8926ZM305.42 24.2539C305.426 25.6133 306.551 26.8203 308.104 27.2891L307.635 28.0156C306.416 27.6289 305.438 26.791 304.969 25.7129C304.506 26.8672 303.521 27.7695 302.279 28.1914L301.799 27.4648C303.369 26.9668 304.488 25.6836 304.494 24.2539V23.9844H302.057V23.2344H307.822V23.9844H305.42V24.2539ZM303.521 32.8086V28.6836H304.436V29.9492H309.357V28.6836H310.271V32.8086H303.521ZM304.436 32.0586H309.357V30.6875H304.436V32.0586ZM309.357 28.168V22.5312H310.271V28.168H309.357Z" fill="#999999"/>
<line x1="328" y1="55.5" y2="55.5" stroke="#EBEBEB"/>
<rect x="16" y="71" width="85" height="22" rx="11" fill="white"/>
<rect x="16" y="71" width="85" height="22" rx="11" fill="#EB5147" fill-opacity="0.2"/>
<path d="M22.5625 84.3477V83.3047L26.3125 77.5156H27.9062V83.2578H29.0664L29.0664 84.3477H27.9062V86H26.6875V84.3477H22.5625ZM23.9219 83.2578H26.6875V79.0508H26.5938L23.9219 83.1875V83.2578ZM30.3672 86L30.3672 85.0625L33.3086 82.0977C34.2402 81.1309 34.7031 80.5918 34.7031 79.8477C34.7031 79.0098 34.0234 78.4766 33.1328 78.4766C32.1895 78.4766 31.5918 79.0742 31.5859 79.9766H30.3672C30.3555 78.4238 31.5391 77.3984 33.1562 77.3984C34.791 77.3984 35.9219 78.4355 35.9336 79.8125C35.9219 80.7617 35.4766 81.5176 33.8828 83.082L32.1602 84.8281V84.8984H36.0742V86H30.3672ZM46.7383 81.9922V82.8828H42.5664V84.8164H41.4648V82.8828H37.1289V81.9922H46.7383ZM38.3242 86.7734V83.9023H39.4258V85.8711H45.6719V86.7734H38.3242ZM38.3945 81.0664V76.8242H39.4961V78.1016H44.3594V76.8242H45.4727V81.0664H38.3945ZM39.4961 80.1758H44.3594V78.9336H39.4961V80.1758ZM59.1367 76.4961V87.0195H58.0234V76.4961H59.1367ZM50.8047 80.9609C50.8047 78.7168 51.9355 77.2871 53.5234 77.2813C55.082 77.2871 56.2305 78.7168 56.2305 80.9609C56.2305 83.2285 55.082 84.6582 53.5234 84.6523C51.9355 84.6582 50.8047 83.2285 50.8047 80.9609ZM51.8828 80.9609C51.877 82.6309 52.5449 83.6562 53.5234 83.6562C54.4844 83.6562 55.1523 82.6309 55.1523 80.9609C55.1523 79.3145 54.4844 78.2832 53.5234 78.2773C52.5449 78.2832 51.877 79.3145 51.8828 80.9609ZM64.4336 78.1719C64.4277 79.5488 65.4004 80.832 66.9648 81.3477L66.3672 82.2266C65.2188 81.8223 64.3574 81.002 63.9004 79.9648C63.4434 81.1426 62.5527 82.0684 61.3281 82.5195L60.7305 81.6289C62.3711 81.0488 63.3203 79.6484 63.332 78.0781V77.0469H64.4336V78.1719ZM62.1484 85.0273C62.1484 83.7969 63.4902 83.0762 65.6758 83.082C67.832 83.0762 69.1562 83.7969 69.1562 85.0273C69.1562 86.2695 67.832 86.9785 65.6758 86.9727C63.4902 86.9785 62.1484 86.2695 62.1484 85.0273ZM63.2617 85.0273C63.2559 85.7188 64.1582 86.0938 65.6758 86.1055C67.1816 86.0938 68.0723 85.7188 68.0664 85.0273C68.0723 84.3594 67.1816 83.9609 65.6758 83.9609C64.1582 83.9609 63.2559 84.3594 63.2617 85.0273ZM67.9492 82.8359V76.4961H69.0625V79.1328H70.5859V80.0703H69.0625V82.8359H67.9492ZM83.1484 76.4961V86.9961H82.082V76.4961H83.1484ZM74.2305 81.0313C74.2305 78.7578 75.1211 77.334 76.4922 77.3398C77.3887 77.334 78.0801 77.9316 78.4551 78.9688H79.9844V76.6953H81.0391V86.4805H79.9844V83.0938H78.4609C78.0801 84.1367 77.3887 84.7402 76.4922 84.7344C75.1211 84.7402 74.2305 83.3105 74.2305 81.0313ZM75.25 81.0313C75.2441 82.7012 75.7129 83.6855 76.4922 83.6797C77.2656 83.6855 77.7578 82.7012 77.7578 81.0313C77.7578 79.3555 77.2656 78.377 76.4922 78.3828C75.7129 78.377 75.2441 79.3555 75.25 81.0313ZM78.6895 79.8711C78.748 80.2285 78.7773 80.6152 78.7773 81.0313C78.7773 81.4414 78.748 81.8281 78.6895 82.1797H79.9844V79.8711H78.6895ZM88.1055 78.1719C88.0996 79.5488 89.0723 80.832 90.6367 81.3477L90.0391 82.2266C88.8906 81.8223 88.0293 81.002 87.5723 79.9648C87.1152 81.1426 86.2246 82.0684 85 82.5195L84.4023 81.6289C86.043 81.0488 86.9922 79.6484 87.0039 78.0781V77.0469H88.1055V78.1719ZM85.8203 85.0273C85.8203 83.7969 87.1621 83.0762 89.3477 83.082C91.5039 83.0762 92.8281 83.7969 92.8281 85.0273C92.8281 86.2695 91.5039 86.9785 89.3477 86.9727C87.1621 86.9785 85.8203 86.2695 85.8203 85.0273ZM86.9336 85.0273C86.9277 85.7188 87.8301 86.0938 89.3477 86.1055C90.8535 86.0938 91.7441 85.7188 91.7383 85.0273C91.7441 84.3594 90.8535 83.9609 89.3477 83.9609C87.8301 83.9609 86.9277 84.3594 86.9336 85.0273ZM91.6211 82.8359V76.4961H92.7344V79.1328H94.2578V80.0703H92.7344V82.8359H91.6211Z" fill="#EB5147"/>
<path d="M30.9238 112.9H24.5781V114.219H29.1309V117.77H19.9551V119.07H29.5703L29.5703 120.336H18.3203V116.609H27.4785V115.432H18.3027V114.219H22.9258V112.9H16.5977V111.652H30.9238L30.9238 112.9ZM17.3008 109.771C18.3027 109.719 19.1963 109.584 19.9814 109.367C20.7666 109.15 21.4023 108.869 21.8887 108.523C22.375 108.178 22.6738 107.785 22.7852 107.346H18.0215V106.062H22.9258V104.674H24.5781V106.062H29.5V107.346H24.71C24.8213 107.785 25.1172 108.178 25.5977 108.523C26.084 108.869 26.7227 109.15 27.5137 109.367C28.3105 109.584 29.2129 109.719 30.2207 109.771L29.7109 111.037C28.3047 110.932 27.0801 110.677 26.0371 110.272C24.9941 109.868 24.2324 109.329 23.752 108.655C23.2715 109.329 22.5068 109.868 21.458 110.272C20.415 110.677 19.1875 110.932 17.7754 111.037L17.3008 109.771ZM44.5227 106.924V107.451C44.5227 108.195 44.4963 108.919 44.4436 109.622C44.3908 110.319 44.2854 111.078 44.1271 111.898H46.3508V113.27H31.9367V111.898H42.4484C42.6301 110.99 42.7443 110.176 42.7912 109.455C42.8439 108.729 42.8703 107.92 42.8703 107.029H33.7473V105.676H44.5227V106.924ZM33.8176 114.904H35.4699V118.789H44.9973V120.16H33.8176V114.904ZM60.3539 112.76H58.684V104.744H60.3539V112.76ZM47.5395 111.723C49.473 111.318 50.9643 110.694 52.0131 109.851C53.0678 109.007 53.6596 107.996 53.7885 106.818H48.3656V105.447H55.6254C55.6195 107.475 54.9809 109.121 53.7094 110.387C52.4379 111.646 50.5863 112.543 48.1547 113.076L47.5395 111.723ZM50.0004 113.463H60.3539L60.3539 117.418L51.7055 117.418V119.018L60.8813 119.018V120.336L50.0531 120.336V116.17H58.684L58.684 114.781H50.0004V113.463Z" fill="#171717"/>
<circle cx="42" cy="177" r="12" fill="#0EB5EB"/>
<path d="M37.73 178.299L41.7036 172.142H43.7603V178.261H44.9663V179.62H43.7603V181.333H42.186V179.62H37.73V178.299ZM42.2114 178.261V174.021H42.1099L39.4185 178.198V178.261H42.2114Z" fill="#F9F9F9"/>
<circle cx="41.8066" cy="177" r="12" fill="#0EB5EB"/>
<path d="M37.6309 178.732L41.9102 172.102H44.125V178.691H45.4238V180.154H44.125V182H42.4297V180.154H37.6309V178.732ZM42.457 178.691V174.125H42.3477L39.4492 178.623V178.691H42.457Z" fill="#F9F9F9"/>
<path d="M30.1484 197.914C30.1445 198.383 30.2363 198.834 30.4238 199.268C30.6152 199.697 30.8984 200.078 31.2734 200.41C31.6523 200.742 32.1094 200.996 32.6445 201.172L31.9414 202.191C31.3906 201.992 30.9102 201.705 30.5 201.33C30.0938 200.955 29.7715 200.516 29.5332 200.012C29.2949 200.594 28.957 201.098 28.5195 201.523C28.082 201.949 27.5547 202.273 26.9375 202.496L26.2461 201.465C26.8047 201.273 27.2773 201 27.6641 200.645C28.0547 200.285 28.3477 199.875 28.543 199.414C28.7383 198.949 28.8359 198.461 28.8359 197.949V197H30.1484V197.914ZM27.8633 203.035H34.707V206.914H27.8633V203.035ZM33.418 205.859V204.078H29.1523V205.859H33.418ZM33.4062 196.449H34.707V198.945H36.1836V200.012H34.707V202.602H33.4062V196.449ZM45.0781 199.004H46.5547V200.094H45.0781V202.625H43.7773V196.449H45.0781V199.004ZM36.6172 201.57C37.4297 201.359 38.1309 201.084 38.7207 200.744C39.3105 200.4 39.7734 200.008 40.1094 199.566C40.4453 199.121 40.6504 198.641 40.7246 198.125H37.1445V197.07H42.125C42.125 197.988 41.9297 198.812 41.5391 199.543C41.1523 200.273 40.5879 200.893 39.8457 201.4C39.1074 201.908 38.2109 202.297 37.1562 202.566L36.6172 201.57ZM38.0234 203.07H45.0781V207.043H43.7773V204.113H38.0234V203.07ZM51.0898 199.461C51.0898 200.043 51.1992 200.619 51.418 201.189C51.6406 201.756 51.957 202.266 52.3672 202.719C52.7812 203.168 53.2656 203.508 53.8203 203.738L53.1055 204.77C52.4922 204.504 51.959 204.111 51.5059 203.592C51.0527 203.068 50.7012 202.461 50.4512 201.77C50.2012 202.512 49.8477 203.168 49.3906 203.738C48.9336 204.309 48.4023 204.738 47.7969 205.027L47.0469 204.008C47.5898 203.758 48.0664 203.391 48.4766 202.906C48.8867 202.422 49.2031 201.877 49.4258 201.271C49.6484 200.666 49.7617 200.062 49.7656 199.461V198.57H47.4336V197.492H53.4102V198.57H51.0898V199.461ZM54.5938 196.449H55.9062V207.043H54.5938V196.449Z" fill="#49AFEF"/>
<g clip-path="url(#clip0_5513_3541)">
<g clip-path="url(#clip1_5513_3541)">
<path d="M103.25 168L101.229 164.5L105.27 164.5L103.25 168Z" fill="#0EB5EB"/>
<circle cx="103.217" cy="152.8" r="12.8" fill="#0EB5EB"/>
<path d="M106.534 147C106.037 147.015 105.45 147.208 105.116 147.438C104.529 146.383 103.497 145.723 102.279 145.723C100.519 145.723 98.9222 146.918 98.8183 148.596C98.8108 148.596 98.8034 148.596 98.796 148.596C96.9617 148.596 95.625 150.215 95.625 152.05C95.625 153.884 97.0954 155.146 98.9222 155.161C98.9371 155.161 98.9519 155.161 98.9668 155.161C99.5534 155.176 106.126 155.176 106.126 155.176C106.244 155.176 106.386 155.176 106.497 155.176C108.747 155.176 110.566 153.52 110.566 151.218C110.566 148.916 108.777 146.948 106.534 147Z" fill="white"/>
<path d="M101.321 155.31L98.8633 158.555H100.334V160.827L102.792 157.582H101.321V155.31Z" fill="white"/>
<path d="M105.866 155.31L103.416 158.54H104.878V160.805L107.329 157.575H105.866V155.31Z" fill="white"/>
</g>
</g>
<rect x="54" y="176" width="98.5" height="2" fill="#0EB5EB"/>
<circle cx="164.5" cy="177" r="12" fill="#0CD77D"/>
<path d="M161.012 180.14L164.262 177.004C164.613 176.653 164.884 176.365 165.074 176.141C165.269 175.912 165.417 175.688 165.519 175.468C165.62 175.244 165.671 175.007 165.671 174.757C165.671 174.478 165.601 174.232 165.461 174.021C165.326 173.809 165.138 173.646 164.896 173.532C164.66 173.418 164.393 173.361 164.097 173.361C163.784 173.361 163.508 173.424 163.271 173.551C163.039 173.674 162.859 173.849 162.732 174.078C162.609 174.307 162.548 174.575 162.548 174.884H160.974C160.974 174.313 161.105 173.811 161.367 173.38C161.634 172.944 162.004 172.607 162.478 172.37C162.956 172.134 163.5 172.015 164.109 172.015C164.727 172.015 165.273 172.129 165.747 172.358C166.225 172.586 166.596 172.904 166.858 173.31C167.125 173.712 167.258 174.169 167.258 174.681C167.254 175.036 167.184 175.379 167.048 175.709C166.913 176.035 166.68 176.399 166.35 176.801C166.02 177.203 165.552 177.69 164.947 178.261L163.31 179.886V179.95H167.397V181.333H161.012V180.14Z" fill="#F9F9F9"/>
<path d="M158.137 198.992C158.133 199.629 158.232 200.25 158.436 200.855C158.643 201.461 158.939 202.004 159.326 202.484C159.717 202.961 160.18 203.328 160.715 203.586L159.918 204.629C159.355 204.344 158.867 203.938 158.453 203.41C158.043 202.883 157.723 202.273 157.492 201.582C157.254 202.32 156.918 202.973 156.484 203.539C156.055 204.102 155.543 204.531 154.949 204.828L154.152 203.785C154.703 203.523 155.18 203.143 155.582 202.643C155.988 202.139 156.297 201.57 156.508 200.938C156.723 200.301 156.832 199.652 156.836 198.992V197.305H158.137V198.992ZM161.348 196.449H162.648V200.598H164.277V201.711H162.648V207.043H161.348V196.449ZM173.09 199.051H174.555V200.117H173.09V202.637H171.777V196.449H173.09V199.051ZM165.133 197.199H169.879V198.254H166.422V200.914C167.473 200.91 168.318 200.887 168.959 200.844C169.6 200.797 170.223 200.711 170.828 200.586L170.957 201.629C170.305 201.77 169.627 201.861 168.924 201.904C168.225 201.947 167.246 201.969 165.988 201.969H165.133V197.199ZM166.047 204.922C166.047 204.488 166.191 204.115 166.48 203.803C166.773 203.49 167.189 203.252 167.729 203.088C168.271 202.92 168.906 202.836 169.633 202.836C170.355 202.836 170.982 202.92 171.514 203.088C172.049 203.252 172.461 203.49 172.75 203.803C173.039 204.115 173.184 204.488 173.184 204.922C173.184 205.363 173.039 205.742 172.75 206.059C172.461 206.375 172.049 206.615 171.514 206.779C170.982 206.947 170.355 207.031 169.633 207.031C168.902 207.031 168.268 206.947 167.729 206.779C167.189 206.615 166.773 206.375 166.48 206.059C166.191 205.742 166.047 205.363 166.047 204.922ZM167.336 204.922C167.332 205.262 167.531 205.525 167.934 205.713C168.336 205.896 168.902 205.988 169.633 205.988C170.348 205.988 170.906 205.896 171.309 205.713C171.711 205.525 171.914 205.262 171.918 204.922C171.914 204.59 171.713 204.334 171.314 204.154C170.92 203.971 170.371 203.879 169.668 203.879C168.922 203.879 168.346 203.969 167.939 204.148C167.533 204.328 167.332 204.586 167.336 204.922Z" fill="#0CD77D"/>
<rect x="176.5" y="176" width="98.5" height="2" fill="#0CD77D"/>
<circle cx="287" cy="177" r="12" fill="#0CD77D"/>
<path d="M283.512 180.14L286.762 177.004C287.113 176.653 287.384 176.365 287.574 176.141C287.769 175.912 287.917 175.688 288.019 175.468C288.12 175.244 288.171 175.007 288.171 174.757C288.171 174.478 288.101 174.232 287.961 174.021C287.826 173.809 287.638 173.646 287.396 173.532C287.16 173.418 286.893 173.361 286.597 173.361C286.284 173.361 286.008 173.424 285.771 173.551C285.539 173.674 285.359 173.849 285.232 174.078C285.109 174.307 285.048 174.575 285.048 174.884H283.474C283.474 174.313 283.605 173.811 283.867 173.38C284.134 172.944 284.504 172.607 284.978 172.37C285.456 172.134 286 172.015 286.609 172.015C287.227 172.015 287.773 172.129 288.247 172.358C288.725 172.586 289.096 172.904 289.358 173.31C289.625 173.712 289.758 174.169 289.758 174.681C289.754 175.036 289.684 175.379 289.548 175.709C289.413 176.035 289.18 176.399 288.85 176.801C288.52 177.203 288.052 177.69 287.447 178.261L285.81 179.886V179.95H289.897V181.333H283.512V180.14Z" fill="#F9F9F9"/>
<path d="M285.207 199.027H286.684V200.094H285.207V202.66H283.906V196.449H285.207V199.027ZM276.816 201.77C277.609 201.555 278.295 201.271 278.873 200.92C279.455 200.568 279.914 200.166 280.25 199.713C280.586 199.256 280.791 198.762 280.865 198.23H277.297V197.176H282.277C282.277 198.094 282.084 198.926 281.697 199.672C281.311 200.414 280.748 201.051 280.01 201.582C279.271 202.113 278.379 202.527 277.332 202.824L276.816 201.77ZM278.246 204.91C278.242 204.48 278.387 204.105 278.68 203.785C278.973 203.465 279.387 203.219 279.922 203.047C280.457 202.875 281.078 202.789 281.785 202.789C282.496 202.789 283.117 202.875 283.648 203.047C284.184 203.219 284.596 203.465 284.885 203.785C285.178 204.105 285.324 204.48 285.324 204.91C285.324 205.344 285.178 205.721 284.885 206.041C284.596 206.361 284.184 206.605 283.648 206.773C283.117 206.945 282.496 207.031 281.785 207.031C281.078 207.031 280.457 206.945 279.922 206.773C279.387 206.605 278.973 206.361 278.68 206.041C278.387 205.721 278.242 205.344 278.246 204.91ZM279.535 204.91C279.535 205.137 279.625 205.334 279.805 205.502C279.984 205.666 280.242 205.793 280.578 205.883C280.918 205.969 281.32 206.012 281.785 206.012C282.246 206.012 282.646 205.969 282.986 205.883C283.326 205.793 283.588 205.666 283.771 205.502C283.955 205.334 284.047 205.137 284.047 204.91C284.043 204.562 283.84 204.293 283.438 204.102C283.035 203.906 282.484 203.809 281.785 203.809C281.32 203.809 280.918 203.852 280.578 203.938C280.242 204.023 279.984 204.15 279.805 204.318C279.625 204.482 279.535 204.68 279.535 204.91ZM295.578 198.758H297.066V199.836H295.578V202.426H294.277V196.461H295.578V198.758ZM287.68 196.977H288.992V200.709C290.465 200.689 291.91 200.543 293.328 200.27L293.48 201.336C292.66 201.5 291.846 201.615 291.037 201.682C290.232 201.748 289.406 201.781 288.559 201.781H287.68V196.977ZM288.723 202.941H295.578V206.902H288.723V202.941ZM294.301 205.871V203.961H290V205.871H294.301Z" fill="#0CD77D"/>
<rect x="18" y="225" width="293" height="40" rx="20" fill="white"/>
<rect x="18.5" y="225.5" width="292" height="39" rx="19.5" stroke="black" stroke-opacity="0.06"/>
<path d="M44.5684 238.836V239.902H42.791V242.363H44.5137V243.389H40.6719V244.756H45.6211V245.809H34.4512V244.756H39.3867V243.389H35.5312V242.363H37.2676V239.902H35.4766V238.836H44.5684ZM44.2539 246.902V250.662H42.9414V247.955H35.6953V246.902H44.2539ZM38.5527 242.363H41.4922V239.902H38.5527V242.363ZM57.548 245.371V246.451H52.5441V250.662H51.2727V246.451H46.3371V245.371H57.548ZM51.9152 238.877C54.4992 238.877 56.2766 239.93 56.2766 241.598C56.2766 243.252 54.4992 244.291 51.9152 244.291C49.3176 244.291 47.5539 243.252 47.5539 241.598C47.5539 239.93 49.3176 238.877 51.9152 238.877ZM51.9152 239.916C50.0969 239.93 48.8801 240.559 48.8938 241.598C48.8801 242.623 50.0969 243.252 51.9152 243.252C53.7336 243.252 54.9504 242.623 54.9504 241.598C54.9504 240.559 53.7336 239.93 51.9152 239.916ZM69.4613 248.105V249.199H58.2504V248.105H63.1859V245.959H59.6176V242.062H66.809V240.34H59.5902V239.273H68.0941V243.102H60.9027V244.893H68.3813V245.959H64.4711V248.105H69.4613ZM83.5262 238.426V247.326H82.2273V238.426H83.5262ZM83.8953 249.35V250.402H75.5145V246.424H76.827V249.35H83.8953ZM76.8816 239.246C78.7273 239.246 80.1355 240.504 80.1355 242.281C80.1355 244.086 78.7273 245.33 76.8816 245.33C75.0359 245.33 73.6141 244.086 73.6141 242.281C73.6141 240.504 75.0359 239.246 76.8816 239.246ZM76.8816 240.381C75.7332 240.381 74.8855 241.16 74.8855 242.281C74.8855 243.43 75.7332 244.195 76.8816 244.195C78.0027 244.195 78.8641 243.43 78.8641 242.281C78.8641 241.16 78.0027 240.381 76.8816 240.381ZM94.8926 238.426V242.363H96.6699V243.443H94.8926V247.586H93.5938V238.426H94.8926ZM92.582 239.848V240.9H85.2812V239.848H88.2891V238.412H89.5879V239.848H92.582ZM88.9316 241.488C90.6953 241.488 91.8984 242.404 91.8984 243.799C91.8984 245.193 90.6953 246.096 88.9316 246.096C87.1543 246.096 85.9512 245.193 85.9512 243.799C85.9512 242.404 87.1543 241.488 88.9316 241.488ZM88.9316 242.486C87.8926 242.486 87.1953 242.992 87.209 243.799C87.1953 244.592 87.8926 245.084 88.9316 245.084C89.9707 245.084 90.668 244.592 90.6816 243.799C90.668 242.992 89.9707 242.486 88.9316 242.486ZM95.4121 249.35V250.402H87.127V246.861H88.4258V249.35H95.4121ZM100.59 247.572V246.355L104.965 239.602H106.825V246.301H108.178V247.572H106.825V249.5H105.403V247.572H100.59ZM102.176 246.301H105.403V241.393H105.293L102.176 246.219V246.301ZM119.681 240.135V241.188H109.605V240.135H114.007V238.59H115.293V240.135H119.681ZM120.283 248.229V249.281H109.072V248.229H114.007V246.602C111.861 246.472 110.562 245.624 110.562 244.264C110.562 242.787 112.121 241.926 114.65 241.926C117.152 241.926 118.724 242.787 118.724 244.264C118.724 245.624 117.419 246.472 115.293 246.602V248.229H120.283ZM114.65 242.951C112.9 242.951 111.875 243.416 111.888 244.264C111.875 245.111 112.9 245.576 114.65 245.59C116.373 245.576 117.398 245.111 117.398 244.264C117.398 243.416 116.373 242.951 114.65 242.951ZM125.292 240.654C125.292 242.309 126.399 243.922 128.245 244.564L127.534 245.576C126.194 245.063 125.196 244.052 124.677 242.773C124.143 244.195 123.097 245.316 121.655 245.863L120.958 244.838C122.858 244.154 123.993 242.459 124.007 240.613V239.164H125.292V240.654ZM131.184 238.426V247.559H129.886V242.281H127.302V241.215H129.886V238.426H131.184ZM131.458 249.35V250.402H123.186V246.533H124.499V249.35H131.458ZM147.286 244.551V245.604H142.433V247.982H141.12V245.604H136.075V244.551H147.286ZM146.042 249.336V250.402H137.484V246.807H138.782V249.336H146.042ZM141.667 238.699C144.306 238.699 146.015 239.656 146.015 241.188C146.015 242.719 144.306 243.662 141.667 243.662C139.042 243.662 137.306 242.719 137.306 241.188C137.306 239.656 139.042 238.699 141.667 238.699ZM141.667 239.738C139.876 239.738 138.687 240.285 138.7 241.188C138.687 242.076 139.876 242.609 141.667 242.609C143.472 242.609 144.648 242.076 144.648 241.188C144.648 240.285 143.472 239.738 141.667 239.738ZM158.434 238.412V246.137H157.204V242.719H155.782V245.713H154.565V238.645H155.782V241.652H157.204V238.412H158.434ZM154.114 239.807V240.832H147.92V239.807H150.395V238.508H151.68V239.807H154.114ZM151.024 241.406C152.582 241.406 153.676 242.24 153.676 243.512C153.676 244.783 152.582 245.617 151.024 245.617C149.493 245.617 148.399 244.783 148.399 243.512C148.399 242.24 149.493 241.406 151.024 241.406ZM151.024 242.363C150.162 242.363 149.561 242.814 149.561 243.512C149.561 244.209 150.162 244.674 151.024 244.674C151.912 244.674 152.5 244.209 152.5 243.512C152.5 242.814 151.912 242.363 151.024 242.363ZM154.332 246.314C156.93 246.314 158.489 247.094 158.502 248.488C158.489 249.855 156.93 250.648 154.332 250.635C151.735 250.648 150.176 249.855 150.19 248.488C150.176 247.094 151.735 246.314 154.332 246.314ZM154.332 247.312C152.514 247.312 151.461 247.723 151.475 248.488C151.461 249.227 152.514 249.65 154.332 249.637C156.164 249.65 157.19 249.227 157.204 248.488C157.19 247.723 156.164 247.312 154.332 247.312ZM170.101 238.412V245.699H168.802V242.596H166.519V241.529H168.802V238.412H170.101ZM166 246.041C168.57 246.041 170.142 246.889 170.142 248.352C170.142 249.814 168.57 250.648 166 250.662C163.429 250.648 161.843 249.814 161.857 248.352C161.843 246.889 163.429 246.041 166 246.041ZM166 247.053C164.209 247.053 163.142 247.518 163.142 248.352C163.142 249.172 164.209 249.65 166 249.637C167.791 249.65 168.857 249.172 168.857 248.352C168.857 247.518 167.791 247.053 166 247.053ZM164.277 240.572C164.277 242.131 165.384 243.635 167.23 244.264L166.56 245.289C165.186 244.811 164.174 243.833 163.648 242.623C163.108 243.997 162.035 245.098 160.572 245.631L159.888 244.592C161.789 243.936 162.951 242.281 162.951 240.586V240.312H160.298V239.26H166.902V240.312H164.277V240.572ZM176.3 242.021C176.3 244.072 177.639 246.191 179.526 246.998L178.815 248.01C177.373 247.374 176.224 246.027 175.657 244.387C175.09 246.137 173.934 247.627 172.512 248.324L171.761 247.299C173.606 246.438 174.973 244.127 174.987 242.021V240.723H172.184V239.643H179.089V240.723H176.3V242.021ZM181.932 238.412V250.662H180.634V238.412H181.932Z" fill="#171717"/>
<path d="M290.5 249L295 245L290.5 241" stroke="#999999" stroke-linecap="round" stroke-linejoin="round"/>
<defs>
<clipPath id="clip0_5513_3541">
<rect width="28" height="28" fill="white" transform="translate(89.25 140)"/>
</clipPath>
<clipPath id="clip1_5513_3541">
<rect width="28" height="28" fill="white" transform="translate(89.25 140)"/>
</clipPath>
</defs>
</svg>
