<svg width="72" height="61" viewBox="0 0 72 61" fill="none" xmlns="http://www.w3.org/2000/svg">
<circle cx="35.5" cy="30.5" r="30.5" fill="white"/>
<g opacity="0.5">
<g clip-path="url(#clip0_4883_4885)">
<path d="M36.0484 21.0383C38.2681 21.0383 40.0676 19.2388 40.0676 17.0191C40.0676 14.7994 38.2681 13 36.0484 13C33.8287 13 32.0293 14.7994 32.0293 17.0191C32.0293 19.2388 33.8287 21.0383 36.0484 21.0383Z" stroke="black" stroke-linecap="square" stroke-linejoin="round"/>
<path d="M45.0488 32.9998C45.2042 33.0036 45.3584 32.9719 45.4997 32.9072C45.641 32.8424 45.7656 32.7463 45.8641 32.6261C45.9626 32.5059 46.0324 32.3648 46.0682 32.2136C46.104 32.0623 46.1048 31.9049 46.0705 31.7533C45.0488 27.8811 41.8918 23.0792 36.0478 23.0792C30.2038 23.0792 26.9957 27.8811 26.0251 31.7533C25.9909 31.9049 25.9917 32.0623 26.0274 32.2136C26.0632 32.3648 26.133 32.5059 26.2315 32.6261C26.33 32.7463 26.4547 32.8424 26.596 32.9072C26.7372 32.9719 26.8914 33.0036 27.0468 32.9998H36.0478H45.0488Z" stroke="black" stroke-linejoin="round"/>
</g>
<path d="M32.0742 48.584H28.0703V42.9883H32.0742V48.584ZM31.3125 47.959V43.6035H28.8125V47.959H31.3125ZM33.666 42.1094H34.4277V45.5762H35.8828V46.2402H34.4277V50.791H33.666V42.1094ZM43.5098 50.8105H42.7383V42.1094H43.5098V50.8105ZM36.6738 45.8105C36.6738 45.2051 36.7682 44.6745 36.957 44.2188C37.1458 43.7598 37.4079 43.4066 37.7432 43.1592C38.0785 42.9085 38.4609 42.7832 38.8906 42.7832C39.3203 42.7832 39.7028 42.9085 40.0381 43.1592C40.3734 43.4066 40.6354 43.7598 40.8242 44.2188C41.013 44.6745 41.1074 45.2051 41.1074 45.8105C41.1074 46.416 41.013 46.9482 40.8242 47.4072C40.6354 47.863 40.3734 48.2145 40.0381 48.4619C39.7028 48.7061 39.3203 48.8281 38.8906 48.8281C38.4609 48.8281 38.0785 48.7061 37.7432 48.4619C37.4079 48.2145 37.1458 47.863 36.957 47.4072C36.7682 46.9482 36.6738 46.416 36.6738 45.8105ZM37.416 45.8105C37.416 46.276 37.4779 46.6862 37.6016 47.041C37.7253 47.3926 37.8994 47.6644 38.124 47.8564C38.3486 48.0485 38.6042 48.1445 38.8906 48.1445C39.1803 48.1445 39.4359 48.0485 39.6572 47.8564C39.8818 47.6644 40.056 47.3926 40.1797 47.041C40.3034 46.6862 40.3652 46.276 40.3652 45.8105C40.3652 45.3451 40.3034 44.9365 40.1797 44.585C40.056 44.2301 39.8818 43.9551 39.6572 43.7598C39.4359 43.5645 39.1803 43.4668 38.8906 43.4668C38.6042 43.4668 38.3486 43.5645 38.124 43.7598C37.8994 43.9551 37.7253 44.2301 37.6016 44.585C37.4779 44.9398 37.416 45.3483 37.416 45.8105Z" fill="black"/>
</g>
<defs>
<clipPath id="clip0_4883_4885">
<rect width="24" height="24" fill="white" transform="translate(24 11)"/>
</clipPath>
</defs>
</svg>
