<?xml version="1.0" encoding="UTF-8"?>
<svg xmlns="http://www.w3.org/2000/svg" xmlns:xlink="http://www.w3.org/1999/xlink" width="400px" height="308px" viewBox="0 0 400 308" version="1.1">
<defs>
<clipPath id="clip1">
  <path d="M 112 152 L 127 152 L 127 167.335938 L 112 167.335938 Z M 112 152 "/>
</clipPath>
<clipPath id="clip2">
  <path d="M 44 257 L 56 257 L 56 270.113281 L 44 270.113281 Z M 44 257 "/>
</clipPath>
</defs>
<g id="surface1">
<path style=" stroke:none;fill-rule:nonzero;fill:rgb(100%,100%,100%);fill-opacity:1;" d="M 0 17.042969 C 0 7.628906 7.621094 0 17.019531 0 L 381.761719 0 C 391.164062 0 398.785156 7.628906 398.785156 17.042969 L 398.785156 290.957031 C 398.785156 300.371094 391.164062 308 381.761719 308 L 17.019531 308 C 7.621094 308 0 300.371094 0 290.957031 Z M 0 17.042969 "/>
<path style=" stroke:none;fill-rule:nonzero;fill:rgb(100%,100%,100%);fill-opacity:1;" d="M 17.019531 0 L 381.761719 0 C 391.164062 0 398.785156 7.628906 398.785156 17.042969 L 398.785156 290.957031 C 398.785156 300.371094 391.164062 308 381.761719 308 L 17.019531 308 C 7.621094 308 0 300.371094 0 290.957031 L 0 17.042969 C 0 7.628906 7.621094 0 17.019531 0 Z M 17.019531 0 "/>
<path style=" stroke:none;fill-rule:nonzero;fill:rgb(0%,0%,0%);fill-opacity:1;" d="M 37.023438 23.957031 L 37.023438 43.28125 L 34.734375 43.28125 L 34.734375 33.507812 L 32.59375 33.507812 L 32.59375 42.320312 L 30.367188 42.320312 L 30.367188 24.320312 L 32.59375 24.320312 L 32.59375 31.5625 L 34.734375 31.5625 L 34.734375 23.957031 Z M 21.273438 38.46875 L 21.273438 26.167969 L 23.65625 26.167969 L 23.65625 36.382812 C 25.316406 36.351562 27.140625 36.207031 29.171875 35.816406 L 29.421875 37.878906 C 26.804688 38.34375 24.59375 38.476562 22.558594 38.46875 Z M 54.480469 23.957031 L 54.480469 31.507812 L 57.34375 31.507812 L 57.34375 33.484375 L 54.480469 33.484375 L 54.480469 43.253906 L 52.097656 43.253906 L 52.097656 23.957031 Z M 39.25 37.972656 C 43.953125 35.609375 46.492188 32.328125 46.960938 27.921875 L 40.277344 27.921875 L 40.277344 25.964844 L 49.378906 25.964844 C 49.363281 31.644531 47.011719 36.640625 40.589844 39.800781 Z M 79.667969 23.957031 L 79.667969 43.328125 L 77.277344 43.328125 L 77.277344 32.742188 L 73.566406 32.742188 L 73.566406 30.796875 L 77.277344 30.796875 L 77.277344 23.957031 Z M 63.199219 37.742188 C 66.289062 36.292969 68.121094 32.628906 68.128906 29.09375 L 68.128906 27.792969 L 63.992188 27.792969 L 63.992188 25.863281 L 74.703125 25.863281 L 74.703125 27.792969 L 70.554688 27.792969 L 70.554688 29.09375 C 70.546875 32.433594 72.359375 35.964844 75.464844 37.335938 L 74.058594 39.21875 C 71.816406 38.152344 70.210938 36.011719 69.367188 33.453125 C 68.519531 36.183594 66.871094 38.484375 64.621094 39.621094 Z M 89.300781 27.445312 C 89.300781 29.808594 90.828125 32.03125 93.84375 32.953125 L 92.714844 34.824219 C 90.546875 34.140625 89.011719 32.765625 88.160156 31.023438 C 87.304688 33.054688 85.679688 34.65625 83.359375 35.4375 L 82.152344 33.550781 C 85.265625 32.546875 86.898438 30.035156 86.914062 27.460938 L 86.914062 27.21875 L 82.816406 27.21875 L 82.816406 25.296875 L 93.304688 25.296875 L 93.304688 27.21875 L 89.300781 27.21875 Z M 84.789062 39.574219 C 84.78125 37.261719 87.28125 35.914062 91.324219 35.914062 C 95.332031 35.914062 97.785156 37.261719 97.785156 39.574219 C 97.785156 41.90625 95.332031 43.277344 91.324219 43.269531 C 87.28125 43.277344 84.78125 41.90625 84.789062 39.574219 Z M 87.160156 39.574219 C 87.152344 40.769531 88.671875 41.40625 91.324219 41.398438 C 93.96875 41.40625 95.453125 40.769531 95.453125 39.574219 C 95.453125 38.402344 93.96875 37.78125 91.324219 37.78125 C 88.671875 37.78125 87.152344 38.402344 87.160156 39.574219 Z M 95.226562 35.488281 L 95.226562 23.957031 L 97.613281 23.957031 L 97.613281 28.597656 L 100.3125 28.597656 L 100.3125 30.546875 L 97.613281 30.546875 L 97.613281 35.488281 Z M 116.527344 23.972656 L 116.527344 30.050781 L 119.222656 30.050781 L 119.222656 32.007812 L 116.527344 32.007812 L 116.527344 38.425781 L 114.140625 38.425781 L 114.140625 23.972656 Z M 101.300781 28.003906 L 101.300781 26.113281 L 105.855469 26.113281 L 105.855469 23.957031 L 108.222656 23.957031 L 108.222656 26.113281 L 112.761719 26.113281 L 112.761719 28.003906 Z M 102.296875 32.515625 C 102.289062 30.289062 104.222656 28.816406 107.042969 28.816406 C 109.816406 28.816406 111.742188 30.289062 111.75 32.515625 C 111.742188 34.71875 109.816406 36.171875 107.042969 36.164062 C 104.222656 36.171875 102.289062 34.71875 102.296875 32.515625 Z M 104.148438 42.917969 L 104.148438 37.289062 L 106.515625 37.289062 L 106.515625 40.992188 L 117.28125 40.992188 L 117.28125 42.917969 Z M 104.601562 32.515625 C 104.585938 33.671875 105.570312 34.347656 107.042969 34.339844 C 108.5 34.347656 109.484375 33.671875 109.5 32.515625 C 109.484375 31.335938 108.5 30.648438 107.042969 30.648438 C 105.570312 30.648438 104.585938 31.335938 104.601562 32.515625 Z M 141.570312 23.972656 L 141.570312 35.269531 L 139.199219 35.269531 L 139.199219 33.136719 L 134.597656 33.136719 L 134.597656 31.214844 L 139.199219 31.214844 L 139.199219 29.117188 L 134.785156 29.117188 C 133.570312 32.199219 130.742188 34.355469 126.53125 35.527344 L 125.585938 33.652344 C 130.101562 32.417969 132.511719 30.125 132.890625 27.25 L 126.609375 27.25 L 126.609375 25.3125 L 135.472656 25.3125 C 135.472656 25.984375 135.421875 26.621094 135.3125 27.234375 L 139.199219 27.234375 L 139.199219 23.972656 Z M 128.625 39.324219 C 128.617188 36.957031 131.21875 35.488281 135.179688 35.488281 C 139.089844 35.488281 141.691406 36.957031 141.699219 39.324219 C 141.691406 41.710938 139.089844 43.199219 135.179688 43.191406 C 131.21875 43.199219 128.617188 41.710938 128.625 39.324219 Z M 131 39.324219 C 130.992188 40.605469 132.578125 41.300781 135.179688 41.300781 C 137.734375 41.300781 139.3125 40.605469 139.328125 39.324219 C 139.3125 38.046875 137.734375 37.34375 135.179688 37.359375 C 132.578125 37.34375 130.992188 38.046875 131 39.324219 Z M 161.964844 39.082031 L 161.964844 41.050781 L 144.304688 41.050781 L 144.304688 39.082031 L 151.914062 39.082031 L 151.914062 35.929688 L 146.398438 35.929688 L 146.398438 29.601562 L 157.523438 29.601562 L 157.523438 27.195312 L 146.367188 27.195312 L 146.367188 25.273438 L 159.871094 25.273438 L 159.871094 31.488281 L 148.773438 31.488281 L 148.773438 33.984375 L 160.320312 33.984375 L 160.320312 35.929688 L 154.273438 35.929688 L 154.273438 39.082031 Z M 161.964844 39.082031 "/>
<path style=" stroke:none;fill-rule:nonzero;fill:rgb(60%,60%,60%);fill-opacity:1;" d="M 310.5625 27.429688 L 310.5625 40.140625 L 309.441406 40.140625 L 309.441406 32.980469 L 306.660156 32.980469 L 306.660156 32.050781 L 309.441406 32.050781 L 309.441406 27.429688 Z M 299.949219 36.730469 C 301.789062 35.839844 303.320312 33.449219 303.328125 31.195312 L 303.328125 29.667969 L 300.433594 29.667969 L 300.433594 28.742188 L 307.359375 28.742188 L 307.359375 29.667969 L 304.453125 29.667969 L 304.453125 31.195312 C 304.460938 33.308594 305.96875 35.605469 307.816406 36.445312 L 307.144531 37.34375 C 305.699219 36.632812 304.480469 35.097656 303.902344 33.328125 C 303.332031 35.210938 302.082031 36.84375 300.632812 37.601562 Z M 316.960938 29.839844 C 316.96875 31.503906 318.210938 32.984375 320.066406 33.59375 L 319.539062 34.476562 C 318.082031 33.992188 316.976562 32.984375 316.429688 31.710938 C 315.886719 33.164062 314.71875 34.296875 313.199219 34.847656 L 312.632812 33.949219 C 314.523438 33.308594 315.851562 31.671875 315.863281 29.839844 L 315.863281 29.296875 L 312.972656 29.296875 L 312.972656 28.371094 L 319.8125 28.371094 L 319.8125 29.296875 L 316.960938 29.296875 Z M 314.3125 37.742188 C 314.320312 36.28125 315.90625 35.433594 318.515625 35.433594 C 321.113281 35.433594 322.6875 36.28125 322.6875 37.742188 C 322.6875 39.226562 321.113281 40.082031 318.515625 40.082031 C 315.90625 40.082031 314.320312 39.226562 314.3125 37.742188 Z M 315.4375 37.742188 C 315.421875 38.65625 316.605469 39.191406 318.515625 39.183594 C 320.429688 39.191406 321.601562 38.65625 321.605469 37.742188 C 321.601562 36.859375 320.429688 36.332031 318.515625 36.332031 C 316.605469 36.332031 315.421875 36.859375 315.4375 37.742188 Z M 321.464844 35.089844 L 321.464844 27.429688 L 322.574219 27.429688 L 322.574219 30.667969 L 324.484375 30.667969 L 324.484375 31.609375 L 322.574219 31.609375 L 322.574219 35.089844 Z M 335.785156 27.445312 L 335.785156 35.0625 L 334.65625 35.0625 L 334.65625 33.351562 L 331.292969 33.351562 L 331.292969 32.421875 L 334.65625 32.421875 L 334.65625 30.710938 L 331.421875 30.710938 C 330.589844 32.75 328.636719 34.226562 325.921875 35.035156 L 325.453125 34.148438 C 328.507812 33.242188 330.425781 31.523438 330.648438 29.328125 L 326.09375 29.328125 L 326.09375 28.386719 L 331.863281 28.386719 C 331.863281 28.882812 331.808594 29.363281 331.699219 29.8125 L 334.65625 29.8125 L 334.65625 27.445312 Z M 327.40625 37.617188 C 327.398438 36.101562 329.042969 35.191406 331.636719 35.191406 C 334.203125 35.191406 335.855469 36.101562 335.855469 37.617188 C 335.855469 39.136719 334.203125 40.054688 331.636719 40.054688 C 329.042969 40.054688 327.398438 39.136719 327.40625 37.617188 Z M 328.503906 37.617188 C 328.507812 38.570312 329.726562 39.148438 331.636719 39.140625 C 333.515625 39.148438 334.734375 38.570312 334.742188 37.617188 C 334.734375 36.660156 333.515625 36.082031 331.636719 36.089844 C 329.726562 36.082031 328.507812 36.660156 328.503906 37.617188 Z M 349.488281 37.601562 L 349.488281 38.542969 L 337.890625 38.542969 L 337.890625 37.601562 L 343.105469 37.601562 L 343.105469 35.203125 L 339.34375 35.203125 L 339.34375 31.296875 L 346.925781 31.296875 L 346.925781 29.296875 L 339.316406 29.296875 L 339.316406 28.371094 L 348.023438 28.371094 L 348.023438 32.207031 L 340.457031 32.207031 L 340.457031 34.277344 L 348.320312 34.277344 L 348.320312 35.203125 L 344.203125 35.203125 L 344.203125 37.601562 Z M 364.664062 27.429688 L 364.664062 36.875 L 363.539062 36.875 L 363.539062 33.191406 L 361.371094 33.191406 L 361.371094 32.25 L 363.539062 32.25 L 363.539062 30.78125 L 361.371094 30.78125 L 361.371094 29.855469 L 363.539062 29.855469 L 363.539062 27.429688 Z M 354.191406 33.992188 C 354.695312 33.992188 355.246094 33.984375 355.828125 33.976562 L 355.828125 29.382812 L 354.546875 29.382812 L 354.546875 28.472656 L 361.273438 28.472656 L 361.273438 29.382812 L 359.976562 29.382812 L 359.976562 33.828125 C 360.558594 33.792969 361.136719 33.742188 361.683594 33.679688 L 361.742188 34.519531 C 359.285156 34.898438 356.394531 34.941406 354.332031 34.949219 Z M 356.5 39.839844 L 356.5 36.089844 L 357.625 36.089844 L 357.625 38.898438 L 365.003906 38.898438 L 365.003906 39.839844 Z M 356.914062 33.957031 C 357.5625 33.941406 358.230469 33.921875 358.890625 33.890625 L 358.890625 29.382812 L 356.914062 29.382812 Z M 371.332031 29.527344 C 371.339844 31.179688 372.707031 32.652344 374.59375 33.222656 L 374.023438 34.105469 C 372.542969 33.636719 371.351562 32.613281 370.78125 31.300781 C 370.21875 32.707031 369.023438 33.804688 367.511719 34.320312 L 366.929688 33.433594 C 368.835938 32.828125 370.199219 31.265625 370.207031 29.527344 L 370.207031 29.199219 L 367.242188 29.199219 L 367.242188 28.285156 L 374.25 28.285156 L 374.25 29.199219 L 371.332031 29.199219 Z M 369.023438 39.941406 L 369.023438 34.917969 L 370.136719 34.917969 L 370.136719 36.460938 L 376.117188 36.460938 L 376.117188 34.917969 L 377.230469 34.917969 L 377.230469 39.941406 Z M 370.136719 39.027344 L 376.117188 39.027344 L 376.117188 37.359375 L 370.136719 37.359375 Z M 376.117188 34.292969 L 376.117188 27.429688 L 377.230469 27.429688 L 377.230469 34.292969 Z M 376.117188 34.292969 "/>
<path style="fill:none;stroke-width:1;stroke-linecap:butt;stroke-linejoin:miter;stroke:rgb(92.156863%,92.156863%,92.156863%);stroke-opacity:1;stroke-miterlimit:4;" d="M 328.000791 58.501116 L 0 58.501116 " transform="matrix(1.215805,0,0,1.217391,0,0)"/>
<path style=" stroke:none;fill-rule:nonzero;fill:rgb(9.019608%,9.019608%,9.019608%);fill-opacity:1;" d="M 37.726562 113.308594 L 30.246094 113.308594 L 30.246094 114.53125 L 35.609375 114.53125 L 35.609375 119.28125 L 24.773438 119.28125 L 24.773438 120.351562 L 36.121094 120.351562 L 36.121094 122.363281 L 22.101562 122.363281 L 22.101562 117.441406 L 32.917969 117.441406 L 32.917969 116.476562 L 22.082031 116.476562 L 22.082031 114.53125 L 27.53125 114.53125 L 27.53125 113.308594 L 20.074219 113.308594 L 20.074219 111.320312 L 37.726562 111.320312 Z M 20.757812 108.773438 C 22.609375 108.695312 24.070312 108.457031 25.136719 108.054688 C 26.207031 107.648438 26.890625 107.148438 27.1875 106.546875 L 21.738281 106.546875 L 21.738281 104.535156 L 27.53125 104.535156 L 27.53125 102.996094 L 30.222656 102.996094 L 30.222656 104.535156 L 36.058594 104.535156 L 36.058594 106.546875 L 30.554688 106.546875 C 30.855469 107.148438 31.539062 107.648438 32.605469 108.054688 C 33.683594 108.457031 35.152344 108.695312 37.019531 108.773438 L 36.230469 110.785156 C 34.441406 110.691406 32.925781 110.429688 31.675781 109.992188 C 30.429688 109.558594 29.496094 108.96875 28.878906 108.226562 C 28.257812 108.96875 27.324219 109.558594 26.078125 109.992188 C 24.832031 110.429688 23.308594 110.691406 21.503906 110.785156 Z M 54.628906 105.757812 L 54.628906 106.441406 C 54.628906 107.324219 54.601562 108.179688 54.546875 109 C 54.488281 109.820312 54.375 110.699219 54.203125 111.640625 L 56.746094 111.640625 L 56.746094 113.824219 L 38.945312 113.824219 L 38.945312 111.640625 L 51.425781 111.640625 C 51.617188 110.65625 51.746094 109.753906 51.808594 108.933594 C 51.875 108.113281 51.910156 107.234375 51.917969 106.292969 L 41.125 106.292969 L 41.125 104.109375 L 54.628906 104.109375 Z M 41.210938 115.535156 L 43.902344 115.535156 L 43.902344 119.945312 L 55.1875 119.945312 L 55.1875 122.125 L 41.210938 122.125 Z M 74.144531 112.816406 L 71.40625 112.816406 L 71.40625 103.015625 L 74.144531 103.015625 Z M 58.136719 111.019531 C 62.53125 110.222656 64.890625 108.523438 65.210938 105.925781 L 59.183594 105.925781 L 59.183594 103.722656 L 68.246094 103.722656 C 68.246094 105.5 67.910156 107.019531 67.238281 108.28125 C 66.570312 109.542969 65.5625 110.578125 64.214844 111.382812 C 62.875 112.191406 61.171875 112.804688 59.097656 113.222656 Z M 61.085938 113.589844 L 74.144531 113.589844 L 74.144531 118.851562 L 63.882812 118.851562 L 63.882812 120.179688 L 74.675781 120.179688 L 74.675781 122.296875 L 61.128906 122.296875 L 61.128906 116.882812 L 71.386719 116.882812 L 71.386719 115.707031 L 61.085938 115.707031 Z M 61.085938 113.589844 "/>
<path style=" stroke:none;fill-rule:nonzero;fill:rgb(100%,100%,100%);fill-opacity:1;" d="M 99.695312 99.21875 L 176.292969 99.21875 C 183.679688 99.21875 189.664062 105.210938 189.664062 112.609375 C 189.664062 120.003906 183.679688 126 176.292969 126 L 99.695312 126 C 92.308594 126 86.320312 120.003906 86.320312 112.609375 C 86.320312 105.210938 92.308594 99.21875 99.695312 99.21875 Z M 99.695312 99.21875 "/>
<path style=" stroke:none;fill-rule:nonzero;fill:rgb(92.156863%,31.764706%,27.843137%);fill-opacity:0.2;" d="M 99.695312 99.21875 L 176.292969 99.21875 C 183.679688 99.21875 189.664062 105.210938 189.664062 112.609375 C 189.664062 120.003906 183.679688 126 176.292969 126 L 99.695312 126 C 92.308594 126 86.320312 120.003906 86.320312 112.609375 C 86.320312 105.210938 92.308594 99.21875 99.695312 99.21875 Z M 99.695312 99.21875 "/>
<path style=" stroke:none;fill-rule:nonzero;fill:rgb(92.156863%,31.764706%,27.843137%);fill-opacity:1;" d="M 94.300781 115.464844 L 94.300781 114.195312 L 98.859375 107.148438 L 100.796875 107.148438 L 100.796875 114.140625 L 102.207031 114.140625 L 102.207031 115.464844 L 100.796875 115.464844 L 100.796875 117.476562 L 99.316406 117.476562 L 99.316406 115.464844 Z M 95.953125 114.140625 L 99.316406 114.140625 L 99.316406 109.019531 L 99.203125 109.019531 L 95.953125 114.054688 Z M 103.789062 117.476562 L 103.789062 116.335938 L 107.367188 112.726562 C 108.5 111.550781 109.0625 110.894531 109.0625 109.988281 C 109.0625 108.96875 108.234375 108.320312 107.152344 108.320312 C 106.003906 108.320312 105.277344 109.046875 105.273438 110.144531 L 103.789062 110.144531 C 103.777344 108.253906 105.214844 107.007812 107.179688 107.007812 C 109.167969 107.007812 110.542969 108.269531 110.558594 109.945312 C 110.542969 111.101562 110 112.019531 108.0625 113.925781 L 105.96875 116.050781 L 105.96875 116.136719 L 110.726562 116.136719 L 110.726562 117.476562 Z M 123.695312 112.597656 L 123.695312 113.683594 L 118.621094 113.683594 L 118.621094 116.039062 L 117.28125 116.039062 L 117.28125 113.683594 L 112.011719 113.683594 L 112.011719 112.597656 Z M 113.464844 118.417969 L 113.464844 114.925781 L 114.804688 114.925781 L 114.804688 117.320312 L 122.398438 117.320312 L 122.398438 118.417969 Z M 113.550781 111.472656 L 113.550781 106.308594 L 114.890625 106.308594 L 114.890625 107.863281 L 120.800781 107.863281 L 120.800781 106.308594 L 122.15625 106.308594 L 122.15625 111.472656 Z M 114.890625 110.386719 L 120.800781 110.386719 L 120.800781 108.875 L 114.890625 108.875 Z M 138.769531 105.910156 L 138.769531 118.71875 L 137.414062 118.71875 L 137.414062 105.910156 Z M 128.636719 111.34375 C 128.636719 108.613281 130.011719 106.871094 131.941406 106.863281 C 133.839844 106.871094 135.234375 108.613281 135.234375 111.34375 C 135.234375 114.105469 133.839844 115.84375 131.941406 115.835938 C 130.011719 115.84375 128.636719 114.105469 128.636719 111.34375 Z M 129.949219 111.34375 C 129.941406 113.375 130.753906 114.625 131.941406 114.625 C 133.109375 114.625 133.921875 113.375 133.921875 111.34375 C 133.921875 109.339844 133.109375 108.082031 131.941406 108.078125 C 130.753906 108.082031 129.941406 109.339844 129.949219 111.34375 Z M 145.207031 107.949219 C 145.203125 109.625 146.382812 111.1875 148.285156 111.816406 L 147.558594 112.882812 C 146.164062 112.390625 145.113281 111.394531 144.558594 110.132812 C 144.003906 111.566406 142.921875 112.691406 141.433594 113.242188 L 140.707031 112.15625 C 142.699219 111.449219 143.855469 109.746094 143.867188 107.835938 L 143.867188 106.578125 L 145.207031 106.578125 Z M 142.429688 116.292969 C 142.429688 114.796875 144.0625 113.917969 146.71875 113.925781 C 149.339844 113.917969 150.949219 114.796875 150.949219 116.292969 C 150.949219 117.804688 149.339844 118.667969 146.71875 118.664062 C 144.0625 118.667969 142.429688 117.804688 142.429688 116.292969 Z M 143.785156 116.292969 C 143.777344 117.136719 144.871094 117.59375 146.71875 117.605469 C 148.550781 117.59375 149.632812 117.136719 149.625 116.292969 C 149.632812 115.480469 148.550781 114.996094 146.71875 114.996094 C 144.871094 114.996094 143.777344 115.480469 143.785156 116.292969 Z M 149.480469 113.625 L 149.480469 105.910156 L 150.835938 105.910156 L 150.835938 109.117188 L 152.6875 109.117188 L 152.6875 110.257812 L 150.835938 110.257812 L 150.835938 113.625 Z M 167.960938 105.910156 L 167.960938 118.691406 L 166.664062 118.691406 L 166.664062 105.910156 Z M 157.117188 111.429688 C 157.117188 108.660156 158.203125 106.929688 159.867188 106.933594 C 160.960938 106.929688 161.800781 107.65625 162.253906 108.917969 L 164.113281 108.917969 L 164.113281 106.152344 L 165.398438 106.152344 L 165.398438 118.0625 L 164.113281 118.0625 L 164.113281 113.941406 L 162.261719 113.941406 C 161.800781 115.210938 160.960938 115.945312 159.867188 115.9375 C 158.203125 115.945312 157.117188 114.203125 157.117188 111.429688 Z M 158.359375 111.429688 C 158.351562 113.460938 158.921875 114.660156 159.867188 114.652344 C 160.808594 114.660156 161.40625 113.460938 161.40625 111.429688 C 161.40625 109.390625 160.808594 108.199219 159.867188 108.207031 C 158.921875 108.199219 158.351562 109.390625 158.359375 111.429688 Z M 162.539062 110.015625 C 162.613281 110.453125 162.648438 110.921875 162.648438 111.429688 C 162.648438 111.929688 162.613281 112.398438 162.539062 112.828125 L 164.113281 112.828125 L 164.113281 110.015625 Z M 173.988281 107.949219 C 173.980469 109.625 175.164062 111.1875 177.066406 111.816406 L 176.339844 112.882812 C 174.945312 112.390625 173.894531 111.394531 173.339844 110.132812 C 172.785156 111.566406 171.703125 112.691406 170.210938 113.242188 L 169.484375 112.15625 C 171.480469 111.449219 172.632812 109.746094 172.648438 107.835938 L 172.648438 106.578125 L 173.988281 106.578125 Z M 171.210938 116.292969 C 171.210938 114.796875 172.839844 113.917969 175.5 113.925781 C 178.121094 113.917969 179.730469 114.796875 179.730469 116.292969 C 179.730469 117.804688 178.121094 118.667969 175.5 118.664062 C 172.839844 118.667969 171.210938 117.804688 171.210938 116.292969 Z M 172.5625 116.292969 C 172.558594 117.136719 173.652344 117.59375 175.5 117.605469 C 177.332031 117.59375 178.414062 117.136719 178.40625 116.292969 C 178.414062 115.480469 177.332031 114.996094 175.5 114.996094 C 173.652344 114.996094 172.558594 115.480469 172.5625 116.292969 Z M 178.261719 113.625 L 178.261719 105.910156 L 179.617188 105.910156 L 179.617188 109.117188 L 181.46875 109.117188 L 181.46875 110.257812 L 179.617188 110.257812 L 179.617188 113.625 Z M 178.261719 113.625 "/>
<path style="fill:none;stroke-width:1;stroke-linecap:round;stroke-linejoin:round;stroke:rgb(60%,60%,60%);stroke-opacity:1;stroke-miterlimit:4;" d="M 308.498545 96.999163 L 312.999805 93.001116 L 308.498545 88.99986 " transform="matrix(1.215805,0,0,1.217391,0,0)"/>
<path style=" stroke:none;fill-rule:nonzero;fill:rgb(60%,60%,60%);fill-opacity:1;" d="M 320.167969 109.507812 C 320.167969 110.246094 320.285156 110.980469 320.515625 111.710938 C 320.746094 112.4375 321.078125 113.101562 321.511719 113.707031 C 321.949219 114.308594 322.460938 114.785156 323.054688 115.136719 L 322.359375 116.078125 C 321.710938 115.6875 321.148438 115.144531 320.675781 114.453125 C 320.210938 113.765625 319.851562 112.988281 319.605469 112.128906 C 319.347656 113.0625 318.96875 113.898438 318.46875 114.640625 C 317.972656 115.382812 317.386719 115.960938 316.710938 116.371094 L 315.9375 115.460938 C 316.554688 115.097656 317.097656 114.605469 317.558594 113.984375 C 318.023438 113.355469 318.375 112.65625 318.625 111.890625 C 318.871094 111.121094 318.996094 110.34375 318.996094 109.554688 L 318.996094 106.898438 L 320.167969 106.898438 Z M 321.542969 110.53125 L 323.871094 110.53125 L 323.871094 105.894531 L 325.015625 105.894531 L 325.015625 118.644531 L 323.871094 118.644531 L 323.871094 111.566406 L 321.542969 111.566406 Z M 326.679688 105.597656 L 327.855469 105.597656 L 327.855469 119.339844 L 326.679688 119.339844 Z M 342.300781 114.75 L 336.574219 114.75 L 336.574219 119.339844 L 335.386719 119.339844 L 335.386719 114.75 L 329.738281 114.75 L 329.738281 113.757812 L 342.300781 113.757812 Z M 331.34375 106.171875 L 332.546875 106.171875 L 332.546875 108.070312 L 339.460938 108.070312 L 339.460938 106.171875 L 340.679688 106.171875 L 340.679688 112.089844 L 331.34375 112.089844 Z M 339.460938 111.101562 L 339.460938 109.0625 L 332.546875 109.0625 L 332.546875 111.101562 Z M 354.789062 113.789062 L 353.570312 113.789062 L 353.570312 110.1875 L 350.804688 110.1875 L 350.804688 109.183594 L 353.570312 109.183594 L 353.570312 105.597656 L 354.789062 105.597656 Z M 343.476562 112.691406 C 344.148438 112.449219 344.746094 112.09375 345.273438 111.625 C 345.804688 111.15625 346.214844 110.621094 346.515625 110.011719 C 346.8125 109.402344 346.964844 108.777344 346.964844 108.132812 L 346.964844 107.625 L 343.859375 107.625 L 343.859375 106.605469 L 351.253906 106.605469 L 351.253906 107.625 L 348.183594 107.625 L 348.183594 108.117188 C 348.183594 108.710938 348.324219 109.285156 348.605469 109.839844 C 348.890625 110.398438 349.289062 110.890625 349.804688 111.324219 C 350.316406 111.753906 350.902344 112.082031 351.5625 112.308594 L 350.929688 113.28125 C 350.167969 113.003906 349.496094 112.589844 348.914062 112.042969 C 348.339844 111.496094 347.902344 110.867188 347.605469 110.152344 C 347.3125 110.953125 346.855469 111.664062 346.246094 112.277344 C 345.636719 112.890625 344.925781 113.351562 344.105469 113.667969 Z M 345.636719 116.773438 C 345.636719 116.238281 345.816406 115.777344 346.183594 115.398438 C 346.554688 115.015625 347.082031 114.726562 347.773438 114.523438 C 348.46875 114.324219 349.289062 114.222656 350.234375 114.222656 C 351.183594 114.222656 352 114.324219 352.6875 114.523438 C 353.378906 114.726562 353.910156 115.015625 354.28125 115.398438 C 354.648438 115.777344 354.835938 116.238281 354.835938 116.773438 C 354.835938 117.308594 354.648438 117.765625 354.28125 118.148438 C 353.910156 118.53125 353.378906 118.820312 352.6875 119.023438 C 352 119.226562 351.183594 119.332031 350.234375 119.339844 C 349.28125 119.332031 348.464844 119.226562 347.773438 119.023438 C 347.082031 118.820312 346.554688 118.53125 346.183594 118.148438 C 345.816406 117.765625 345.636719 117.308594 345.636719 116.773438 Z M 346.839844 116.773438 C 346.839844 117.097656 346.972656 117.382812 347.238281 117.625 C 347.507812 117.859375 347.894531 118.042969 348.398438 118.171875 C 348.910156 118.300781 349.507812 118.363281 350.195312 118.363281 C 350.902344 118.363281 351.511719 118.300781 352.027344 118.171875 C 352.539062 118.046875 352.9375 117.867188 353.214844 117.632812 C 353.492188 117.390625 353.628906 117.101562 353.628906 116.773438 C 353.628906 116.445312 353.496094 116.15625 353.222656 115.914062 C 352.949219 115.671875 352.554688 115.488281 352.042969 115.359375 C 351.53125 115.230469 350.929688 115.164062 350.234375 115.164062 C 349.535156 115.164062 348.929688 115.230469 348.421875 115.359375 C 347.914062 115.488281 347.519531 115.671875 347.25 115.914062 C 346.976562 116.15625 346.839844 116.445312 346.839844 116.773438 Z M 369.636719 117.578125 L 357.074219 117.578125 L 357.074219 116.574219 L 362.722656 116.574219 L 362.722656 113.605469 L 358.554688 113.605469 L 358.554688 106.574219 L 359.773438 106.574219 L 359.773438 109.0625 L 366.90625 109.0625 L 366.90625 106.574219 L 368.09375 106.574219 L 368.09375 113.605469 L 363.910156 113.605469 L 363.910156 116.574219 L 369.636719 116.574219 Z M 366.90625 112.617188 L 366.90625 110.050781 L 359.773438 110.050781 L 359.773438 112.617188 Z M 366.90625 112.617188 "/>
<path style="fill:none;stroke-width:1.5;stroke-linecap:butt;stroke-linejoin:miter;stroke:rgb(28.627451%,68.627451%,93.72549%);stroke-opacity:1;stroke-miterlimit:4;" d="M 162.736123 152.750419 L 33.886357 152.750419 " transform="matrix(1.215805,0,0,1.217391,0,0)"/>
<path style="fill:none;stroke-width:1.5;stroke-linecap:butt;stroke-linejoin:miter;stroke:rgb(31.372549%,82.745098%,33.72549%);stroke-opacity:1;stroke-miterlimit:4;" d="M 295.113643 152.750419 L 164.5 152.750419 " transform="matrix(1.215805,0,0,1.217391,0,0)"/>
<path style=" stroke:none;fill-rule:nonzero;fill:rgb(31.372549%,82.745098%,33.72549%);fill-opacity:1;" d="M 210.941406 186.261719 C 210.941406 192.3125 206.042969 197.21875 200 197.21875 C 193.957031 197.21875 189.058594 192.3125 189.058594 186.261719 C 189.058594 180.210938 193.957031 175.304688 200 175.304688 C 206.042969 175.304688 210.941406 180.210938 210.941406 186.261719 Z M 210.941406 186.261719 "/>
<path style=" stroke:none;fill-rule:nonzero;fill:rgb(97.647059%,97.647059%,97.647059%);fill-opacity:1;" d="M 196.164062 190.894531 L 200.117188 187.078125 C 200.542969 186.652344 200.871094 186.300781 201.101562 186.027344 C 201.339844 185.75 201.519531 185.476562 201.644531 185.207031 C 201.765625 184.933594 201.828125 184.648438 201.828125 184.34375 C 201.828125 184.003906 201.742188 183.703125 201.574219 183.445312 C 201.410156 183.1875 201.179688 182.988281 200.886719 182.851562 C 200.597656 182.710938 200.273438 182.640625 199.914062 182.640625 C 199.535156 182.640625 199.199219 182.71875 198.910156 182.875 C 198.628906 183.023438 198.410156 183.238281 198.253906 183.515625 C 198.105469 183.792969 198.03125 184.121094 198.03125 184.496094 L 196.117188 184.496094 C 196.117188 183.800781 196.277344 183.191406 196.597656 182.664062 C 196.921875 182.136719 197.371094 181.726562 197.945312 181.4375 C 198.527344 181.148438 199.1875 181.003906 199.929688 181.003906 C 200.679688 181.003906 201.34375 181.144531 201.921875 181.421875 C 202.503906 181.699219 202.953125 182.085938 203.273438 182.582031 C 203.597656 183.070312 203.757812 183.625 203.757812 184.25 C 203.753906 184.683594 203.667969 185.097656 203.503906 185.5 C 203.339844 185.898438 203.054688 186.339844 202.652344 186.832031 C 202.253906 187.320312 201.683594 187.910156 200.949219 188.609375 L 198.957031 190.585938 L 198.957031 190.664062 L 203.925781 190.664062 L 203.925781 192.347656 L 196.164062 192.347656 Z M 196.164062 190.894531 "/>
<path style=" stroke:none;fill-rule:nonzero;fill:rgb(31.372549%,82.745098%,33.72549%);fill-opacity:1;" d="M 192.300781 220.398438 L 190.71875 220.398438 L 190.71875 216.992188 L 183.523438 216.992188 L 183.523438 215.734375 L 192.300781 215.734375 Z M 181.683594 211.339844 C 181.683594 210.742188 181.832031 210.207031 182.125 209.734375 C 182.421875 209.261719 182.824219 208.890625 183.335938 208.625 C 183.847656 208.351562 184.425781 208.214844 185.058594 208.214844 C 185.597656 208.214844 186.089844 208.308594 186.542969 208.496094 C 186.992188 208.679688 187.375 208.945312 187.683594 209.285156 L 190.71875 209.285156 L 190.71875 207.503906 L 192.300781 207.503906 L 192.300781 215.121094 L 190.71875 215.121094 L 190.71875 213.410156 L 187.695312 213.410156 C 187.386719 213.757812 187.007812 214.027344 186.558594 214.222656 C 186.105469 214.414062 185.617188 214.507812 185.089844 214.507812 C 184.449219 214.507812 183.867188 214.371094 183.351562 214.101562 C 182.832031 213.828125 182.425781 213.453125 182.125 212.972656 C 181.832031 212.496094 181.683594 211.949219 181.683594 211.339844 Z M 183.195312 211.339844 C 183.195312 211.707031 183.273438 212.027344 183.4375 212.304688 C 183.597656 212.578125 183.820312 212.792969 184.105469 212.945312 C 184.394531 213.09375 184.722656 213.167969 185.089844 213.167969 C 185.441406 213.164062 185.757812 213.085938 186.035156 212.9375 C 186.320312 212.792969 186.542969 212.578125 186.707031 212.304688 C 186.871094 212.027344 186.957031 211.707031 186.957031 211.339844 C 186.957031 210.988281 186.871094 210.679688 186.707031 210.40625 C 186.542969 210.136719 186.320312 209.925781 186.035156 209.777344 C 185.757812 209.632812 185.441406 209.558594 185.089844 209.558594 C 184.722656 209.558594 184.394531 209.632812 184.105469 209.777344 C 183.820312 209.925781 183.597656 210.136719 183.4375 210.40625 C 183.273438 210.679688 183.195312 210.988281 183.195312 211.339844 Z M 190.71875 212.125 L 190.71875 210.585938 L 188.375 210.585938 C 188.433594 210.847656 188.464844 211.097656 188.464844 211.339844 C 188.464844 211.605469 188.433594 211.867188 188.367188 212.125 Z M 204.835938 220.414062 L 203.242188 220.414062 L 203.242188 207.503906 L 204.835938 207.503906 Z M 194.535156 212.996094 C 194.535156 212.085938 194.679688 211.289062 194.964844 210.597656 C 195.246094 209.910156 195.644531 209.378906 196.152344 209.007812 C 196.664062 208.632812 197.246094 208.445312 197.898438 208.445312 C 198.539062 208.445312 199.113281 208.632812 199.621094 209.007812 C 200.136719 209.378906 200.535156 209.910156 200.824219 210.597656 C 201.113281 211.289062 201.261719 212.085938 201.261719 212.996094 C 201.261719 213.914062 201.113281 214.71875 200.824219 215.40625 C 200.535156 216.097656 200.136719 216.628906 199.621094 217.003906 C 199.113281 217.375 198.539062 217.5625 197.898438 217.5625 C 197.246094 217.5625 196.664062 217.375 196.152344 217.003906 C 195.644531 216.628906 195.246094 216.097656 194.964844 215.40625 C 194.679688 214.71875 194.535156 213.914062 194.535156 212.996094 Z M 196.058594 212.996094 C 196.058594 213.648438 196.136719 214.207031 196.289062 214.679688 C 196.445312 215.148438 196.660156 215.507812 196.9375 215.757812 C 197.210938 216.003906 197.53125 216.128906 197.898438 216.132812 C 198.257812 216.128906 198.578125 216.003906 198.851562 215.757812 C 199.128906 215.507812 199.339844 215.148438 199.492188 214.679688 C 199.644531 214.207031 199.722656 213.648438 199.722656 212.996094 C 199.722656 212.347656 199.644531 211.792969 199.492188 211.328125 C 199.339844 210.855469 199.128906 210.496094 198.851562 210.25 C 198.578125 209.996094 198.257812 209.871094 197.898438 209.871094 C 197.53125 209.871094 197.210938 209.996094 196.9375 210.25 C 196.660156 210.496094 196.445312 210.855469 196.289062 211.328125 C 196.136719 211.792969 196.058594 212.347656 196.058594 212.996094 Z M 218.484375 215.320312 L 206.71875 215.320312 L 206.71875 214.066406 L 218.484375 214.066406 Z M 208.171875 207.773438 L 217.03125 207.773438 L 217.03125 211.085938 L 209.78125 211.085938 L 209.78125 212.011719 L 217.289062 212.011719 L 217.289062 213.222656 L 208.210938 213.222656 L 208.210938 209.929688 L 215.449219 209.929688 L 215.449219 209.015625 L 208.171875 209.015625 Z M 208.257812 216.25 L 217.074219 216.25 L 217.074219 220.242188 L 208.257812 220.242188 Z M 215.507812 218.957031 L 215.507812 217.503906 L 209.808594 217.503906 L 209.808594 218.957031 Z M 215.507812 218.957031 "/>
<path style=" stroke:none;fill-rule:nonzero;fill:rgb(31.372549%,82.745098%,33.72549%);fill-opacity:1;" d="M 370.058594 186.261719 C 370.058594 192.3125 365.160156 197.21875 359.117188 197.21875 C 353.074219 197.21875 348.175781 192.3125 348.175781 186.261719 C 348.175781 180.210938 353.074219 175.304688 359.117188 175.304688 C 365.160156 175.304688 370.058594 180.210938 370.058594 186.261719 Z M 370.058594 186.261719 "/>
<path style=" stroke:none;fill-rule:nonzero;fill:rgb(97.647059%,97.647059%,97.647059%);fill-opacity:1;" d="M 355.28125 190.894531 L 359.234375 187.078125 C 359.660156 186.652344 359.988281 186.300781 360.21875 186.027344 C 360.457031 185.75 360.636719 185.476562 360.761719 185.207031 C 360.882812 184.933594 360.945312 184.648438 360.945312 184.34375 C 360.945312 184.003906 360.859375 183.703125 360.691406 183.445312 C 360.527344 183.1875 360.296875 182.988281 360.003906 182.851562 C 359.714844 182.710938 359.390625 182.640625 359.03125 182.640625 C 358.652344 182.640625 358.316406 182.71875 358.027344 182.875 C 357.746094 183.023438 357.527344 183.238281 357.371094 183.515625 C 357.222656 183.792969 357.148438 184.121094 357.148438 184.496094 L 355.234375 184.496094 C 355.234375 183.800781 355.394531 183.191406 355.714844 182.664062 C 356.039062 182.136719 356.488281 181.726562 357.0625 181.4375 C 357.644531 181.148438 358.304688 181.003906 359.046875 181.003906 C 359.796875 181.003906 360.460938 181.144531 361.039062 181.421875 C 361.621094 181.699219 362.070312 182.085938 362.390625 182.582031 C 362.714844 183.070312 362.875 183.625 362.875 184.25 C 362.871094 184.683594 362.785156 185.097656 362.621094 185.5 C 362.457031 185.898438 362.171875 186.339844 361.769531 186.832031 C 361.371094 187.320312 360.800781 187.910156 360.066406 188.609375 L 358.074219 190.585938 L 358.074219 190.664062 L 363.042969 190.664062 L 363.042969 192.347656 L 355.28125 192.347656 Z M 355.28125 190.894531 "/>
<path style=" stroke:none;fill-rule:nonzero;fill:rgb(31.372549%,82.745098%,33.72549%);fill-opacity:1;" d="M 351.417969 220.398438 L 349.835938 220.398438 L 349.835938 216.992188 L 342.640625 216.992188 L 342.640625 215.734375 L 351.417969 215.734375 Z M 340.800781 211.339844 C 340.800781 210.742188 340.949219 210.207031 341.242188 209.734375 C 341.539062 209.261719 341.941406 208.890625 342.453125 208.625 C 342.964844 208.351562 343.542969 208.214844 344.175781 208.214844 C 344.714844 208.214844 345.207031 208.308594 345.660156 208.496094 C 346.109375 208.679688 346.492188 208.945312 346.800781 209.285156 L 349.835938 209.285156 L 349.835938 207.503906 L 351.417969 207.503906 L 351.417969 215.121094 L 349.835938 215.121094 L 349.835938 213.410156 L 346.8125 213.410156 C 346.503906 213.757812 346.125 214.027344 345.675781 214.222656 C 345.222656 214.414062 344.734375 214.507812 344.207031 214.507812 C 343.566406 214.507812 342.984375 214.371094 342.46875 214.101562 C 341.949219 213.828125 341.542969 213.453125 341.242188 212.972656 C 340.949219 212.496094 340.800781 211.949219 340.800781 211.339844 Z M 342.3125 211.339844 C 342.3125 211.707031 342.394531 212.027344 342.554688 212.304688 C 342.714844 212.578125 342.9375 212.792969 343.222656 212.945312 C 343.515625 213.09375 343.839844 213.167969 344.207031 213.167969 C 344.558594 213.164062 344.875 213.085938 345.152344 212.9375 C 345.441406 212.792969 345.660156 212.578125 345.824219 212.304688 C 345.992188 212.027344 346.074219 211.707031 346.074219 211.339844 C 346.074219 210.988281 345.992188 210.679688 345.824219 210.40625 C 345.660156 210.136719 345.441406 209.925781 345.152344 209.777344 C 344.875 209.632812 344.558594 209.558594 344.207031 209.558594 C 343.839844 209.558594 343.515625 209.632812 343.222656 209.777344 C 342.9375 209.925781 342.714844 210.136719 342.554688 210.40625 C 342.394531 210.679688 342.3125 210.988281 342.3125 211.339844 Z M 349.835938 212.125 L 349.835938 210.585938 L 347.492188 210.585938 C 347.550781 210.847656 347.582031 211.097656 347.582031 211.339844 C 347.582031 211.605469 347.550781 211.867188 347.484375 212.125 Z M 363.953125 220.414062 L 362.359375 220.414062 L 362.359375 207.503906 L 363.953125 207.503906 Z M 353.652344 212.996094 C 353.652344 212.085938 353.796875 211.289062 354.082031 210.597656 C 354.363281 209.910156 354.761719 209.378906 355.269531 209.007812 C 355.78125 208.632812 356.363281 208.445312 357.015625 208.445312 C 357.65625 208.445312 358.230469 208.632812 358.738281 209.007812 C 359.253906 209.378906 359.652344 209.910156 359.941406 210.597656 C 360.234375 211.289062 360.378906 212.085938 360.378906 212.996094 C 360.378906 213.914062 360.234375 214.71875 359.941406 215.40625 C 359.652344 216.097656 359.253906 216.628906 358.738281 217.003906 C 358.230469 217.375 357.65625 217.5625 357.015625 217.5625 C 356.363281 217.5625 355.78125 217.375 355.269531 217.003906 C 354.761719 216.628906 354.363281 216.097656 354.082031 215.40625 C 353.796875 214.71875 353.652344 213.914062 353.652344 212.996094 Z M 355.175781 212.996094 C 355.175781 213.648438 355.253906 214.207031 355.40625 214.679688 C 355.5625 215.148438 355.777344 215.507812 356.054688 215.757812 C 356.328125 216.003906 356.648438 216.128906 357.015625 216.132812 C 357.375 216.128906 357.695312 216.003906 357.96875 215.757812 C 358.246094 215.507812 358.460938 215.148438 358.613281 214.679688 C 358.761719 214.207031 358.839844 213.648438 358.839844 212.996094 C 358.839844 212.347656 358.761719 211.792969 358.613281 211.328125 C 358.460938 210.855469 358.246094 210.496094 357.96875 210.25 C 357.695312 209.996094 357.375 209.871094 357.015625 209.871094 C 356.648438 209.871094 356.328125 209.996094 356.054688 210.25 C 355.777344 210.496094 355.5625 210.855469 355.40625 211.328125 C 355.253906 211.792969 355.175781 212.347656 355.175781 212.996094 Z M 377.605469 215.320312 L 365.835938 215.320312 L 365.835938 214.066406 L 377.605469 214.066406 Z M 367.289062 207.773438 L 376.148438 207.773438 L 376.148438 211.085938 L 368.898438 211.085938 L 368.898438 212.011719 L 376.40625 212.011719 L 376.40625 213.222656 L 367.332031 213.222656 L 367.332031 209.929688 L 374.570312 209.929688 L 374.570312 209.015625 L 367.289062 209.015625 Z M 367.375 216.25 L 376.191406 216.25 L 376.191406 220.242188 L 367.375 220.242188 Z M 374.625 218.957031 L 374.625 217.503906 L 368.925781 217.503906 L 368.925781 218.957031 Z M 374.625 218.957031 "/>
<path style=" stroke:none;fill-rule:nonzero;fill:rgb(28.627451%,68.627451%,93.72549%);fill-opacity:1;" d="M 51.824219 186.261719 C 51.824219 192.3125 46.925781 197.21875 40.882812 197.21875 C 34.839844 197.21875 29.941406 192.3125 29.941406 186.261719 C 29.941406 180.210938 34.839844 175.304688 40.882812 175.304688 C 46.925781 175.304688 51.824219 180.210938 51.824219 186.261719 Z M 51.824219 186.261719 "/>
<path style=" stroke:none;fill-rule:nonzero;fill:rgb(97.647059%,97.647059%,97.647059%);fill-opacity:1;" d="M 35.898438 188.652344 L 40.730469 181.160156 L 43.230469 181.160156 L 43.230469 188.609375 L 44.699219 188.609375 L 44.699219 190.261719 L 43.230469 190.261719 L 43.230469 192.347656 L 41.316406 192.347656 L 41.316406 190.261719 L 35.898438 190.261719 Z M 41.347656 188.609375 L 41.347656 183.445312 L 41.222656 183.445312 L 37.953125 188.53125 L 37.953125 188.609375 Z M 41.347656 188.609375 "/>
<path style=" stroke:none;fill-rule:nonzero;fill:rgb(28.627451%,68.627451%,93.72549%);fill-opacity:1;" d="M 33.183594 220.398438 L 31.601562 220.398438 L 31.601562 216.992188 L 24.40625 216.992188 L 24.40625 215.734375 L 33.183594 215.734375 Z M 22.566406 211.339844 C 22.566406 210.742188 22.714844 210.207031 23.007812 209.734375 C 23.304688 209.261719 23.707031 208.890625 24.21875 208.625 C 24.734375 208.351562 25.308594 208.214844 25.945312 208.214844 C 26.480469 208.214844 26.976562 208.308594 27.425781 208.496094 C 27.878906 208.679688 28.257812 208.945312 28.566406 209.285156 L 31.601562 209.285156 L 31.601562 207.503906 L 33.183594 207.503906 L 33.183594 215.121094 L 31.601562 215.121094 L 31.601562 213.410156 L 28.582031 213.410156 C 28.273438 213.757812 27.890625 214.027344 27.441406 214.222656 C 26.988281 214.414062 26.5 214.507812 25.972656 214.507812 C 25.332031 214.507812 24.753906 214.371094 24.234375 214.101562 C 23.71875 213.828125 23.308594 213.453125 23.007812 212.972656 C 22.714844 212.496094 22.566406 211.949219 22.566406 211.339844 Z M 24.078125 211.339844 C 24.078125 211.707031 24.160156 212.027344 24.320312 212.304688 C 24.480469 212.578125 24.703125 212.792969 24.988281 212.945312 C 25.28125 213.09375 25.605469 213.167969 25.972656 213.167969 C 26.324219 213.164062 26.640625 213.085938 26.921875 212.9375 C 27.207031 212.792969 27.429688 212.578125 27.589844 212.304688 C 27.757812 212.027344 27.839844 211.707031 27.839844 211.339844 C 27.839844 210.988281 27.757812 210.679688 27.589844 210.40625 C 27.429688 210.136719 27.207031 209.925781 26.921875 209.777344 C 26.640625 209.632812 26.324219 209.558594 25.972656 209.558594 C 25.605469 209.558594 25.28125 209.632812 24.988281 209.777344 C 24.703125 209.925781 24.480469 210.136719 24.320312 210.40625 C 24.160156 210.679688 24.078125 210.988281 24.078125 211.339844 Z M 31.601562 212.125 L 31.601562 210.585938 L 29.257812 210.585938 C 29.320312 210.847656 29.351562 211.097656 29.351562 211.339844 C 29.351562 211.605469 29.316406 211.867188 29.25 212.125 Z M 45.71875 220.414062 L 44.125 220.414062 L 44.125 207.503906 L 45.71875 207.503906 Z M 35.417969 212.996094 C 35.417969 212.085938 35.5625 211.289062 35.847656 210.597656 C 36.132812 209.910156 36.527344 209.378906 37.035156 209.007812 C 37.550781 208.632812 38.132812 208.445312 38.78125 208.445312 C 39.421875 208.445312 39.996094 208.632812 40.503906 209.007812 C 41.019531 209.378906 41.421875 209.910156 41.710938 210.597656 C 42 211.289062 42.144531 212.085938 42.144531 212.996094 C 42.144531 213.914062 42 214.71875 41.710938 215.40625 C 41.421875 216.097656 41.019531 216.628906 40.503906 217.003906 C 39.996094 217.375 39.421875 217.5625 38.78125 217.5625 C 38.132812 217.5625 37.550781 217.375 37.035156 217.003906 C 36.527344 216.628906 36.132812 216.097656 35.847656 215.40625 C 35.5625 214.71875 35.417969 213.914062 35.417969 212.996094 Z M 36.945312 212.996094 C 36.945312 213.648438 37.019531 214.207031 37.171875 214.679688 C 37.328125 215.148438 37.542969 215.507812 37.820312 215.757812 C 38.09375 216.003906 38.417969 216.128906 38.78125 216.132812 C 39.144531 216.128906 39.460938 216.003906 39.734375 215.757812 C 40.011719 215.507812 40.226562 215.148438 40.378906 214.679688 C 40.53125 214.207031 40.605469 213.648438 40.605469 212.996094 C 40.605469 212.347656 40.53125 211.792969 40.378906 211.328125 C 40.226562 210.855469 40.011719 210.496094 39.734375 210.25 C 39.460938 209.996094 39.144531 209.871094 38.78125 209.871094 C 38.417969 209.871094 38.09375 209.996094 37.820312 210.25 C 37.542969 210.496094 37.328125 210.855469 37.171875 211.328125 C 37.019531 211.792969 36.945312 212.347656 36.945312 212.996094 Z M 59.371094 215.320312 L 47.601562 215.320312 L 47.601562 214.066406 L 59.371094 214.066406 Z M 49.054688 207.773438 L 57.917969 207.773438 L 57.917969 211.085938 L 50.664062 211.085938 L 50.664062 212.011719 L 58.171875 212.011719 L 58.171875 213.222656 L 49.097656 213.222656 L 49.097656 209.929688 L 56.335938 209.929688 L 56.335938 209.015625 L 49.054688 209.015625 Z M 49.140625 216.25 L 57.960938 216.25 L 57.960938 220.242188 L 49.140625 220.242188 Z M 56.390625 218.957031 L 56.390625 217.503906 L 50.691406 217.503906 L 50.691406 218.957031 Z M 56.390625 218.957031 "/>
<path style="fill-rule:nonzero;fill:rgb(28.627451%,68.627451%,93.72549%);fill-opacity:1;stroke-width:1.58242;stroke-linecap:butt;stroke-linejoin:miter;stroke:rgb(28.627451%,68.627451%,93.72549%);stroke-opacity:1;stroke-miterlimit:4;" d="M 107.79248 130.998605 C 107.79248 136.408482 103.406885 140.791574 97.99959 140.791574 C 92.592295 140.791574 88.209912 136.408482 88.209912 130.998605 C 88.209912 125.591936 92.592295 121.208845 97.99959 121.208845 C 103.406885 121.208845 107.79248 125.591936 107.79248 130.998605 Z M 107.79248 130.998605 " transform="matrix(1.215805,0,0,1.217391,0,0)"/>
<path style="fill-rule:nonzero;fill:rgb(0.784314%,81.960784%,45.882353%);fill-opacity:1;stroke-width:1.26593;stroke-linecap:butt;stroke-linejoin:miter;stroke:rgb(28.627451%,68.627451%,93.72549%);stroke-opacity:1;stroke-miterlimit:4;" d="M 99.349004 141.150949 L 98.346582 142.886858 L 97.34416 141.150949 Z M 99.349004 141.150949 " transform="matrix(1.215805,0,0,1.217391,0,0)"/>
<g clip-path="url(#clip1)" clip-rule="nonzero">
<path style=" stroke:none;fill-rule:nonzero;fill:rgb(100%,100%,100%);fill-opacity:1;" d="M 119.175781 167.335938 L 120.769531 165.519531 L 119.414062 164.839844 L 121.382812 162.582031 L 123.179688 162.582031 L 121.585938 164.398438 L 122.941406 165.078125 L 120.976562 167.335938 Z M 115.105469 167.335938 L 116.699219 165.519531 L 115.34375 164.839844 L 117.308594 162.582031 L 119.109375 162.582031 L 117.515625 164.398438 L 118.871094 165.078125 L 116.902344 167.335938 Z M 116.429688 161.902344 C 115.398438 161.902344 114.519531 161.535156 113.789062 160.804688 C 113.0625 160.074219 112.695312 159.195312 112.695312 158.164062 C 112.695312 157.226562 113.007812 156.40625 113.628906 155.703125 C 114.25 155 115.019531 154.585938 115.9375 154.460938 C 116.296875 153.816406 116.792969 153.308594 117.421875 152.941406 C 118.050781 152.574219 118.734375 152.390625 119.480469 152.390625 C 120.5 152.390625 121.386719 152.714844 122.136719 153.367188 C 122.890625 154.019531 123.34375 154.832031 123.503906 155.804688 C 124.285156 155.871094 124.9375 156.195312 125.46875 156.773438 C 126.003906 157.347656 126.265625 158.039062 126.265625 158.84375 C 126.265625 159.695312 125.972656 160.414062 125.378906 161.011719 C 124.785156 161.605469 124.0625 161.902344 123.214844 161.902344 Z M 116.429688 161.902344 "/>
</g>
<path style=" stroke:none;fill-rule:nonzero;fill:rgb(100%,100%,100%);fill-opacity:1;" d="M 359.269531 283.652344 L 40.730469 283.652344 C 29.316406 283.652344 20.0625 274.386719 20.0625 262.957031 C 20.0625 251.527344 29.316406 242.261719 40.730469 242.261719 L 359.269531 242.261719 C 370.683594 242.261719 379.9375 251.527344 379.9375 262.957031 C 379.9375 274.386719 370.683594 283.652344 359.269531 283.652344 Z M 359.269531 283.652344 "/>
<path style="fill:none;stroke-width:1;stroke-linecap:butt;stroke-linejoin:miter;stroke:rgb(0%,0%,0%);stroke-opacity:0.0588235;stroke-miterlimit:4;" d="M 328.500811 232.500419 L 590.499189 232.500419 C 599.61416 232.500419 607.000596 239.886858 607.000596 248.999581 C 607.000596 258.112305 599.61416 265.498744 590.499189 265.498744 L 328.500811 265.498744 C 319.38584 265.498744 311.999404 258.112305 311.999404 248.999581 C 311.999404 239.886858 319.38584 232.500419 328.500811 232.500419 Z M 328.500811 232.500419 " transform="matrix(-1.215805,-0.000000000000000149,0.000000000000000149,-1.217391,758.662614,566.086957)"/>
<path style=" stroke:none;fill-rule:nonzero;fill:rgb(9.019608%,9.019608%,9.019608%);fill-opacity:1;" d="M 83.132812 256.925781 L 83.132812 258.316406 L 81.21875 258.316406 L 81.21875 260.882812 L 83.054688 260.882812 L 83.054688 262.226562 L 78.796875 262.226562 L 78.796875 263.617188 L 84.304688 263.617188 L 84.304688 264.996094 L 71.585938 264.996094 L 71.585938 263.617188 L 77.066406 263.617188 L 77.066406 262.226562 L 72.808594 262.226562 L 72.808594 260.882812 L 74.644531 260.882812 L 74.644531 258.316406 L 72.730469 258.316406 L 72.730469 256.925781 Z M 72.992188 267.46875 L 72.992188 266.089844 L 82.746094 266.089844 L 82.746094 270.417969 L 81.035156 270.417969 L 81.035156 267.46875 Z M 76.355469 260.882812 L 79.492188 260.882812 L 79.492188 258.316406 L 76.355469 258.316406 Z M 97.980469 264.3125 L 97.980469 265.734375 L 92.425781 265.734375 L 92.425781 270.417969 L 90.726562 270.417969 L 90.726562 265.734375 L 85.230469 265.734375 L 85.230469 264.3125 Z M 86.574219 260.078125 C 86.566406 258.164062 88.605469 256.949219 91.574219 256.941406 C 94.546875 256.949219 96.601562 258.164062 96.609375 260.078125 C 96.601562 261.972656 94.546875 263.179688 91.574219 263.171875 C 88.605469 263.179688 86.566406 261.972656 86.574219 260.078125 Z M 88.335938 260.078125 C 88.328125 261.167969 89.609375 261.8125 91.574219 261.8125 C 93.550781 261.8125 94.832031 261.167969 94.832031 260.078125 C 94.832031 258.980469 93.550781 258.332031 91.574219 258.332031 C 89.609375 258.332031 88.328125 258.980469 88.335938 260.078125 Z M 111.65625 267.375 L 111.65625 268.796875 L 98.90625 268.796875 L 98.90625 267.375 L 104.402344 267.375 L 104.402344 265.101562 L 100.421875 265.101562 L 100.421875 260.527344 L 108.445312 260.527344 L 108.445312 258.796875 L 100.390625 258.796875 L 100.390625 257.40625 L 110.144531 257.40625 L 110.144531 261.886719 L 102.132812 261.886719 L 102.132812 263.695312 L 110.46875 263.695312 L 110.46875 265.101562 L 106.101562 265.101562 L 106.101562 267.375 Z M 127.941406 256.464844 L 127.941406 266.554688 L 126.210938 266.554688 L 126.210938 256.464844 Z M 116.566406 260.867188 C 116.566406 258.835938 118.210938 257.382812 120.332031 257.375 C 122.453125 257.382812 124.089844 258.835938 124.082031 260.867188 C 124.089844 262.929688 122.453125 264.375 120.332031 264.375 C 118.210938 264.375 116.566406 262.929688 116.566406 260.867188 Z M 118.246094 260.867188 C 118.238281 262.105469 119.136719 262.878906 120.332031 262.878906 C 121.496094 262.878906 122.398438 262.105469 122.398438 260.867188 C 122.398438 259.664062 121.496094 258.875 120.332031 258.875 C 119.136719 258.875 118.238281 259.664062 118.246094 260.867188 Z M 118.710938 270.140625 L 118.710938 265.535156 L 120.441406 265.535156 L 120.441406 268.75 L 128.328125 268.75 L 128.328125 270.140625 Z M 140.984375 256.464844 L 140.984375 260.851562 L 142.929688 260.851562 L 142.929688 262.273438 L 140.984375 262.273438 L 140.984375 266.894531 L 139.269531 266.894531 L 139.269531 256.464844 Z M 129.992188 259.382812 L 129.992188 258.007812 L 133.28125 258.007812 L 133.28125 256.445312 L 134.996094 256.445312 L 134.996094 258.007812 L 138.265625 258.007812 L 138.265625 259.382812 Z M 130.703125 262.628906 C 130.703125 261.023438 132.101562 259.957031 134.128906 259.957031 C 136.144531 259.957031 137.535156 261.023438 137.542969 262.628906 C 137.535156 264.230469 136.144531 265.273438 134.128906 265.273438 C 132.101562 265.273438 130.703125 264.230469 130.703125 262.628906 Z M 132.046875 270.140625 L 132.046875 266.074219 L 133.761719 266.074219 L 133.761719 268.75 L 141.539062 268.75 L 141.539062 270.140625 Z M 132.371094 262.628906 C 132.363281 263.472656 133.074219 263.949219 134.128906 263.945312 C 135.1875 263.949219 135.90625 263.472656 135.90625 262.628906 C 135.90625 261.78125 135.1875 261.285156 134.128906 261.285156 C 133.074219 261.285156 132.363281 261.78125 132.371094 262.628906 Z M 147.652344 266.957031 L 147.652344 265.351562 L 152.484375 257.855469 L 154.984375 257.855469 L 154.984375 265.304688 L 156.449219 265.304688 L 156.449219 266.957031 L 154.984375 266.957031 L 154.984375 269.042969 L 153.070312 269.042969 L 153.070312 266.957031 Z M 149.703125 265.304688 L 153.101562 265.304688 L 153.101562 260.140625 L 152.976562 260.140625 L 149.703125 265.226562 Z M 169.691406 258.316406 L 169.691406 259.707031 L 158.164062 259.707031 L 158.164062 258.316406 L 163.085938 258.316406 L 163.085938 256.632812 L 164.785156 256.632812 L 164.785156 258.316406 Z M 157.589844 268.917969 L 157.589844 267.527344 L 163.085938 267.527344 L 163.085938 265.8125 C 160.679688 265.628906 159.21875 264.65625 159.226562 263.109375 C 159.21875 261.421875 161.027344 260.417969 163.9375 260.417969 C 166.804688 260.417969 168.636719 261.421875 168.628906 263.109375 C 168.636719 264.644531 167.160156 265.621094 164.785156 265.8125 L 164.785156 267.527344 L 170.339844 267.527344 L 170.339844 268.917969 Z M 160.988281 263.109375 C 160.980469 264.003906 162.035156 264.460938 163.9375 264.46875 C 165.796875 264.460938 166.867188 264.003906 166.867188 263.109375 C 166.867188 262.226562 165.796875 261.773438 163.9375 261.765625 C 162.035156 261.773438 160.980469 262.226562 160.988281 263.109375 Z M 176.328125 258.921875 C 176.320312 260.773438 177.433594 262.582031 179.601562 263.324219 L 178.660156 264.667969 C 177.15625 264.105469 176.082031 263.015625 175.488281 261.640625 C 174.894531 263.179688 173.753906 264.382812 172.117188 264.996094 L 171.203125 263.632812 C 173.453125 262.878906 174.59375 260.945312 174.601562 258.90625 L 174.601562 257.3125 L 176.328125 257.3125 Z M 173.734375 270.140625 L 173.734375 265.707031 L 175.480469 265.707031 L 175.480469 268.75 L 183.246094 268.75 L 183.246094 270.140625 Z M 178.445312 260.945312 L 178.445312 259.539062 L 181.222656 259.539062 L 181.222656 256.464844 L 182.9375 256.464844 L 182.9375 266.832031 L 181.222656 266.832031 L 181.222656 260.945312 Z M 201.394531 263.355469 L 201.394531 264.730469 L 196.007812 264.730469 L 196.007812 267.296875 L 194.265625 267.296875 L 194.265625 264.730469 L 188.648438 264.730469 L 188.648438 263.355469 Z M 190.003906 259.617188 C 189.996094 257.863281 192.003906 256.757812 195.007812 256.757812 C 198.023438 256.757812 200.007812 257.863281 200.007812 259.617188 C 200.007812 261.378906 198.023438 262.46875 195.007812 262.460938 C 192.003906 262.46875 189.996094 261.378906 190.003906 259.617188 Z M 190.207031 270.140625 L 190.207031 266 L 191.933594 266 L 191.933594 268.734375 L 199.992188 268.734375 L 199.992188 270.140625 Z M 191.859375 259.617188 C 191.84375 260.542969 193.089844 261.085938 195.007812 261.085938 C 196.933594 261.085938 198.175781 260.542969 198.171875 259.617188 C 198.175781 258.65625 196.933594 258.117188 195.007812 258.117188 C 193.089844 258.117188 191.84375 258.65625 191.859375 259.617188 Z M 214.253906 256.445312 L 214.253906 265.226562 L 212.617188 265.226562 L 212.617188 261.421875 L 211.257812 261.421875 L 211.257812 264.761719 L 209.652344 264.761719 L 209.652344 256.726562 L 211.257812 256.726562 L 211.257812 260.035156 L 212.617188 260.035156 L 212.617188 256.445312 Z M 202.246094 259.308594 L 202.246094 257.960938 L 204.886719 257.960938 L 204.886719 256.570312 L 206.582031 256.570312 L 206.582031 257.960938 L 209.191406 257.960938 L 209.191406 259.308594 Z M 202.738281 262.289062 C 202.722656 260.835938 203.988281 259.871094 205.734375 259.878906 C 207.507812 259.871094 208.757812 260.835938 208.773438 262.289062 C 208.757812 263.742188 207.507812 264.699219 205.734375 264.699219 C 203.988281 264.699219 202.722656 263.742188 202.738281 262.289062 Z M 204.265625 262.289062 C 204.265625 263.007812 204.863281 263.464844 205.734375 263.464844 C 206.613281 263.464844 207.214844 263.007812 207.214844 262.289062 C 207.214844 261.570312 206.613281 261.113281 205.734375 261.113281 C 204.863281 261.113281 204.265625 261.570312 204.265625 262.289062 Z M 204.761719 267.914062 C 204.753906 266.308594 206.558594 265.402344 209.546875 265.394531 C 212.523438 265.402344 214.324219 266.308594 214.332031 267.914062 C 214.324219 269.492188 212.523438 270.402344 209.546875 270.402344 C 206.558594 270.402344 204.753906 269.492188 204.761719 267.914062 Z M 206.472656 267.914062 C 206.46875 268.679688 207.554688 269.097656 209.546875 269.089844 C 211.53125 269.097656 212.59375 268.679688 212.601562 267.914062 C 212.59375 267.105469 211.53125 266.695312 209.546875 266.710938 C 207.554688 266.695312 206.46875 267.105469 206.472656 267.914062 Z M 227.667969 256.445312 L 227.667969 264.746094 L 225.953125 264.746094 L 225.953125 261.332031 L 223.578125 261.332031 L 223.578125 259.925781 L 225.953125 259.925781 L 225.953125 256.445312 Z M 215.9375 263.355469 C 218.183594 262.582031 219.363281 260.707031 219.363281 258.859375 L 219.363281 258.75 L 216.460938 258.75 L 216.460938 257.359375 L 223.992188 257.359375 L 223.992188 258.75 L 221.105469 258.75 L 221.105469 258.84375 C 221.105469 260.542969 222.234375 262.257812 224.394531 262.984375 L 223.53125 264.34375 C 221.980469 263.820312 220.882812 262.753906 220.265625 261.441406 C 219.65625 262.921875 218.488281 264.128906 216.832031 264.714844 Z M 218.207031 267.761719 C 218.191406 266.085938 220.003906 265.101562 222.945312 265.101562 C 225.898438 265.101562 227.707031 266.085938 227.714844 267.761719 C 227.707031 269.4375 225.898438 270.410156 222.945312 270.417969 C 220.003906 270.410156 218.191406 269.4375 218.207031 267.761719 Z M 219.902344 267.761719 C 219.894531 268.625 221.007812 269.097656 222.945312 269.089844 C 224.894531 269.097656 226 268.625 226 267.761719 C 226 266.886719 224.894531 266.417969 222.945312 266.417969 C 221.007812 266.417969 219.894531 266.886719 219.902344 267.761719 Z M 234.90625 260.417969 C 234.90625 262.707031 236.246094 265.117188 238.503906 266.0625 L 237.5625 267.421875 C 235.910156 266.703125 234.707031 265.242188 234.0625 263.464844 C 233.421875 265.378906 232.195312 266.988281 230.570312 267.761719 L 229.582031 266.417969 C 231.78125 265.394531 233.152344 262.792969 233.160156 260.417969 L 233.160156 259.246094 L 230.089844 259.246094 L 230.089844 257.824219 L 237.960938 257.824219 L 237.960938 259.246094 L 234.90625 259.246094 Z M 239.519531 270.417969 L 239.519531 256.445312 L 241.25 256.445312 L 241.25 270.417969 Z M 239.519531 270.417969 "/>
<path style="fill-rule:nonzero;fill:rgb(28.627451%,68.627451%,93.72549%);fill-opacity:1;stroke-width:1.31868;stroke-linecap:butt;stroke-linejoin:miter;stroke:rgb(28.627451%,68.627451%,93.72549%);stroke-opacity:1;stroke-miterlimit:4;" d="M 49.160439 216.500977 C 49.160439 221.005999 45.507383 224.660714 40.999697 224.660714 C 36.495225 224.660714 32.842168 221.005999 32.842168 216.500977 C 32.842168 211.992746 36.495225 208.341239 40.999697 208.341239 C 45.507383 208.341239 49.160439 211.992746 49.160439 216.500977 Z M 49.160439 216.500977 " transform="matrix(1.215805,0,0,1.217391,0,0)"/>
<g clip-path="url(#clip2)" clip-rule="nonzero">
<path style=" stroke:none;fill-rule:nonzero;fill:rgb(100%,100%,100%);fill-opacity:1;" d="M 49.871094 270.117188 L 51.199219 268.601562 L 50.070312 268.035156 L 51.707031 266.152344 L 53.207031 266.152344 L 51.878906 267.667969 L 53.007812 268.234375 L 51.371094 270.117188 Z M 46.476562 270.117188 L 47.808594 268.601562 L 46.675781 268.035156 L 48.316406 266.152344 L 49.816406 266.152344 L 48.484375 267.667969 L 49.617188 268.234375 L 47.976562 270.117188 Z M 47.582031 265.585938 C 46.722656 265.585938 45.992188 265.28125 45.382812 264.671875 C 44.773438 264.0625 44.472656 263.332031 44.46875 262.472656 C 44.46875 261.6875 44.730469 261.003906 45.25 260.417969 C 45.765625 259.832031 46.40625 259.488281 47.171875 259.386719 C 47.472656 258.847656 47.886719 258.425781 48.410156 258.117188 C 48.929688 257.8125 49.503906 257.660156 50.125 257.660156 C 50.972656 257.660156 51.710938 257.929688 52.339844 258.472656 C 52.964844 259.015625 53.34375 259.691406 53.476562 260.503906 C 54.125 260.5625 54.671875 260.828125 55.117188 261.3125 C 55.558594 261.792969 55.78125 262.367188 55.78125 263.039062 C 55.78125 263.746094 55.535156 264.347656 55.039062 264.84375 C 54.542969 265.335938 53.941406 265.585938 53.234375 265.585938 Z M 47.582031 265.585938 "/>
</g>
<path style="fill:none;stroke-width:1;stroke-linecap:round;stroke-linejoin:round;stroke:rgb(60%,60%,60%);stroke-opacity:1;stroke-miterlimit:4;" d="M 295.499189 219.998465 L 300.000449 216.000419 L 295.499189 211.999163 " transform="matrix(1.215805,0,0,1.217391,0,0)"/>
</g>
</svg>
