<svg width="25" height="29" viewBox="0 0 25 29" fill="none" xmlns="http://www.w3.org/2000/svg">
<path d="M12.8342 28.2888L10.6946 24.4065L14.9738 24.4065L12.8342 28.2888Z" fill=""/>
<circle cx="12.4812" cy="12.7594" r="12" fill=""/>
<rect width="16.9412" height="16.9412" transform="translate(4 4.28882)" fill=""/>
<path d="M12.4196 5.88303L14.1502 9.54913C14.2141 9.68293 14.3354 9.77659 14.4823 9.80335L18.3459 10.3921C18.7035 10.4456 18.8504 10.9072 18.5886 11.1748L15.7915 14.0314C15.6893 14.1384 15.6382 14.2856 15.6637 14.4395L16.3215 18.4735C16.3854 18.8482 16.0086 19.1359 15.6829 18.9552L12.228 17.0486C12.1003 16.975 11.947 16.975 11.8193 17.0486L8.36443 18.9552C8.04512 19.1292 7.66834 18.8482 7.72582 18.4735L8.38359 14.4395C8.40913 14.2923 8.35804 14.1384 8.25586 14.0314L5.47153 11.1748C5.2097 10.9072 5.35658 10.4456 5.7142 10.3921L9.57779 9.80335C9.71828 9.78328 9.846 9.68962 9.90986 9.54913L11.6341 5.88303C11.7938 5.54184 12.2599 5.54184 12.4196 5.88303Z" fill="white"/>
</svg>
