<svg width="24" height="29" viewBox="0 0 24 29" fill="none" xmlns="http://www.w3.org/2000/svg">
<path d="M12.3529 28.2888L10.2133 24.4065L14.4925 24.4065L12.3529 28.2888Z" fill=""/>
<circle cx="12" cy="12.7594" r="12" fill=""/>
<g clip-path="url(#clip0_2649_6502)">
<path d="M5.61175 12.7452H9.55763C10.3129 12.7452 10.9341 13.3594 10.9341 14.1217V16.3029C10.9341 17.0582 10.32 17.6794 9.55763 17.6794H4.23528V17.6723V14.1217C4.23528 13.3594 4.84939 12.7452 5.61175 12.7452Z" fill="white"/>
<path d="M14.4353 12.7523H18.3388C19.0941 12.7523 19.7082 13.3664 19.7082 14.1217V17.6794H14.4423C13.6871 17.6794 13.0729 17.0653 13.0729 16.31V14.1217C13.0729 13.3664 13.6871 12.7523 14.4423 12.7523H14.4353Z" fill="white"/>
<path fill-rule="evenodd" clip-rule="evenodd" d="M8.80232 18.1523C8.35056 18.1523 7.97644 17.7853 7.97644 17.3264V13.91C7.97644 12.6253 9.02115 11.5806 10.3059 11.5806H13.6517C14.9364 11.5806 15.9811 12.6253 15.9811 13.91V17.3264C15.9811 17.7782 15.6141 18.1523 15.1553 18.1523H8.80232Z" fill="white"/>
<path d="M13.6518 12.0605C14.6753 12.0605 15.5082 12.8935 15.5082 13.917V17.3335C15.5082 17.5241 15.3529 17.6794 15.1623 17.6794H8.80234C8.61175 17.6794 8.45646 17.5241 8.45646 17.3335V13.917C8.45646 12.8935 9.2894 12.0605 10.3129 12.0605H13.6588M13.6588 11.1076H10.3129C8.76704 11.1076 7.51057 12.3641 7.51057 13.91V17.3264C7.51057 18.0394 8.09646 18.6253 8.8094 18.6253H15.1694C15.8823 18.6253 16.4682 18.0394 16.4682 17.3264V13.91C16.4682 12.3641 15.2118 11.1076 13.6659 11.1076H13.6588Z" fill=""/>
<path d="M11.9859 10.9806C13.249 10.9806 14.2729 9.9566 14.2729 8.69349C14.2729 7.43038 13.249 6.40643 11.9859 6.40643C10.7227 6.40643 9.69879 7.43038 9.69879 8.69349C9.69879 9.9566 10.7227 10.9806 11.9859 10.9806Z" fill="white"/>
<path d="M7.05175 12.0394C8.02247 12.0394 8.80939 11.2525 8.80939 10.2818C8.80939 9.31103 8.02247 8.52411 7.05175 8.52411C6.08102 8.52411 5.2941 9.31103 5.2941 10.2818C5.2941 11.2525 6.08102 12.0394 7.05175 12.0394Z" fill="white"/>
<path d="M16.9129 12.0394C17.8836 12.0394 18.6705 11.2525 18.6705 10.2818C18.6705 9.31103 17.8836 8.52411 16.9129 8.52411C15.9422 8.52411 15.1552 9.31103 15.1552 10.2818C15.1552 11.2525 15.9422 12.0394 16.9129 12.0394Z" fill="white"/>
</g>
<defs>
<clipPath id="clip0_2649_6502">
<rect width="15.4729" height="12.2188" fill="white" transform="translate(4.23528 6.40643)"/>
</clipPath>
</defs>
</svg>
