<svg width="25" height="25" viewBox="0 0 25 25" fill="none" xmlns="http://www.w3.org/2000/svg">
<g id="Frame 41033">
<g id="Subtract">
<path fill-rule="evenodd" clip-rule="evenodd" d="M12.75 23.5C12.3275 24.1197 12.3273 24.1195 12.3271 24.1194L12.3245 24.1176L12.3183 24.1134L12.2963 24.0981C12.2774 24.085 12.2503 24.0661 12.2154 24.0414C12.1457 23.9919 12.0449 23.9196 11.9177 23.8256C11.6632 23.6377 11.3022 23.3628 10.8701 23.0109C10.0071 22.308 8.85467 21.2934 7.69979 20.0466C5.4187 17.5841 3 14.0793 3 10.2045C3 7.56981 4.02323 5.03968 5.84978 3.17161C7.6769 1.30297 10.1586 0.25 12.75 0.25C15.3414 0.25 17.8231 1.30297 19.6502 3.17161C21.4768 5.03968 22.5 7.56981 22.5 10.2045C22.5 14.0793 20.0813 17.5841 17.8002 20.0466C16.6453 21.2934 15.4929 22.308 14.6299 23.0109C14.1978 23.3628 13.8368 23.6377 13.5823 23.8256C13.4551 23.9196 13.3543 23.9919 13.2846 24.0414C13.2497 24.0661 13.2226 24.085 13.2037 24.0981L13.1817 24.1134L13.1755 24.1176L13.1736 24.1189C13.1733 24.1191 13.1725 24.1197 12.75 23.5ZM15.75 10.2044C15.75 11.8989 14.4069 13.2726 12.75 13.2726C11.0931 13.2726 9.75 11.8989 9.75 10.2044C9.75 8.5099 11.0931 7.13623 12.75 7.13623C14.4069 7.13623 15.75 8.5099 15.75 10.2044Z" fill="#BEBEBE"/>
<path d="M12.75 23.5L13.1725 24.1197C12.9176 24.2934 12.5819 24.2931 12.3271 24.1194L12.75 23.5Z" fill="#BEBEBE"/>
</g>
</g>
</svg>
