<svg width="34" height="34" viewBox="3 4 34 34" fill="none" xmlns="http://www.w3.org/2000/svg">
<path d="M29.7808 26.924C29.433 27.7275 29.0213 28.4672 28.5442 29.1472C27.894 30.0743 27.3616 30.716 26.9513 31.0724C26.3153 31.6573 25.6338 31.9568 24.9041 31.9739C24.3802 31.9739 23.7485 31.8248 23.013 31.5224C22.2752 31.2214 21.5972 31.0724 20.9772 31.0724C20.327 31.0724 19.6296 31.2214 18.8837 31.5224C18.1366 31.8248 17.5348 31.9824 17.0747 31.998C16.3749 32.0278 15.6774 31.7197 14.9812 31.0724C14.5368 30.6848 13.981 30.0204 13.3151 29.0791C12.6007 28.0739 12.0134 26.9084 11.5533 25.5795C11.0605 24.1442 10.8135 22.7543 10.8135 21.4087C10.8135 19.8673 11.1465 18.5379 11.8137 17.4238C12.338 16.529 13.0355 15.8231 13.9084 15.3049C14.7814 14.7867 15.7247 14.5227 16.7405 14.5058C17.2963 14.5058 18.0252 14.6777 18.931 15.0156C19.8342 15.3546 20.4141 15.5265 20.6684 15.5265C20.8585 15.5265 21.5028 15.3255 22.5949 14.9247C23.6278 14.5531 24.4995 14.3992 25.2136 14.4598C27.1487 14.6159 28.6024 15.3788 29.5693 16.753C27.8386 17.8016 26.9826 19.2703 26.9996 21.1544C27.0152 22.622 27.5476 23.8432 28.5939 24.8129C29.0681 25.2629 29.5977 25.6107 30.1868 25.8578C30.0591 26.2283 29.9242 26.5832 29.7808 26.924ZM25.3428 9.46013C25.3428 10.6104 24.9226 11.6844 24.0849 12.6785C23.0741 13.8602 21.8514 14.5431 20.5256 14.4354C20.5087 14.2974 20.4989 14.1521 20.4989 13.9995C20.4989 12.8953 20.9796 11.7135 21.8333 10.7472C22.2595 10.258 22.8015 9.85122 23.4588 9.52671C24.1147 9.20705 24.7352 9.03027 25.3187 9C25.3357 9.15377 25.3428 9.30755 25.3428 9.46012V9.46013Z" fill="white"/>
</svg>
