<svg width="34" height="34" viewBox="3 4 34 34" fill="none" xmlns="http://www.w3.org/2000/svg">
<path fill-rule="evenodd" clip-rule="evenodd" d="M31.8158 21.2345C31.8158 20.5031 31.7488 19.7997 31.6244 19.1245H21.7107V23.1148H27.3756C27.1316 24.4042 26.39 25.4967 25.2752 26.2282V28.8165H28.6771C30.6674 27.0206 31.8158 24.3761 31.8158 21.2345Z" fill="#4285F4"/>
<path fill-rule="evenodd" clip-rule="evenodd" d="M21.7107 31.3156C24.5527 31.3156 26.9355 30.3919 28.6771 28.8165L25.2752 26.2282C24.3326 26.8471 23.1269 27.2128 21.7107 27.2128C18.9691 27.2128 16.6486 25.3982 15.8209 22.96H12.3042V25.6326C14.0362 29.004 17.5959 31.3156 21.7107 31.3156Z" fill="#34A853"/>
<path fill-rule="evenodd" clip-rule="evenodd" d="M15.8209 22.96C15.6103 22.341 15.4907 21.68 15.4907 21.0001C15.4907 20.3202 15.6103 19.6591 15.8208 19.0401V16.3674H12.3042C11.5913 17.76 11.1846 19.3355 11.1846 21.0001C11.1846 22.6646 11.5913 24.24 12.3042 25.6326L15.8209 22.96Z" fill="#FBBC05"/>
<path fill-rule="evenodd" clip-rule="evenodd" d="M21.7107 14.7872C23.2561 14.7872 24.6437 15.3077 25.7345 16.3299L28.7536 13.3712C26.9307 11.7066 24.548 10.6844 21.7107 10.6844C17.5959 10.6844 14.0362 12.9961 12.3042 16.3674L15.8208 19.0401C16.6486 16.6019 18.9691 14.7872 21.7107 14.7872Z" fill="#EA4335"/>
</svg>
