<svg width="133" height="17" viewBox="0 0 133 17" fill="none" xmlns="http://www.w3.org/2000/svg">
<path d="M4.07227 2.00977C4.83398 2.00977 5.51367 2.23535 6.11133 2.68652C6.70898 3.13184 7.1748 3.76758 7.50879 4.59375C7.84863 5.41406 8.02148 6.36914 8.02734 7.45898C8.02148 8.54883 7.84863 9.50684 7.50879 10.333C7.1748 11.1533 6.70898 11.7861 6.11133 12.2314C5.51367 12.6709 4.83398 12.8906 4.07227 12.8906C3.30469 12.8906 2.62207 12.6709 2.02441 12.2314C1.42676 11.7861 0.960938 11.1533 0.626953 10.333C0.298828 9.5127 0.134766 8.55469 0.134766 7.45898C0.134766 6.36914 0.298828 5.41406 0.626953 4.59375C0.960938 3.76758 1.42676 3.13184 2.02441 2.68652C2.62207 2.23535 3.30469 2.00977 4.07227 2.00977ZM1.43555 7.45898C1.43555 8.29688 1.54688 9.03516 1.76953 9.67383C1.99805 10.3066 2.31152 10.7959 2.70996 11.1416C3.1084 11.4873 3.5625 11.6602 4.07227 11.6602C4.58789 11.6602 5.04199 11.4873 5.43457 11.1416C5.83301 10.7959 6.14062 10.3066 6.35742 9.67383C6.58008 9.03516 6.69141 8.29688 6.69141 7.45898C6.69141 6.62109 6.58008 5.88574 6.35742 5.25293C6.14062 4.61426 5.83301 4.11914 5.43457 3.76758C5.04199 3.41602 4.58789 3.24023 4.07227 3.24023C3.5625 3.24023 3.1084 3.41602 2.70996 3.76758C2.31152 4.11914 1.99805 4.61426 1.76953 5.25293C1.54688 5.88574 1.43555 6.62109 1.43555 7.45898ZM10.6113 0.796875H11.9824V7.03711H14.6016V8.23242H11.9824V16.4238H10.6113V0.796875ZM21.0703 3.69727C21.0703 4.38867 21.2402 5.05371 21.5801 5.69238C21.9258 6.3252 22.4004 6.88477 23.0039 7.37109C23.6133 7.85742 24.3047 8.22656 25.0781 8.47852L24.375 9.55078C23.4668 9.24023 22.667 8.77734 21.9756 8.16211C21.2842 7.54688 20.7598 6.82617 20.4023 6C20.0566 6.89062 19.5352 7.67285 18.8379 8.34668C18.1406 9.01465 17.3262 9.51562 16.3945 9.84961L15.6738 8.77734C16.4531 8.50195 17.1445 8.10645 17.748 7.59082C18.3516 7.0752 18.8232 6.48047 19.1631 5.80664C19.5088 5.12695 19.6816 4.42383 19.6816 3.69727V3.0293H16.0254V1.9043H24.6738V3.0293H21.0703V3.69727ZM17.8359 11.0801H28.3477V16.4238H26.9766V12.2227H17.8359V11.0801ZM26.9766 0.796875H28.3477V10.2539H26.9766V0.796875ZM47.7363 4.18945H50.0918V5.34961H47.7363V8.75977H46.3652V0.796875H47.7363V4.18945ZM35.8184 4.83984C35.8184 4.16602 35.9912 3.56836 36.3369 3.04688C36.6885 2.51953 37.1719 2.10937 37.7871 1.81641C38.4082 1.52344 39.1055 1.37695 39.8789 1.37695C40.6582 1.37695 41.3555 1.52344 41.9707 1.81641C42.5859 2.10937 43.0664 2.51953 43.4121 3.04688C43.7637 3.56836 43.9395 4.16602 43.9395 4.83984C43.9395 5.51367 43.7637 6.11426 43.4121 6.6416C43.0664 7.16895 42.5859 7.58203 41.9707 7.88086C41.3555 8.17383 40.6582 8.32031 39.8789 8.32031C39.1055 8.32031 38.4082 8.17383 37.7871 7.88086C37.1719 7.58203 36.6885 7.16895 36.3369 6.6416C35.9912 6.11426 35.8184 5.51367 35.8184 4.83984ZM37.1719 4.83984C37.1719 5.29102 37.2861 5.69531 37.5146 6.05273C37.749 6.41016 38.0713 6.69141 38.4814 6.89648C38.8975 7.0957 39.3633 7.19531 39.8789 7.19531C40.3945 7.19531 40.8574 7.0957 41.2676 6.89648C41.6836 6.69141 42.0059 6.41016 42.2344 6.05273C42.4688 5.69531 42.5859 5.29102 42.5859 4.83984C42.5859 4.39453 42.4688 3.99609 42.2344 3.64453C42.0059 3.29297 41.6836 3.02051 41.2676 2.82715C40.8516 2.62793 40.3887 2.53125 39.8789 2.53711C39.3633 2.53125 38.8975 2.62793 38.4814 2.82715C38.0713 3.02051 37.749 3.29297 37.5146 3.64453C37.2861 3.99609 37.1719 4.39453 37.1719 4.83984ZM37.7695 9.49805H47.7363V13.3125H39.1582V15.1055H48.3164V16.2129H37.8047V12.2578H46.3652V10.6055H37.7695V9.49805ZM63.9785 10.0781H62.6074V0.814453H63.9785V10.0781ZM51.8672 1.76367H59.0039V6H53.2383V8.16211H53.8711C55.1836 8.16211 56.3613 8.12695 57.4043 8.05664C58.4473 7.98633 59.5312 7.85742 60.6562 7.66992L60.8145 8.83008C59.5664 9.02344 58.3682 9.15527 57.2197 9.22559C56.0713 9.29004 54.7207 9.32227 53.168 9.32227H51.9023V4.91016H57.6328V2.87109H51.8672V1.76367ZM53.8184 10.9219H63.9785V16.2129H53.8184V10.9219ZM62.625 15.0879V12.0469H55.1719V15.0879H62.625ZM79.5176 16.459H78.1289V0.796875H79.5176V16.459ZM67.2129 7.45898C67.2129 6.36914 67.3828 5.41406 67.7227 4.59375C68.0625 3.76758 68.5342 3.13184 69.1377 2.68652C69.7412 2.23535 70.4297 2.00977 71.2031 2.00977C71.9766 2.00977 72.665 2.23535 73.2686 2.68652C73.8721 3.13184 74.3438 3.76758 74.6836 4.59375C75.0234 5.41406 75.1934 6.36914 75.1934 7.45898C75.1934 8.54883 75.0234 9.50684 74.6836 10.333C74.3438 11.1533 73.8721 11.7861 73.2686 12.2314C72.665 12.6709 71.9766 12.8906 71.2031 12.8906C70.4297 12.8906 69.7412 12.6709 69.1377 12.2314C68.5342 11.7861 68.0625 11.1533 67.7227 10.333C67.3828 9.50684 67.2129 8.54883 67.2129 7.45898ZM68.5488 7.45898C68.5488 8.29688 68.6602 9.03516 68.8828 9.67383C69.1055 10.3066 69.4189 10.7959 69.8232 11.1416C70.2275 11.4873 70.6875 11.6602 71.2031 11.6602C71.7246 11.6602 72.1846 11.4873 72.583 11.1416C72.9873 10.7959 73.3008 10.3066 73.5234 9.67383C73.7461 9.03516 73.8574 8.29688 73.8574 7.45898C73.8574 6.62109 73.7461 5.88574 73.5234 5.25293C73.3008 4.61426 72.9873 4.11914 72.583 3.76758C72.1846 3.41602 71.7246 3.24023 71.2031 3.24023C70.6875 3.24023 70.2275 3.41602 69.8232 3.76758C69.4189 4.11914 69.1055 4.61426 68.8828 5.25293C68.6602 5.8916 68.5488 6.62695 68.5488 7.45898ZM89.8184 11.9238H92.666V9.97266H93.9492V16.2129H88.5176V9.97266H89.8184V11.9238ZM86.9531 5.08594C86.9531 4.38281 87.123 3.76172 87.4629 3.22266C87.8086 2.67773 88.2891 2.25586 88.9043 1.95703C89.5254 1.65234 90.2285 1.5 91.0137 1.5C91.7051 1.5 92.335 1.62305 92.9033 1.86914C93.4775 2.11523 93.9463 2.4668 94.3096 2.92383C94.6729 3.375 94.9043 3.89648 95.0039 4.48828H98.2734V0.796875H99.6621V9.07617H98.2734V5.63086H95.0127C94.9248 6.24023 94.6963 6.77637 94.3271 7.23926C93.9639 7.70215 93.4951 8.05957 92.9209 8.31152C92.3467 8.56348 91.7109 8.68945 91.0137 8.68945C90.2285 8.68945 89.5254 8.54004 88.9043 8.24121C88.2891 7.93652 87.8086 7.51172 87.4629 6.9668C87.123 6.41602 86.9531 5.78906 86.9531 5.08594ZM88.2715 5.08594C88.2715 5.56055 88.3887 5.98535 88.623 6.36035C88.8574 6.72949 89.1826 7.01953 89.5986 7.23047C90.0146 7.44141 90.4863 7.54688 91.0137 7.54688C91.5293 7.54688 91.9922 7.44141 92.4023 7.23047C92.8184 7.01953 93.1406 6.72656 93.3691 6.35156C93.6035 5.97656 93.7207 5.55469 93.7207 5.08594C93.7207 4.61719 93.6035 4.19824 93.3691 3.8291C93.1406 3.45996 92.8213 3.17285 92.4111 2.96777C92.001 2.7627 91.5352 2.66016 91.0137 2.66016C90.4863 2.66016 90.0146 2.7627 89.5986 2.96777C89.1826 3.17285 88.8574 3.45996 88.623 3.8291C88.3887 4.19824 88.2715 4.61719 88.2715 5.08594ZM92.666 15.123V12.9785H89.8184V15.123H92.666ZM94.1602 15.2812C94.7695 15.0293 95.2881 14.6865 95.7158 14.2529C96.1494 13.8135 96.4775 13.3301 96.7002 12.8027C96.9229 12.2754 97.0371 11.7422 97.043 11.2031V9.86719H98.4141V11.2031C98.4082 11.7598 98.5137 12.3076 98.7305 12.8467C98.9531 13.3857 99.2812 13.8691 99.7148 14.2969C100.154 14.7246 100.682 15.0527 101.297 15.2812L100.576 16.3359C99.8789 16.0605 99.29 15.665 98.8096 15.1494C98.3291 14.6338 97.9629 14.0391 97.7109 13.3652C97.459 14.0215 97.0898 14.6074 96.6035 15.123C96.123 15.6445 95.5488 16.0488 94.8809 16.3359L94.1602 15.2812ZM106.465 2.00977C107.168 2.00977 107.801 2.20605 108.363 2.59863C108.926 2.98535 109.377 3.53906 109.717 4.25977C110.062 4.97461 110.271 5.8125 110.341 6.77344H113.848V0.796875H115.219V16.459H113.848V7.91602H110.358C110.312 8.92383 110.115 9.80566 109.77 10.5615C109.43 11.3115 108.973 11.8887 108.398 12.293C107.83 12.6914 107.186 12.8906 106.465 12.8906C105.697 12.8906 105.015 12.6709 104.417 12.2314C103.825 11.7861 103.365 11.1533 103.037 10.333C102.709 9.5127 102.545 8.55469 102.545 7.45898C102.545 6.36914 102.709 5.41406 103.037 4.59375C103.365 3.76758 103.825 3.13184 104.417 2.68652C105.015 2.23535 105.697 2.00977 106.465 2.00977ZM103.863 7.45898C103.863 8.29688 103.972 9.03516 104.188 9.67383C104.411 10.3066 104.719 10.7959 105.111 11.1416C105.504 11.4873 105.955 11.6602 106.465 11.6602C106.969 11.6602 107.417 11.4873 107.81 11.1416C108.208 10.7959 108.516 10.3037 108.732 9.66504C108.955 9.02637 109.066 8.29102 109.066 7.45898C109.066 6.62695 108.955 5.8916 108.732 5.25293C108.516 4.61426 108.208 4.11914 107.81 3.76758C107.417 3.41602 106.969 3.24023 106.465 3.24023C105.955 3.24023 105.504 3.41602 105.111 3.76758C104.719 4.11914 104.411 4.61426 104.188 5.25293C103.972 5.88574 103.863 6.62109 103.863 7.45898ZM132.129 14.4199H117.82V13.2598H121.371V9.0498C120.691 8.69824 120.164 8.24414 119.789 7.6875C119.414 7.13086 119.227 6.50391 119.227 5.80664C119.227 5.01562 119.47 4.31543 119.956 3.70605C120.442 3.09668 121.116 2.625 121.978 2.29102C122.845 1.95703 123.832 1.78711 124.939 1.78125C126.047 1.78711 127.031 1.95703 127.893 2.29102C128.76 2.625 129.437 3.09668 129.923 3.70605C130.409 4.31543 130.652 5.01562 130.652 5.80664C130.652 6.49219 130.471 7.11035 130.107 7.66113C129.744 8.20605 129.234 8.6543 128.578 9.00586V13.2598H132.129V14.4199ZM120.562 5.80664C120.562 6.38086 120.747 6.89062 121.116 7.33594C121.485 7.77539 122.001 8.11816 122.663 8.36426C123.331 8.60449 124.09 8.72461 124.939 8.72461C125.783 8.72461 126.536 8.60449 127.198 8.36426C127.86 8.11816 128.379 7.77539 128.754 7.33594C129.129 6.89062 129.316 6.38086 129.316 5.80664C129.316 5.23242 129.129 4.72559 128.754 4.28613C128.379 3.84668 127.86 3.50977 127.198 3.27539C126.536 3.03516 125.783 2.91797 124.939 2.92383C124.09 2.91797 123.331 3.03516 122.663 3.27539C122.001 3.50977 121.485 3.84668 121.116 4.28613C120.747 4.72559 120.562 5.23242 120.562 5.80664ZM127.189 13.2598V9.54199C126.492 9.72363 125.742 9.81445 124.939 9.81445C124.131 9.81445 123.393 9.72656 122.725 9.55078V13.2598H127.189Z" fill="#DEDEDE"/>
</svg>
