<svg width="153" height="17" viewBox="0 0 153 17" fill="none" xmlns="http://www.w3.org/2000/svg">
<path d="M8.86719 1.81641C8.86719 3.10547 8.57129 4.27734 7.97949 5.33203C7.39355 6.38086 6.55273 7.28613 5.45703 8.04785C4.36719 8.80371 3.06641 9.39844 1.55469 9.83203L0.974609 8.74219C2.22266 8.39062 3.30957 7.93066 4.23535 7.3623C5.16113 6.79395 5.89355 6.1377 6.43262 5.39355C6.97754 4.64941 7.2998 3.83789 7.39941 2.95898H1.7832V1.81641H8.86719ZM3.61133 10.3945H13.7539V16.2129H3.61133V10.3945ZM12.3828 15.0879V11.502H4.94727V15.0879H12.3828ZM8.90234 4.83984H12.3652V0.814453H13.7539V9.72656H12.3652V6H8.90234V4.83984ZM21.0137 3.85547C21.0195 4.45312 21.1484 5.03906 21.4004 5.61328C21.6582 6.18164 22.0273 6.69434 22.5078 7.15137C22.9941 7.6084 23.5625 7.96289 24.2129 8.21484L23.4746 9.28711C22.748 8.98828 22.1182 8.56641 21.585 8.02148C21.0518 7.47656 20.6445 6.85254 20.3633 6.14941C20.0645 6.92871 19.6367 7.62891 19.0801 8.25C18.5234 8.87109 17.873 9.3457 17.1289 9.67383L16.373 8.60156C17.041 8.30859 17.624 7.9043 18.1221 7.38867C18.626 6.86719 19.0127 6.29883 19.2822 5.68359C19.5518 5.0625 19.6895 4.45312 19.6953 3.85547V1.76367H21.0137V3.85547ZM19.0977 11.1152H29.627V16.4238H28.2734V12.2578H19.0977V11.1152ZM24.9336 1.0957H26.2344V4.89258H28.3086V0.814453H29.627V10.2539H28.3086V6.05273H26.2344V10.166H24.9336V1.0957ZM49.3848 8.79492H47.9961V7.16016H43.8301V6.07031H47.9961V4.18945H44.0586C43.5781 5.40234 42.752 6.42773 41.5801 7.26562C40.4082 8.09766 38.9434 8.72461 37.1855 9.14648L36.6934 8.00391C38.6094 7.55859 40.1064 6.88477 41.1846 5.98242C42.2686 5.07422 42.8779 3.99023 43.0127 2.73047H37.4844V1.58789H44.5332C44.5332 2.09766 44.4834 2.5957 44.3838 3.08203H47.9961V0.796875H49.3848V8.79492ZM39.2598 9.49805H49.3848V13.3125H40.666V15.1406H49.9121V16.2832H39.2949V12.2578H47.9961V10.623H39.2598V9.49805ZM60.6523 3.3457C60.6465 4.35937 60.6172 5.33203 60.5645 6.26367C60.5117 7.19531 60.3887 8.29102 60.1953 9.55078L58.8066 9.42773C59.1113 7.56445 59.2637 5.74219 59.2637 3.96094V3.66211H52.707V2.53711H60.6523V3.3457ZM51.8281 11.8359C53.3223 11.8242 54.4473 11.8096 55.2031 11.792V7.00195H56.5566V11.748C58.4844 11.6777 60.1953 11.5547 61.6895 11.3789L61.7598 12.416C59.3398 12.791 56.334 12.9785 52.7422 12.9785H52.0039L51.8281 11.8359ZM62.6738 0.796875H64.0449V7.33594H66.5762V8.53125H64.0449V16.4238H62.6738V0.796875ZM79.6367 7.16016H82.168V8.32031H79.6367V16.4238H78.2656V0.796875H79.6367V7.16016ZM67.6484 12.3633C69.6523 11.3672 71.2051 10.1309 72.3066 8.6543C73.4082 7.17773 74.0381 5.50781 74.1963 3.64453H68.3691V2.48438H75.5938C75.5879 4.80469 75.002 6.91113 73.8359 8.80371C72.6699 10.6963 70.8652 12.2461 68.4219 13.4531L67.6484 12.3633ZM90.7285 11.9238H93.5762V9.97266H94.8594V16.2129H89.4277V9.97266H90.7285V11.9238ZM87.8633 5.08594C87.8633 4.38281 88.0332 3.76172 88.373 3.22266C88.7188 2.67773 89.1992 2.25586 89.8145 1.95703C90.4355 1.65234 91.1387 1.5 91.9238 1.5C92.6152 1.5 93.2451 1.62305 93.8135 1.86914C94.3877 2.11523 94.8564 2.4668 95.2197 2.92383C95.583 3.375 95.8145 3.89648 95.9141 4.48828H99.1836V0.796875H100.572V9.07617H99.1836V5.63086H95.9229C95.835 6.24023 95.6064 6.77637 95.2373 7.23926C94.874 7.70215 94.4053 8.05957 93.8311 8.31152C93.2568 8.56348 92.6211 8.68945 91.9238 8.68945C91.1387 8.68945 90.4355 8.54004 89.8145 8.24121C89.1992 7.93652 88.7188 7.51172 88.373 6.9668C88.0332 6.41602 87.8633 5.78906 87.8633 5.08594ZM89.1816 5.08594C89.1816 5.56055 89.2988 5.98535 89.5332 6.36035C89.7676 6.72949 90.0928 7.01953 90.5088 7.23047C90.9248 7.44141 91.3965 7.54688 91.9238 7.54688C92.4395 7.54688 92.9023 7.44141 93.3125 7.23047C93.7285 7.01953 94.0508 6.72656 94.2793 6.35156C94.5137 5.97656 94.6309 5.55469 94.6309 5.08594C94.6309 4.61719 94.5137 4.19824 94.2793 3.8291C94.0508 3.45996 93.7314 3.17285 93.3213 2.96777C92.9111 2.7627 92.4453 2.66016 91.9238 2.66016C91.3965 2.66016 90.9248 2.7627 90.5088 2.96777C90.0928 3.17285 89.7676 3.45996 89.5332 3.8291C89.2988 4.19824 89.1816 4.61719 89.1816 5.08594ZM93.5762 15.123V12.9785H90.7285V15.123H93.5762ZM95.0703 15.2812C95.6797 15.0293 96.1982 14.6865 96.626 14.2529C97.0596 13.8135 97.3877 13.3301 97.6104 12.8027C97.833 12.2754 97.9473 11.7422 97.9531 11.2031V9.86719H99.3242V11.2031C99.3184 11.7598 99.4238 12.3076 99.6406 12.8467C99.8633 13.3857 100.191 13.8691 100.625 14.2969C101.064 14.7246 101.592 15.0527 102.207 15.2812L101.486 16.3359C100.789 16.0605 100.2 15.665 99.7197 15.1494C99.2393 14.6338 98.873 14.0391 98.6211 13.3652C98.3691 14.0215 98 14.6074 97.5137 15.123C97.0332 15.6445 96.459 16.0488 95.791 16.3359L95.0703 15.2812ZM106.355 12.0117H114.16V10.1836H115.549V16.2129H104.984V10.1836H106.355V12.0117ZM103.174 7.93359H117.412V9.07617H103.174V7.93359ZM103.982 5.71875C104.926 5.58984 105.828 5.33203 106.689 4.94531C107.551 4.55859 108.248 4.08398 108.781 3.52148C109.32 2.95312 109.59 2.34961 109.59 1.71094V0.972656H111.014V1.71094C111.014 2.32617 111.28 2.9209 111.813 3.49512C112.353 4.06934 113.053 4.55566 113.914 4.9541C114.781 5.34668 115.678 5.60156 116.604 5.71875L116.094 6.82617C115.279 6.70312 114.488 6.48926 113.721 6.18457C112.959 5.87988 112.279 5.49609 111.682 5.0332C111.084 4.57031 110.624 4.05469 110.302 3.48633C109.979 4.05469 109.517 4.57031 108.913 5.0332C108.315 5.49609 107.636 5.87988 106.874 6.18457C106.112 6.48926 105.324 6.70312 104.51 6.82617L103.982 5.71875ZM114.16 15.1055V13.1016H106.355V15.1055H114.16ZM131.615 16.4238H130.244V0.796875H131.615V16.4238ZM119.75 2.34375H121.104V11.2031C122.393 11.1914 123.649 11.1299 124.874 11.0186C126.099 10.9014 127.332 10.7109 128.574 10.4473L128.768 11.625C127.438 11.9004 126.143 12.0996 124.883 12.2227C123.629 12.3398 122.34 12.3984 121.016 12.3984H119.75V2.34375ZM146.381 6.98438H149V8.14453H146.381V16.459H145.01V0.796875H146.381V6.98438ZM134.973 2.32617H142.268V3.46875H136.344V11.3789C137.82 11.373 139.101 11.3291 140.185 11.2471C141.269 11.165 142.373 11.0215 143.498 10.8164L143.674 12.0117C142.514 12.2227 141.377 12.3633 140.264 12.4336C139.156 12.5039 137.803 12.5391 136.203 12.5391H134.973V2.32617ZM152.252 11.4141H150.775L150.652 2.27344H152.375L152.252 11.4141ZM150.389 13.9629C150.383 13.7637 150.43 13.5791 150.529 13.4092C150.635 13.2334 150.772 13.0957 150.942 12.9961C151.118 12.8906 151.309 12.8379 151.514 12.8379C151.713 12.8379 151.897 12.8877 152.067 12.9873C152.243 13.0869 152.381 13.2217 152.48 13.3916C152.586 13.5615 152.639 13.7461 152.639 13.9453C152.639 14.2617 152.53 14.5342 152.313 14.7627C152.097 14.9854 151.83 15.0996 151.514 15.1055C151.309 15.1055 151.118 15.0527 150.942 14.9473C150.772 14.8418 150.635 14.7041 150.529 14.5342C150.43 14.3584 150.383 14.168 150.389 13.9629Z" fill="#DEDEDE"/>
</svg>
