<svg width="24" height="24" viewBox="0 0 24 24" fill="none" xmlns="http://www.w3.org/2000/svg">
<circle cx="12" cy="12" r="12" fill="currentColor"/>
<g clip-path="url(#clip0_3822_327)">
<path fill-rule="evenodd" clip-rule="evenodd" d="M9.78635 6.11997C10.5487 5.81645 11.3816 5.64703 12.2569 5.64703C13.1322 5.64703 13.9793 5.81645 14.7487 6.12703" fill="white"/>
<path d="M18.9628 12.3529H5.55106V14.4494H18.9628V12.3529Z" fill="white"/>
<path fill-rule="evenodd" clip-rule="evenodd" d="M5.55106 12.7129C5.55106 9.00702 8.55106 6.00702 12.2569 6.00702C15.9628 6.00702 18.9628 9.00702 18.9628 12.7129" fill="white"/>
<path d="M14.7487 6.12H9.78635V8.47058H14.7487V6.12Z" fill="white"/>
<path d="M14.7487 6.35291H15.8075V8.29408C15.8075 8.58349 15.5675 8.82349 15.2781 8.82349C14.9887 8.82349 14.7487 8.58349 14.7487 8.29408V6.35291Z" fill="currentColor"/>
<path d="M8.72751 6.35291H9.78633V8.29408C9.78633 8.58349 9.54633 8.82349 9.25692 8.82349C8.96751 8.82349 8.72751 8.58349 8.72751 8.29408V6.35291Z" fill="currentColor"/>
<path d="M12.264 13.7647C13.0437 13.7647 13.6758 13.1326 13.6758 12.3529C13.6758 11.5732 13.0437 10.9412 12.264 10.9412C11.4843 10.9412 10.8522 11.5732 10.8522 12.3529C10.8522 13.1326 11.4843 13.7647 12.264 13.7647Z" fill="currentColor"/>
<path d="M14.3958 5.64703H10.1393C9.94436 5.64703 9.78635 5.80505 9.78635 5.99997V7.76468C9.78635 7.9596 9.94436 8.11762 10.1393 8.11762H14.3958C14.5907 8.11762 14.7487 7.9596 14.7487 7.76468V5.99997C14.7487 5.80505 14.5907 5.64703 14.3958 5.64703Z" fill="white"/>
<path d="M19.6334 14.4493H4.88045C4.66604 14.4493 4.49222 14.6232 4.49222 14.8376V16.5176C4.49222 16.732 4.66604 16.9058 4.88045 16.9058H19.6334C19.8478 16.9058 20.0216 16.732 20.0216 16.5176V14.8376C20.0216 14.6232 19.8478 14.4493 19.6334 14.4493Z" fill="white"/>
</g>
<defs>
<clipPath id="clip0_3822_327">
<rect width="15.5294" height="11.2588" fill="white" transform="translate(4.49222 5.64703)"/>
</clipPath>
</defs>
</svg>
