<svg width="24" height="29" viewBox="0 0 24 29" fill="none" xmlns="http://www.w3.org/2000/svg">
<path d="M12.353 28.2888L10.2134 24.4065L14.4926 24.4065L12.353 28.2888Z" fill="currentColor"/>
<circle cx="12" cy="12.7594" r="12" fill="currentColor"/>
<g clip-path="url(#clip0_2649_6553)">
<path d="M14.698 7.48405C14.2496 7.49743 13.721 7.67141 13.4198 7.87886C12.8912 6.92863 11.961 6.33307 10.8636 6.33307C9.27766 6.33307 7.83894 7.41044 7.74526 8.92277C7.73857 8.92277 7.73187 8.92277 7.72518 8.92277C6.07232 8.92277 4.86781 10.3816 4.86781 12.0344C4.86781 13.6873 6.19278 14.8249 7.83894 14.8383C7.85232 14.8383 7.86571 14.8383 7.87909 14.8383C8.40774 14.8516 14.3299 14.8516 14.3299 14.8516C14.437 14.8516 14.5641 14.8516 14.6645 14.8516C16.6921 14.8516 18.3316 13.3594 18.3316 11.2849C18.3316 9.21051 16.7189 7.4372 14.698 7.48405Z" fill="white"/>
<path d="M10.0004 14.9721L7.78545 17.8964H9.11042V19.9441L11.3254 17.0198H10.0004V14.9721Z" fill="white"/>
<path d="M14.0958 14.9721L11.8875 17.883H13.2058V19.924L15.4141 17.0131H14.0958V14.9721Z" fill="white"/>
</g>
<defs>
<clipPath id="clip0_2649_6553">
<rect width="13.4638" height="13.611" fill="white" transform="translate(4.86781 6.33307)"/>
</clipPath>
</defs>
</svg>
