<svg width="24" height="29" viewBox="0 0 24 29" fill="none" xmlns="http://www.w3.org/2000/svg">
<path d="M12.3529 28.2888L10.2133 24.4065L14.4925 24.4065L12.3529 28.2888Z" fill="currentColor"/>
<circle cx="12" cy="12.7594" r="12" fill="currentColor"/>
<g clip-path="url(#clip0_2649_6520)">
<path d="M10.8941 17.4888C14.1493 17.4888 16.7882 14.8499 16.7882 11.5947C16.7882 8.33945 14.1493 5.70056 10.8941 5.70056C7.63889 5.70056 5 8.33945 5 11.5947C5 14.8499 7.63889 17.4888 10.8941 17.4888Z" fill="white"/>
<path fill-rule="evenodd" clip-rule="evenodd" d="M14.727 12.9147L10.4493 19.6064H18.9058L14.727 12.9147Z" fill="white"/>
<path d="M11.007 8.10059V11.6018L8.04932 12.71" stroke="currentColor" stroke-width="1.00376" stroke-miterlimit="10" stroke-linecap="round"/>
<path d="M14.6776 15.3782V16.8959" stroke="currentColor" stroke-width="0.669173" stroke-miterlimit="10" stroke-linecap="round"/>
<path d="M14.6776 18.6605C14.8725 18.6605 15.0305 18.5025 15.0305 18.3076C15.0305 18.1127 14.8725 17.9547 14.6776 17.9547C14.4826 17.9547 14.3246 18.1127 14.3246 18.3076C14.3246 18.5025 14.4826 18.6605 14.6776 18.6605Z" fill="currentColor"/>
<path d="M10.9011 17.9264L14.727 11.9406L17.2046 15.9006" stroke="currentColor" stroke-width="1.00376" stroke-linecap="round" stroke-linejoin="round"/>
</g>
<defs>
<clipPath id="clip0_2649_6520">
<rect width="13.9059" height="13.9059" fill="white" transform="translate(5 5.70056)"/>
</clipPath>
</defs>
</svg>
