<svg width="24" height="24" viewBox="0 0 24 24" fill="none" xmlns="http://www.w3.org/2000/svg">
<circle cx="12" cy="12" r="12" fill="currentColor"/>
<g clip-path="url(#clip0_3822_293)">
<path d="M5.61175 11.9858H9.55763C10.3129 11.9858 10.9341 12.6 10.9341 13.3623V15.5435C10.9341 16.2988 10.32 16.92 9.55763 16.92H4.23528V16.9129V13.3623C4.23528 12.6 4.84939 11.9858 5.61175 11.9858Z" fill="white"/>
<path d="M14.4353 11.9929H18.3388C19.0941 11.9929 19.7082 12.607 19.7082 13.3623V16.92H14.4423C13.6871 16.92 13.0729 16.3059 13.0729 15.5506V13.3623C13.0729 12.607 13.6871 11.9929 14.4423 11.9929H14.4353Z" fill="white"/>
<path fill-rule="evenodd" clip-rule="evenodd" d="M8.80232 17.3929C8.35056 17.3929 7.97644 17.0259 7.97644 16.567V13.1506C7.97644 11.8659 9.02115 10.8212 10.3059 10.8212H13.6517C14.9364 10.8212 15.9811 11.8659 15.9811 13.1506V16.567C15.9811 17.0188 15.6141 17.3929 15.1553 17.3929H8.80232Z" fill="white"/>
<path d="M13.6518 11.3011C14.6753 11.3011 15.5082 12.1341 15.5082 13.1576V16.5741C15.5082 16.7647 15.3529 16.92 15.1623 16.92H8.80234C8.61175 16.92 8.45646 16.7647 8.45646 16.5741V13.1576C8.45646 12.1341 9.2894 11.3011 10.3129 11.3011H13.6588M13.6588 10.3482H10.3129C8.76704 10.3482 7.51057 11.6047 7.51057 13.1506V16.567C7.51057 17.28 8.09646 17.8659 8.8094 17.8659H15.1694C15.8823 17.8659 16.4682 17.28 16.4682 16.567V13.1506C16.4682 11.6047 15.2118 10.3482 13.6659 10.3482H13.6588Z" fill="currentColor"/>
<path d="M11.9859 10.2212C13.249 10.2212 14.2729 9.1972 14.2729 7.93409C14.2729 6.67098 13.249 5.64703 11.9859 5.64703C10.7227 5.64703 9.69879 6.67098 9.69879 7.93409C9.69879 9.1972 10.7227 10.2212 11.9859 10.2212Z" fill="white"/>
<path d="M7.05175 11.28C8.02247 11.28 8.80939 10.4931 8.80939 9.52236C8.80939 8.55163 8.02247 7.76471 7.05175 7.76471C6.08102 7.76471 5.2941 8.55163 5.2941 9.52236C5.2941 10.4931 6.08102 11.28 7.05175 11.28Z" fill="white"/>
<path d="M16.9129 11.28C17.8836 11.28 18.6705 10.4931 18.6705 9.52236C18.6705 8.55163 17.8836 7.76471 16.9129 7.76471C15.9422 7.76471 15.1552 8.55163 15.1552 9.52236C15.1552 10.4931 15.9422 11.28 16.9129 11.28Z" fill="white"/>
</g>
<defs>
<clipPath id="clip0_3822_293">
<rect width="15.4729" height="12.2188" fill="white" transform="translate(4.23528 5.64703)"/>
</clipPath>
</defs>
</svg>
