<svg width="24" height="24" viewBox="0 0 24 24" fill="none" xmlns="http://www.w3.org/2000/svg">
<circle cx="12" cy="12" r="12" fill="currentColor"/>
<rect width="16.9412" height="16.9412" transform="translate(3.58002 3.52942)" fill="currentColor"/>
<g clip-path="url(#clip0_3822_279)">
<path d="M5.90287 7.52547H9.02122L16.9375 5.04284C17.1651 4.98261 17.3926 5.1566 17.3926 5.39081V15.328C17.3926 15.5622 17.1651 15.7362 16.9375 15.676L9.02122 13.1867H5.91626C5.51475 13.1867 5.19355 12.8655 5.18686 12.464V8.25487C5.17347 7.85336 5.50137 7.53216 5.90287 7.53216V7.52547Z" fill="white"/>
<path d="M5.90287 7.52547H9.02122L16.9375 5.04284C17.1651 4.98261 17.3926 5.1566 17.3926 5.39081V15.328C17.3926 15.5622 17.1651 15.7362 16.9375 15.676L9.02122 13.1867H5.91626C5.51475 13.1867 5.19355 12.8655 5.18686 12.464V8.25487C5.17347 7.85336 5.50137 7.53216 5.90287 7.53216V7.52547Z" fill="white"/>
<path d="M9.01438 7.38489H8.01062V13.4008H9.01438V7.38489Z" fill="currentColor"/>
<path d="M9.26864 19.3899H8.32511C7.98383 19.3899 7.6894 19.1557 7.61579 18.8211L6.56519 14.1235H8.98759L9.96458 18.4999C10.065 18.9549 9.72368 19.3832 9.25526 19.3832L9.26864 19.3899Z" fill="white"/>
</g>
<defs>
<clipPath id="clip0_3822_279">
<rect width="12.2124" height="14.3605" fill="white" transform="translate(5.17999 5.02942)"/>
</clipPath>
</defs>
</svg>
