<svg width="24" height="24" viewBox="0 0 24 24" fill="none" xmlns="http://www.w3.org/2000/svg">
<circle cx="12" cy="12" r="12" fill="currentColor"/>
<g clip-path="url(#clip0_3822_344)">
<path d="M15.0301 6.72465C14.5818 6.73803 14.0532 6.91202 13.752 7.11946C13.2234 6.16923 12.2932 5.57367 11.1958 5.57367C9.60985 5.57367 8.17112 6.65104 8.07744 8.16337C8.07075 8.16337 8.06406 8.16337 8.05737 8.16337C6.40451 8.16337 5.2 9.62217 5.2 11.275C5.2 12.9279 6.52496 14.0655 8.17112 14.0789C8.18451 14.0789 8.19789 14.0789 8.21128 14.0789C8.73992 14.0922 14.6621 14.0922 14.6621 14.0922C14.7692 14.0922 14.8963 14.0922 14.9967 14.0922C17.0243 14.0922 18.6638 12.6 18.6638 10.5255C18.6638 8.45111 17.051 6.6778 15.0301 6.72465Z" fill="white"/>
<path d="M10.3326 14.2127L8.11764 17.137H9.4426V19.1847L11.6576 16.2604H10.3326V14.2127Z" fill="white"/>
<path d="M14.428 14.2127L12.2197 17.1236H13.538V19.1646L15.7463 16.2537H14.428V14.2127Z" fill="white"/>
</g>
<defs>
<clipPath id="clip0_3822_344">
<rect width="13.4638" height="13.611" fill="white" transform="translate(5.2 5.57367)"/>
</clipPath>
</defs>
</svg>
