<svg width="25" height="24" viewBox="0 0 25 24" fill="none" xmlns="http://www.w3.org/2000/svg">
<circle cx="12.4812" cy="12" r="12" fill="currentColor"/>
<path d="M12.7813 5.09421L14.5119 8.76031C14.5758 8.89411 14.6971 8.98777 14.844 9.01453L18.7076 9.60325C19.0652 9.65677 19.2121 10.1184 18.9503 10.386L16.1532 13.2426C16.051 13.3496 15.9999 13.4968 16.0254 13.6507L16.6832 17.6847C16.7471 18.0594 16.3703 18.347 16.0446 18.1664L12.5897 16.2598C12.462 16.1862 12.3087 16.1862 12.181 16.2598L8.72612 18.1664C8.40682 18.3403 8.03004 18.0594 8.08751 17.6847L8.74528 13.6507C8.77083 13.5035 8.71974 13.3496 8.61756 13.2426L5.83322 10.386C5.57139 10.1184 5.71827 9.65677 6.07589 9.60325L9.93948 9.01453C10.08 8.99446 10.2077 8.9008 10.2716 8.76031L11.9958 5.09421C12.1555 4.75302 12.6216 4.75302 12.7813 5.09421Z" fill="white"/>
</svg>
