<svg width="24" height="29" viewBox="0 0 24 29" fill="none" xmlns="http://www.w3.org/2000/svg">
<path d="M12.353 28.2888L10.2134 24.4065L14.4926 24.4065L12.353 28.2888Z" fill="currentColor"/>
<circle cx="12" cy="12.7594" r="12" fill="currentColor"/>
<rect width="16.9412" height="16.9412" transform="translate(3.52942 4.28882)" fill="currentColor"/>
<g clip-path="url(#clip0_2649_6488)">
<path d="M5.59062 8.12319H8.70896L16.6253 5.64055C16.8528 5.58033 17.0803 5.75431 17.0803 5.98852V15.9257C17.0803 16.16 16.8528 16.3339 16.6253 16.2737L8.70896 13.7844H5.604C5.2025 13.7844 4.88129 13.4632 4.8746 13.0617V8.85258C4.86122 8.45108 5.18911 8.12988 5.59062 8.12988V8.12319Z" fill="white"/>
<path d="M5.59062 8.12319H8.70896L16.6253 5.64055C16.8528 5.58033 17.0803 5.75431 17.0803 5.98852V15.9257C17.0803 16.16 16.8528 16.3339 16.6253 16.2737L8.70896 13.7844H5.604C5.2025 13.7844 4.88129 13.4632 4.8746 13.0617V8.85258C4.86122 8.45108 5.18911 8.12988 5.59062 8.12988V8.12319Z" fill="white"/>
<path d="M8.70212 7.9826H7.69836V13.9985H8.70212V7.9826Z" fill="currentColor"/>
<path d="M8.95639 19.9876H8.01285C7.67158 19.9876 7.37714 19.7534 7.30353 19.4188L6.25293 14.7212H8.67534L9.65233 19.0976C9.7527 19.5526 9.41143 19.9809 8.94301 19.9809L8.95639 19.9876Z" fill="white"/>
</g>
<defs>
<clipPath id="clip0_2649_6488">
<rect width="12.2124" height="14.3605" fill="white" transform="translate(4.86774 5.62714)"/>
</clipPath>
</defs>
</svg>
