<svg width="24" height="29" viewBox="0 0 24 29" fill="none" xmlns="http://www.w3.org/2000/svg">
<path d="M12.353 28.2888L10.2134 24.4065L14.4926 24.4065L12.353 28.2888Z" fill="currentColor"/>
<circle cx="12" cy="12.7594" r="12" fill="currentColor"/>
<g clip-path="url(#clip0_2649_6536)">
<path fill-rule="evenodd" clip-rule="evenodd" d="M9.78635 6.87937C10.5487 6.57584 11.3816 6.40643 12.2569 6.40643C13.1322 6.40643 13.9793 6.57584 14.7487 6.88643" fill="white"/>
<path d="M18.9628 13.1123H5.55106V15.2088H18.9628V13.1123Z" fill="white"/>
<path fill-rule="evenodd" clip-rule="evenodd" d="M5.55106 13.4723C5.55106 9.76642 8.55106 6.76642 12.2569 6.76642C15.9628 6.76642 18.9628 9.76642 18.9628 13.4723" fill="white"/>
<path d="M14.7487 6.87939H9.78635V9.22998H14.7487V6.87939Z" fill="white"/>
<path d="M14.7487 7.1123H15.8075V9.05348C15.8075 9.34289 15.5675 9.58289 15.2781 9.58289C14.9887 9.58289 14.7487 9.34289 14.7487 9.05348V7.1123Z" fill="currentColor"/>
<path d="M8.72751 7.1123H9.78633V9.05348C9.78633 9.34289 9.54633 9.58289 9.25692 9.58289C8.96751 9.58289 8.72751 9.34289 8.72751 9.05348V7.1123Z" fill="currentColor"/>
<path d="M12.264 14.5241C13.0437 14.5241 13.6758 13.892 13.6758 13.1123C13.6758 12.3326 13.0437 11.7006 12.264 11.7006C11.4843 11.7006 10.8522 12.3326 10.8522 13.1123C10.8522 13.892 11.4843 14.5241 12.264 14.5241Z" fill="currentColor"/>
<path d="M14.3958 6.40643H10.1393C9.94436 6.40643 9.78635 6.56445 9.78635 6.75937V8.52408C9.78635 8.719 9.94436 8.87702 10.1393 8.87702H14.3958C14.5907 8.87702 14.7487 8.719 14.7487 8.52408V6.75937C14.7487 6.56445 14.5907 6.40643 14.3958 6.40643Z" fill="white"/>
<path d="M19.6334 15.2087H4.88045C4.66604 15.2087 4.49222 15.3826 4.49222 15.597V17.277C4.49222 17.4914 4.66604 17.6652 4.88045 17.6652H19.6334C19.8478 17.6652 20.0216 17.4914 20.0216 17.277V15.597C20.0216 15.3826 19.8478 15.2087 19.6334 15.2087Z" fill="white"/>
</g>
<defs>
<clipPath id="clip0_2649_6536">
<rect width="15.5294" height="11.2588" fill="white" transform="translate(4.49222 6.40643)"/>
</clipPath>
</defs>
</svg>
