<svg width="12" height="11" viewBox="0 0 12 11" fill="none" xmlns="http://www.w3.org/2000/svg">
<path d="M8.54297 0.957182C8.67429 0.82586 8.83019 0.72169 9.00177 0.650619C9.17335 0.579548 9.35725 0.542969 9.54297 0.542969C9.72869 0.542969 9.91258 0.579548 10.0842 0.650619C10.2557 0.72169 10.4116 0.82586 10.543 0.957182C10.6743 1.0885 10.7785 1.24441 10.8495 1.41599C10.9206 1.58757 10.9572 1.77147 10.9572 1.95718C10.9572 2.1429 10.9206 2.3268 10.8495 2.49838C10.7785 2.66996 10.6743 2.82586 10.543 2.95718L3.79297 9.70718L1.04297 10.4572L1.79297 7.70718L8.54297 0.957182Z" fill="#BEBEBE" stroke="#BEBEBE" stroke-linecap="round" stroke-linejoin="round"/>
</svg>
