<svg width="20" height="20" viewBox="0 0 20 20" fill="none" xmlns="http://www.w3.org/2000/svg">
<path d="M5.61554 12.0002C5.61554 12.3031 5.86112 12.5487 6.16406 12.5487C6.467 12.5487 6.71258 12.3031 6.71258 12.0002L5.61554 12.0002ZM6.55192 1.61214C6.33771 1.39793 5.99041 1.39793 5.7762 1.61214L2.28546 5.10288C2.07125 5.31709 2.07125 5.66439 2.28546 5.8786C2.49967 6.09281 2.84697 6.09281 3.06118 5.8786L6.16406 2.77572L9.26694 5.8786C9.48115 6.09281 9.82845 6.09281 10.0427 5.8786C10.2569 5.66439 10.2569 5.31709 10.0427 5.10288L6.55192 1.61214ZM6.71258 12.0002L6.71258 2L5.61555 2L5.61554 12.0002L6.71258 12.0002Z" fill="#999999"/>
<path d="M14.5485 6.99984C14.5485 6.69691 14.3029 6.45133 14 6.45133C13.6971 6.45133 13.4515 6.69691 13.4515 6.99984L14.5485 6.99984ZM13.6121 17.3879C13.8263 17.6021 14.1737 17.6021 14.3879 17.3879L17.8786 13.8971C18.0928 13.6829 18.0928 13.3356 17.8786 13.1214C17.6644 12.9072 17.3171 12.9072 17.1029 13.1214L14 16.2243L10.8971 13.1214C10.6829 12.9072 10.3356 12.9072 10.1214 13.1214C9.90719 13.3356 9.90719 13.6829 10.1214 13.8971L13.6121 17.3879ZM13.4515 6.99984L13.4515 17L14.5485 17L14.5485 6.99984L13.4515 6.99984Z" fill="#999999"/>
</svg>
