<svg width="24" height="24" viewBox="0 0 24 24" fill="none" xmlns="http://www.w3.org/2000/svg">
<path id="Vector" d="M22 10.9722C22.0036 12.3654 21.6781 13.7398 21.05 14.9833C20.3052 16.4735 19.1603 17.7269 17.7434 18.6031C16.3265 19.4794 14.6937 19.9438 13.0278 19.9444C11.6346 19.9481 10.2602 19.6226 9.01666 18.9944L3 21L5.00555 14.9833C4.37743 13.7398 4.05192 12.3654 4.05555 10.9722C4.0562 9.30632 4.52064 7.67348 5.39687 6.2566C6.27309 4.83973 7.52648 3.69479 9.01666 2.95003C10.2602 2.3219 11.6346 1.9964 13.0278 2.00003H13.5555C15.7557 2.12141 17.8337 3.05005 19.3918 4.60815C20.9499 6.16626 21.8786 8.24432 22 10.4445V10.9722Z" fill="currentColor" />
</svg>
