<svg width="24" height="24" viewBox="0 0 24 24" fill="none" xmlns="http://www.w3.org/2000/svg">
<g id="&#235;&#157;&#188;&#236;&#154;&#180;&#235;&#147;&#156;" clip-path="url(#clip0_3231_3775)">
<g id="Group 7148">
<path id="Vector" d="M12.0484 10.0383C14.2681 10.0383 16.0676 8.23883 16.0676 6.01913C16.0676 3.79942 14.2681 2 12.0484 2C9.82872 2 8.0293 3.79942 8.0293 6.01913C8.0293 8.23883 9.82872 10.0383 12.0484 10.0383Z" fill="currentColor"/>
<path id="Vector_2" d="M21.0488 21.9998C21.2042 22.0036 21.3584 21.9719 21.4997 21.9072C21.641 21.8424 21.7656 21.7463 21.8641 21.6261C21.9626 21.5059 22.0324 21.3648 22.0682 21.2136C22.104 21.0623 22.1048 20.9049 22.0705 20.7533C21.0488 16.8811 17.8918 12.0792 12.0478 12.0792C6.20379 12.0792 2.9957 16.8811 2.0251 20.7533C1.99087 20.9049 1.99166 21.0623 2.02743 21.2136C2.0632 21.3648 2.13301 21.5059 2.23153 21.6261C2.33005 21.7463 2.45469 21.8424 2.59597 21.9072C2.73724 21.9719 2.89142 22.0036 3.04679 21.9998H12.0478H21.0488Z" fill="currentColor"/>
</g>
</g>
<defs>
<clipPath id="clip0_3231_3775">
<rect width="24" height="24" fill="white"/>
</clipPath>
</defs>
</svg>
