<svg width="204" height="40" viewBox="0 0 204 40" fill="none" xmlns="http://www.w3.org/2000/svg">
<path d="M84.7852 0.673828V16.582H82.834V7.89844H79.7754V6.29883H82.834V0.673828H84.7852ZM71.25 12.0117C73.79 10.8076 75.293 7.80176 75.3105 4.89258V3.83789H71.9004V2.23828H80.707V3.83789H77.2969V4.89258C77.2969 7.64355 78.7822 10.5439 81.3398 11.6602L80.1797 13.2246C78.334 12.3457 77.0156 10.5791 76.3213 8.47852C75.627 10.7197 74.2734 12.6094 72.4277 13.541L71.25 12.0117ZM92.7129 3.53906C92.7129 5.48145 93.9697 7.30957 96.457 8.07422L95.5254 9.60352C93.7412 9.04102 92.4756 7.90723 91.7812 6.47461C91.0781 8.14453 89.7422 9.47168 87.8262 10.1133L86.8418 8.56641C89.3994 7.73145 90.7441 5.66602 90.7441 3.55664V3.36328H87.3867V1.78125H96.0176V3.36328H92.7129V3.53906ZM89.0039 13.5059C89.0039 11.6074 91.0605 10.5 94.3828 10.5C97.6787 10.5 99.7002 11.6074 99.709 13.5059C99.7002 15.4219 97.6787 16.5469 94.3828 16.5469C91.0605 16.5469 89.0039 15.4219 89.0039 13.5059ZM90.9551 13.5059C90.9551 14.4902 92.2031 15.0088 94.3828 15.0176C96.5537 15.0088 97.7754 14.4902 97.7754 13.5059C97.7754 12.5391 96.5537 12.0293 94.3828 12.0293C92.2031 12.0293 90.9551 12.5391 90.9551 13.5059ZM97.5996 10.1484V0.673828H99.5508V4.48828H101.766V6.08789H99.5508V10.1484H97.5996ZM115.107 0.691406V5.68359H117.322V7.30078H115.107V12.5566H113.156V0.691406H115.107ZM102.592 4.01367V2.44922H106.336V0.673828H108.287V2.44922H112.014V4.01367H102.592ZM103.4 7.70508C103.4 5.87695 104.991 4.66406 107.303 4.66406C109.597 4.66406 111.179 5.87695 111.188 7.70508C111.179 9.52441 109.597 10.7109 107.303 10.7109C104.991 10.7109 103.4 9.52441 103.4 7.70508ZM104.93 16.248V11.625H106.881V14.666H115.74V16.248H104.93ZM105.299 7.70508C105.29 8.66309 106.099 9.20801 107.303 9.19922C108.507 9.20801 109.324 8.66309 109.324 7.70508C109.324 6.73828 108.507 6.17578 107.303 6.17578C106.099 6.17578 105.29 6.73828 105.299 7.70508ZM135.709 0.691406V9.97266H133.758V8.21484H129.979V6.63281H133.758V4.92773H130.128C129.126 7.4502 126.806 9.2168 123.352 10.1836L122.561 8.63672C126.278 7.63477 128.265 5.74512 128.563 3.38086H123.404V1.79883H130.699C130.699 2.35254 130.655 2.87988 130.567 3.38086H133.758V0.691406H135.709ZM125.057 13.3125C125.057 11.3613 127.192 10.1572 130.453 10.1484C133.67 10.1572 135.814 11.3613 135.814 13.3125C135.814 15.2637 133.67 16.4854 130.453 16.4766C127.192 16.4854 125.057 15.2637 125.057 13.3125ZM127.008 13.3125C127.008 14.3584 128.317 14.9297 130.453 14.9297C132.554 14.9297 133.854 14.3584 133.863 13.3125C133.854 12.249 132.554 11.6777 130.453 11.6777C128.317 11.6777 127.008 12.249 127.008 13.3125ZM152.479 13.1016V14.7188H137.959V13.1016H144.217V10.5176H139.682V5.31445H148.822V3.3457H139.646V1.76367H150.756V6.86133H141.633V8.91797H151.125V10.5176H146.15V13.1016H152.479ZM166.91 0.867188V16.3711H165.838V0.867188H166.91ZM153.885 7.54688C153.894 4.30371 155.194 2.23828 157.189 2.23828C159.088 2.23828 160.362 4.0752 160.512 7.00195H162.762V1.21875H163.834V15.5625H162.762V7.95117H160.521C160.397 10.957 159.114 12.8643 157.189 12.8555C155.194 12.8643 153.894 10.79 153.885 7.54688ZM154.939 7.54688C154.931 10.1045 155.827 11.8271 157.189 11.8184C158.578 11.8271 159.475 10.1045 159.475 7.54688C159.475 4.98047 158.578 3.2666 157.189 3.27539C155.827 3.2666 154.931 4.98047 154.939 7.54688ZM186.773 0.867188V16.3711H185.701V8.10938H183.188V15.5449H182.15V1.23633H183.188V7.17773H185.701V0.867188H186.773ZM174.188 12.4336V2.7832H180.006V3.71484H175.295V11.4668C177.677 11.4668 179.18 11.3789 180.938 10.9922L181.061 11.9414C179.197 12.3457 177.642 12.416 175.154 12.4336H174.188ZM201.205 0.867188V6.10547H203.596V7.05469H201.205V12.5039H200.098V0.867188H201.205ZM189.182 3.78516V2.85352H193.26V0.884766H194.35V2.85352H198.428V3.78516H189.182ZM190.096 7.59961C190.087 5.85059 191.572 4.74316 193.805 4.73438C196.002 4.74316 197.487 5.85059 197.496 7.59961C197.487 9.33105 196.002 10.4385 193.805 10.4473C191.572 10.4385 190.087 9.33105 190.096 7.59961ZM191.15 7.59961C191.142 8.76855 192.205 9.55078 193.805 9.5332C195.378 9.55078 196.441 8.76855 196.459 7.59961C196.441 6.42188 195.378 5.63086 193.805 5.63086C192.205 5.63086 191.142 6.42188 191.15 7.59961ZM191.607 16.002V11.5547H192.697V15.0703H201.961V16.002H191.607ZM14.2617 23.6738V39.5645H12.3809V31.4082H10.6758V38.8262H8.84766V24.0957H10.6758V29.8262H12.3809V23.6738H14.2617ZM0.498047 34.8887C3.88184 32.9375 5.31445 30.4238 5.5957 27.2422H1.23633V25.6777H7.49414C7.49414 29.9756 6.14062 33.667 1.62305 36.2422L0.498047 34.8887ZM29.4844 23.6738V31.8828H27.5332V30.1602H24.334V31.373H16.8984V24.377H18.8496V26.3809H22.4004V24.377H24.334V25.7832H27.5332V23.6738H29.4844ZM18.8496 29.8262H22.4004V27.875H18.8496V29.8262ZM19.0078 34.0625V32.5332H29.4844V36.6113H20.9766V37.8242H29.9941V39.3711H19.0254V35.1699H27.5332V34.0625H19.0078ZM24.334 28.666H27.5332V27.2598H24.334V28.666ZM48.5391 23.6738V26.873H50.7539V28.4902H48.5391V31.6543H46.5879V23.6738H48.5391ZM36.1816 27.7695C36.1729 25.6514 37.9834 24.2012 40.4004 24.2012C42.8174 24.2012 44.6104 25.6514 44.6191 27.7695C44.6104 29.8438 42.8174 31.3291 40.4004 31.3203C37.9834 31.3291 36.1729 29.8438 36.1816 27.7695ZM38.0977 27.7695C38.0801 28.9736 39.0557 29.7734 40.4004 29.7734C41.7363 29.7734 42.7119 28.9736 42.7207 27.7695C42.7119 26.5654 41.7363 25.7832 40.4004 25.7832C39.0557 25.7832 38.0801 26.5654 38.0977 27.7695ZM38.1504 33.8516V32.3398H48.5391V36.5059H40.1016V37.8242H49.0312V39.3711H38.168V35.082H46.5879V33.8516H38.1504ZM64.7988 23.6914V33.1133H62.8301V23.6914H64.7988ZM52.3711 26.1699V24.623H59.7012V29.2285H54.3223V30.8809C57.0381 30.8809 58.9805 30.8018 61.248 30.4238L61.4941 32.0059C58.9893 32.4014 56.8359 32.4893 53.7598 32.4805H52.4062V27.7344H57.7676V26.1699H52.3711ZM54.252 39.3711V33.8516H64.7988V39.3711H54.252ZM56.1855 37.7891H62.8828V35.416H56.1855V37.7891ZM74.3438 23.9199C77.9648 23.9287 80.0654 24.8867 80.0742 26.6445C80.0654 28.4199 77.9648 29.3779 74.3438 29.3867C70.7314 29.3779 68.6133 28.4199 68.6133 26.6445C68.6133 24.8867 70.7314 23.9287 74.3438 23.9199ZM67.1191 31.7949V30.2305H81.6035V31.7949H67.1191ZM68.8242 34.3086V32.8672H79.793V36.752H70.7578V37.9297H80.2324V39.4238H68.8418V35.3633H77.877V34.3086H68.8242ZM70.6699 26.6445C70.6611 27.5234 71.9268 27.9277 74.3438 27.9277C76.7959 27.9277 78.0527 27.5234 78.0527 26.6445C78.0527 25.8271 76.7959 25.3613 74.3438 25.3613C71.9268 25.3613 70.6611 25.8271 70.6699 26.6445ZM100.254 23.6738V31.8125H98.3027V27.7871H95.1387V26.2227H98.3027V23.6738H100.254ZM86.8594 30.3359C89.417 29.5625 90.7441 27.6025 90.7441 25.4668V24.2012H92.7129V25.4668C92.7041 27.4268 93.9873 29.2812 96.457 30.0371L95.4199 31.5488C93.6973 30.9775 92.4492 29.8525 91.7461 28.4111C91.0605 30.0195 89.751 31.2852 87.8789 31.9004L86.8594 30.3359ZM89.7949 34.0273V32.498H100.254V36.6113H91.7285V37.8242H100.764V39.3711H89.8125V35.1523H98.3203V34.0273H89.7949ZM115.811 23.6738V33.1133H113.859V29.2285H111.152V27.6289H113.859V23.6738H115.811ZM102.451 31.5312C105.009 30.6523 106.354 28.5166 106.354 26.416V26.293H103.049V24.7109H111.627V26.293H108.34V26.3984C108.34 28.332 109.623 30.2832 112.084 31.1094L111.1 32.6562C109.333 32.0586 108.085 30.8457 107.382 29.3516C106.688 31.0391 105.36 32.4102 103.471 33.0781L102.451 31.5312ZM105.035 36.541C105.018 34.6338 107.083 33.5176 110.432 33.5176C113.798 33.5176 115.854 34.6338 115.863 36.541C115.854 38.4482 113.798 39.5557 110.432 39.5645C107.083 39.5557 105.018 38.4482 105.035 36.541ZM106.969 36.541C106.96 37.5254 108.226 38.0615 110.432 38.0527C112.655 38.0615 113.912 37.5254 113.912 36.541C113.912 35.5479 112.655 35.0117 110.432 35.0117C108.226 35.0117 106.96 35.5479 106.969 36.541ZM130.295 23.7969V27.6992H132.703V28.6309H130.295V32.4277H129.188V23.7969H130.295ZM118.271 26.2578V25.3613H122.35V23.6738H123.439V25.3613H127.518V26.2578H118.271ZM119.186 29.6152C119.177 28.042 120.645 27.0752 122.895 27.0664C125.127 27.0752 126.577 28.042 126.586 29.6152C126.577 31.1973 125.127 32.1641 122.895 32.1641C120.645 32.1641 119.177 31.1973 119.186 29.6152ZM120.24 29.6152C120.231 30.6436 121.286 31.3115 122.895 31.3027C124.477 31.3115 125.531 30.6436 125.549 29.6152C125.531 28.6045 124.477 27.9189 122.895 27.9102C121.286 27.9189 120.231 28.6045 120.24 29.6152ZM120.521 34.1504V33.2891H130.295V36.5762H121.646V38.2812H130.893V39.1777H120.557V35.7148H129.188V34.1504H120.521ZM145.764 25.3789C145.755 27.6816 148.928 29.5273 151.477 29.9141L151.02 30.8281C148.743 30.415 146.168 29.0615 145.192 27.0752C144.234 29.0879 141.668 30.415 139.383 30.8281L138.908 29.9141C141.466 29.5273 144.621 27.7256 144.621 25.3789V24.4473H145.764V25.3789ZM138.117 33.6406V32.6914H152.25V33.6406H145.693V39.3711H144.621V33.6406H138.117ZM163.131 34.4141C163.122 35.8291 163.948 37.3496 165.486 38.1846C167.024 37.2617 167.886 35.627 167.877 34.4141V33.4473H168.967V34.4141C168.958 36.0049 170.224 37.6309 172.201 38.3164L171.639 39.1602C170.065 38.5889 168.932 37.4639 168.404 36.1367C167.93 37.4023 166.972 38.6504 165.521 39.2832C164.001 38.6855 163.017 37.5078 162.568 36.1807C162.023 37.4463 160.907 38.5801 159.404 39.1602L158.824 38.3164C160.767 37.5869 162.05 35.8906 162.059 34.4141V33.4473H163.131V34.4141ZM158.42 28.4023C158.411 26.2578 160.09 24.8076 162.428 24.8164C164.766 24.8076 166.427 26.2578 166.436 28.4023C166.427 30.5293 164.766 31.9707 162.428 31.9707C160.09 31.9707 158.411 30.5293 158.42 28.4023ZM159.492 28.4023C159.492 29.9316 160.723 31.0391 162.428 31.0391C164.124 31.0391 165.354 29.9316 165.363 28.4023C165.354 26.8818 164.124 25.7568 162.428 25.7656C160.723 25.7568 159.492 26.8818 159.492 28.4023ZM169.652 32.7617V23.8672H170.76V32.7617H169.652ZM177.703 25.0977C179.821 25.1064 181.342 26.9609 181.518 29.8965H185.262V23.8672H186.352V39.3887H185.262V30.8105H181.526C181.412 33.8779 179.874 35.8203 177.703 35.8203C175.436 35.8203 173.854 33.7285 173.871 30.459C173.854 27.1982 175.436 25.1064 177.703 25.0977ZM174.926 30.459C174.917 33.0518 176.06 34.8359 177.703 34.8359C179.338 34.8359 180.489 33.0518 180.48 30.459C180.489 27.8662 179.338 26.0908 177.703 26.082C176.06 26.0908 174.917 27.8662 174.926 30.459ZM203.332 36.3652V37.3145H189.129V36.3652H192.75V32.0498C191.396 31.3818 190.57 30.2656 190.57 28.8594C190.57 26.4775 192.899 24.9219 196.178 24.9043C199.482 24.9219 201.803 26.4775 201.803 28.8594C201.803 30.248 201.003 31.3467 199.676 32.0234V36.3652H203.332ZM191.625 28.8594C191.625 30.6348 193.532 31.874 196.178 31.8652C198.814 31.874 200.748 30.6348 200.748 28.8594C200.748 27.0488 198.814 25.8271 196.178 25.8359C193.532 25.8271 191.625 27.0488 191.625 28.8594ZM193.84 36.3652H198.568V32.4541C197.856 32.6562 197.048 32.7617 196.178 32.7617C195.325 32.7617 194.543 32.6562 193.84 32.4629V36.3652Z" fill="white"/>
</svg>
