<svg width="183" height="40" viewBox="0 0 183 40" fill="none" xmlns="http://www.w3.org/2000/svg">
<path d="M5.76562 5.80664C5.75684 8.32031 7.74316 11.0625 9.87891 12.0996L9.22852 12.9785C7.50586 12.1084 5.93262 10.21 5.23828 8.04785C4.52637 10.377 2.84766 12.46 1.14258 13.3652L0.457031 12.4863C2.56641 11.4316 4.68457 8.46973 4.69336 5.80664V3.43359H1.00195V2.48438H9.38672V3.43359H5.76562V5.80664ZM11.5137 16.3711V0.867188H12.6211V7.24805H15.293V8.19727H12.6211V16.3711H11.5137ZM23.9062 3.04688C23.8975 5.2793 27 7.05469 29.4785 7.44141L29.0566 8.32031C26.7715 7.90723 24.2314 6.58008 23.2998 4.62891C22.3682 6.58008 19.8281 7.90723 17.5781 8.32031L17.1387 7.44141C19.5908 7.05469 22.6846 5.2793 22.6934 3.04688V2.80078H17.5957V1.88672H28.9863V2.80078H23.9062V3.04688ZM16.2422 10.7285V9.7793H30.375V10.7285H23.8184V16.3535H22.7461V10.7285H16.2422ZM48.0762 0.867188V7.2832H50.6953V8.23242H48.0762V16.3711H46.9688V0.867188H48.0762ZM36.3164 12.4512C40.4473 10.4033 42.6973 7.23047 42.9697 3.48633H37.002V2.55469H44.1035C44.0859 6.86133 41.9502 10.8604 36.9316 13.3301L36.3164 12.4512ZM64.2129 5.70117V6.63281H53.666V1.42969H54.7559V5.70117H64.2129ZM51.6797 9.79688V8.88281H65.8652V9.79688H51.6797ZM53.5957 15.9844V11.4844H54.6855V15.0352H64.3008V15.9844H53.5957ZM84.375 0.867188V10.3066H83.2676V8.03906H78.9258V7.08984H83.2676V4.78711H79.1016C78.0732 7.30957 75.6035 9.15527 72.2988 10.166L71.8242 9.26953C75.6123 8.11816 78.1699 5.88574 78.4248 3.01172H72.6152V2.0625H79.6289C79.6289 2.7041 79.5498 3.31055 79.4004 3.89062H83.2676V0.867188H84.375ZM74.1797 13.3652C74.1797 11.5459 76.1572 10.4561 79.3301 10.4473C82.4678 10.4561 84.4541 11.5459 84.4629 13.3652C84.4541 15.2109 82.4678 16.3008 79.3301 16.3008C76.1572 16.3008 74.1797 15.2109 74.1797 13.3652ZM75.2695 13.3652C75.2783 14.6133 76.8779 15.3779 79.3301 15.3867C81.7559 15.3779 83.3555 14.6133 83.3555 13.3652C83.3555 12.126 81.7559 11.3525 79.3301 11.3613C76.8779 11.3525 75.2783 12.126 75.2695 13.3652ZM101.355 13.4355V14.3848H87.1523V13.4355H93.6562V10.3066H88.9805V5.66602H98.4199V2.99414H88.9277V2.0625H99.5098V6.59766H90.0703V9.375H99.8789V10.3066H94.7637V13.4355H101.355ZM116.877 8.14453V9.04102H102.691V8.14453H116.877ZM104.432 11.3086V10.4473H115.084V13.6289H105.557V15.2988H115.611V16.1426H104.467V12.8027H113.977V11.3086H104.432ZM104.502 2.2207V1.39453H115.031V4.45312H105.645V5.98242H115.295V6.82617H104.555V3.66211H113.924V2.2207H104.502ZM135.773 0.673828V16.582H133.822V7.89844H130.764V6.29883H133.822V0.673828H135.773ZM122.238 12.0117C124.778 10.8076 126.281 7.80176 126.299 4.89258V3.83789H122.889V2.23828H131.695V3.83789H128.285V4.89258C128.285 7.64355 129.771 10.5439 132.328 11.6602L131.168 13.2246C129.322 12.3457 128.004 10.5791 127.31 8.47852C126.615 10.7197 125.262 12.6094 123.416 13.541L122.238 12.0117ZM143.701 3.53906C143.701 5.48145 144.958 7.30957 147.445 8.07422L146.514 9.60352C144.729 9.04102 143.464 7.90723 142.77 6.47461C142.066 8.14453 140.73 9.47168 138.814 10.1133L137.83 8.56641C140.388 7.73145 141.732 5.66602 141.732 3.55664V3.36328H138.375V1.78125H147.006V3.36328H143.701V3.53906ZM139.992 13.5059C139.992 11.6074 142.049 10.5 145.371 10.5C148.667 10.5 150.688 11.6074 150.697 13.5059C150.688 15.4219 148.667 16.5469 145.371 16.5469C142.049 16.5469 139.992 15.4219 139.992 13.5059ZM141.943 13.5059C141.943 14.4902 143.191 15.0088 145.371 15.0176C147.542 15.0088 148.764 14.4902 148.764 13.5059C148.764 12.5391 147.542 12.0293 145.371 12.0293C143.191 12.0293 141.943 12.5391 141.943 13.5059ZM148.588 10.1484V0.673828H150.539V4.48828H152.754V6.08789H150.539V10.1484H148.588ZM165.656 0.867188V7.35352H168.328V8.30273H165.656V16.3711H164.549V0.867188H165.656ZM153.633 4.34766V3.41602H157.764V1.02539H158.871V3.41602H162.896V4.34766H153.633ZM154.6 9.28711C154.591 7.21289 156.164 5.77148 158.344 5.77148C160.523 5.77148 162.088 7.21289 162.088 9.28711C162.088 11.3701 160.523 12.8027 158.344 12.8027C156.164 12.8027 154.591 11.3701 154.6 9.28711ZM155.654 9.28711C155.646 10.7637 156.788 11.8535 158.344 11.8359C159.891 11.8535 161.024 10.7637 161.033 9.28711C161.024 7.81055 159.891 6.71191 158.344 6.70312C156.788 6.71191 155.646 7.81055 155.654 9.28711ZM177.064 2.25586V3.69727H180.949V0.867188H182.057V12.2051H180.949V7.95117H177.064V9.375H170.033V2.25586H177.064ZM171.123 8.47852H175.975V3.16992H171.123V8.47852ZM172.125 16.002V11.2031H173.232V15.0703H182.426V16.002H172.125ZM177.064 7.00195H180.949V4.64648H177.064V7.00195ZM13.7461 23.6738V39.582H11.7773V23.6738H13.7461ZM1.03711 30.4414C1.02832 27.0137 2.77734 24.834 5.18555 24.834C7.56738 24.834 9.3252 27.0137 9.33398 30.4414C9.3252 33.8955 7.56738 36.0664 5.18555 36.0664C2.77734 36.0664 1.02832 33.8955 1.03711 30.4414ZM2.91797 30.4414C2.91797 32.8848 3.84082 34.2998 5.18555 34.3086C6.52148 34.2998 7.43555 32.8848 7.43555 30.4414C7.43555 28.0156 6.52148 26.5918 5.18555 26.5918C3.84082 26.5918 2.91797 28.0156 2.91797 30.4414ZM30.5859 32.5508V34.1328H27.1758V39.6172H25.2246V34.1328H21.5156V39.6172H19.5469V34.1328H16.0664V32.5508H30.5859ZM16.6992 29.5098C20.0391 29.0527 22.3066 27.0225 22.3066 24.9922V24.1836H24.3633V24.9922C24.3545 27.0049 26.6309 29.0615 29.9707 29.5098L29.1973 31.1094C26.5166 30.6875 24.3809 29.3428 23.335 27.541C22.2979 29.3516 20.1621 30.6875 17.4727 31.1094L16.6992 29.5098ZM46.1426 30.8809V32.3574H31.623V30.8809H46.1426ZM33.3105 34.6777V33.3066H44.3848V36.9277H35.2793V38.0352H44.8594V39.3887H33.3281V35.6621H42.4512V34.6777H33.3105ZM33.416 25.3789V24.0254H44.3496V27.6113H35.4023V28.6484H44.6309V29.9844H33.4688V26.3457H42.3984V25.3789H33.416ZM64.0547 23.6914V28.3145H66.1992V29.9316H64.0547V34.4316H62.1035V23.6914H64.0547ZM51.3281 32.5332C52.5234 32.5332 53.9033 32.5244 55.3359 32.4893V31.5137C53.5693 31.2939 52.4443 30.4414 52.4531 29.1934C52.4443 27.7256 53.9824 26.8291 56.2852 26.8379C58.5967 26.8291 60.1172 27.7256 60.1172 29.1934C60.1172 30.4326 59.0273 31.2764 57.2871 31.5049V32.4189C58.6406 32.3486 60.0029 32.2432 61.2773 32.0762L61.4355 33.4297C58.0518 34.0273 54.334 34.0625 51.5391 34.0625L51.3281 32.5332ZM51.7324 26.3809V24.9395H55.3359V23.5508H57.2871V24.9395H60.8555V26.3809H51.7324ZM53.332 36.6465V35.1172H64.0547V39.5645H62.1035V36.6465H53.332ZM54.334 29.1934C54.3164 29.8525 55.0547 30.2656 56.2852 30.248C57.5156 30.2656 58.2539 29.8525 58.2539 29.1934C58.2539 28.499 57.5156 28.1475 56.2852 28.1562C55.0547 28.1475 54.3164 28.499 54.334 29.1934ZM80.2617 23.6914V35.1699H78.293V23.6914H80.2617ZM67.3066 28.7012C67.3066 26.3896 69.1787 24.7373 71.5957 24.7285C74.0127 24.7373 75.876 26.3896 75.8672 28.7012C75.876 31.0479 74.0127 32.6914 71.5957 32.6914C69.1787 32.6914 67.3066 31.0479 67.3066 28.7012ZM69.2227 28.7012C69.2139 30.1074 70.2334 30.9863 71.5957 30.9863C72.9229 30.9863 73.9512 30.1074 73.9512 28.7012C73.9512 27.3301 72.9229 26.4336 71.5957 26.4336C70.2334 26.4336 69.2139 27.3301 69.2227 28.7012ZM69.75 39.248V34.0098H71.7188V37.666H80.7012V39.248H69.75ZM94.8164 23.7969V27.6992H97.2246V28.6309H94.8164V32.4277H93.709V23.7969H94.8164ZM82.793 26.2578V25.3613H86.8711V23.6738H87.9609V25.3613H92.0391V26.2578H82.793ZM83.707 29.6152C83.6982 28.042 85.166 27.0752 87.416 27.0664C89.6484 27.0752 91.0986 28.042 91.1074 29.6152C91.0986 31.1973 89.6484 32.1641 87.416 32.1641C85.166 32.1641 83.6982 31.1973 83.707 29.6152ZM84.7617 29.6152C84.7529 30.6436 85.8076 31.3115 87.416 31.3027C88.998 31.3115 90.0527 30.6436 90.0703 29.6152C90.0527 28.6045 88.998 27.9189 87.416 27.9102C85.8076 27.9189 84.7529 28.6045 84.7617 29.6152ZM85.043 34.1504V33.2891H94.8164V36.5762H86.168V38.2812H95.4141V39.1777H85.0781V35.7148H93.709V34.1504H85.043ZM110.285 25.3789C110.276 27.6816 113.449 29.5273 115.998 29.9141L115.541 30.8281C113.265 30.415 110.689 29.0615 109.714 27.0752C108.756 29.0879 106.189 30.415 103.904 30.8281L103.43 29.9141C105.987 29.5273 109.143 27.7256 109.143 25.3789V24.4473H110.285V25.3789ZM102.639 33.6406V32.6914H116.771V33.6406H110.215V39.3711H109.143V33.6406H102.639ZM127.652 34.4141C127.644 35.8291 128.47 37.3496 130.008 38.1846C131.546 37.2617 132.407 35.627 132.398 34.4141V33.4473H133.488V34.4141C133.479 36.0049 134.745 37.6309 136.723 38.3164L136.16 39.1602C134.587 38.5889 133.453 37.4639 132.926 36.1367C132.451 37.4023 131.493 38.6504 130.043 39.2832C128.522 38.6855 127.538 37.5078 127.09 36.1807C126.545 37.4463 125.429 38.5801 123.926 39.1602L123.346 38.3164C125.288 37.5869 126.571 35.8906 126.58 34.4141V33.4473H127.652V34.4141ZM122.941 28.4023C122.933 26.2578 124.611 24.8076 126.949 24.8164C129.287 24.8076 130.948 26.2578 130.957 28.4023C130.948 30.5293 129.287 31.9707 126.949 31.9707C124.611 31.9707 122.933 30.5293 122.941 28.4023ZM124.014 28.4023C124.014 29.9316 125.244 31.0391 126.949 31.0391C128.646 31.0391 129.876 29.9316 129.885 28.4023C129.876 26.8818 128.646 25.7568 126.949 25.7656C125.244 25.7568 124.014 26.8818 124.014 28.4023ZM134.174 32.7617V23.8672H135.281V32.7617H134.174ZM142.225 25.0977C144.343 25.1064 145.863 26.9609 146.039 29.8965H149.783V23.8672H150.873V39.3887H149.783V30.8105H146.048C145.934 33.8779 144.396 35.8203 142.225 35.8203C139.957 35.8203 138.375 33.7285 138.393 30.459C138.375 27.1982 139.957 25.1064 142.225 25.0977ZM139.447 30.459C139.438 33.0518 140.581 34.8359 142.225 34.8359C143.859 34.8359 145.011 33.0518 145.002 30.459C145.011 27.8662 143.859 26.0908 142.225 26.082C140.581 26.0908 139.438 27.8662 139.447 30.459ZM167.854 36.3652V37.3145H153.65V36.3652H157.271V32.0498C155.918 31.3818 155.092 30.2656 155.092 28.8594C155.092 26.4775 157.421 24.9219 160.699 24.9043C164.004 24.9219 166.324 26.4775 166.324 28.8594C166.324 30.248 165.524 31.3467 164.197 32.0234V36.3652H167.854ZM156.146 28.8594C156.146 30.6348 158.054 31.874 160.699 31.8652C163.336 31.874 165.27 30.6348 165.27 28.8594C165.27 27.0488 163.336 25.8271 160.699 25.8359C158.054 25.8271 156.146 27.0488 156.146 28.8594ZM158.361 36.3652H163.09V32.4541C162.378 32.6562 161.569 32.7617 160.699 32.7617C159.847 32.7617 159.064 32.6562 158.361 32.4629V36.3652Z" fill="white"/>
</svg>
