<svg width="15" height="15" viewBox="0 0 15 15" fill="none" xmlns="http://www.w3.org/2000/svg">
<g id="thumbs-up">
<path id="Vector" d="M4.04837 5.98707L6.48707 0.5C6.97215 0.5 7.43737 0.6927 7.78038 1.03571C8.12339 1.37872 8.31609 1.84394 8.31609 2.32902V4.76772H11.7668C11.9436 4.76572 12.1187 4.80217 12.2799 4.87454C12.4412 4.94692 12.5848 5.05349 12.7008 5.18688C12.8168 5.32026 12.9024 5.47727 12.9516 5.64702C13.0009 5.81677 13.0127 5.99521 12.9862 6.16997L12.1448 11.657C12.1007 11.9478 11.9531 12.2128 11.729 12.4033C11.5049 12.5937 11.2196 12.6968 10.9255 12.6935H4.04837M4.04837 5.98707V12.6935M4.04837 5.98707H2.21935C1.89596 5.98707 1.58581 6.11553 1.35714 6.34421C1.12847 6.57288 1 6.88302 1 7.20642V11.4741C1 11.7975 1.12847 12.1077 1.35714 12.3363C1.58581 12.565 1.89596 12.6935 2.21935 12.6935H4.04837" stroke="currentColor" stroke-linecap="round" stroke-linejoin="round"/>
</g>
</svg>
