<svg width="143" height="49" viewBox="0 0 143 49" fill="none" xmlns="http://www.w3.org/2000/svg">
<rect x="0.5" width="142" height="49" rx="24.5" fill="black" fill-opacity="0.5"/>
<circle cx="30.5" cy="24.5" r="10" fill="#0BC73F"/>
<path d="M26 24.2237L29.7895 27.916L35 21.916" stroke="white" stroke-width="2" stroke-linecap="round" stroke-linejoin="round"/>
<path d="M57.1719 20.5254H52.7832V21.6602H56.9395V22.6582H52.7832V23.875C54.0273 23.8704 55.0163 23.8499 55.75 23.8135C56.4883 23.7725 57.2311 23.6927 57.9785 23.5742L58.1016 24.5996C57.304 24.7318 56.5088 24.8184 55.7158 24.8594C54.9229 24.9004 53.8314 24.9232 52.4414 24.9277H51.4844V19.4863H57.1719V20.5254ZM52.6602 25.8438H60.5762V28.8516H53.959V30.0273H61V31.0391H52.6875V27.8945H59.291V26.8691H52.6602V25.8438ZM59.2773 18.9121H60.5762V21.4961H62.3535V22.5625H60.5762V25.2832H59.2773V18.9121ZM70.2473 25.7617H67.5949V27.6006C68.8391 27.5322 69.9465 27.4297 70.9172 27.293L71.0129 28.2363C70.2017 28.3913 69.3586 28.5075 68.4836 28.585C67.6132 28.6624 66.7997 28.7126 66.0432 28.7354C65.2912 28.7581 64.4139 28.7741 63.4113 28.7832H63.0832L62.9191 27.7031C64.2225 27.7031 65.3527 27.6872 66.3098 27.6553V25.7617H63.8215V19.9785H70.1926V21.0312H65.134V22.3438H69.9465V23.3555H65.134V24.7227H70.2473V25.7617ZM71.6828 18.9121H72.9816V31.1895H71.6828V18.9121ZM82.0512 25.1602H79.4672V27.4297C80.7341 27.375 81.8507 27.293 82.8168 27.1836L82.9125 28.1406C81.7094 28.3184 80.4675 28.4368 79.1869 28.4961C77.9063 28.5553 76.5049 28.5872 74.9828 28.5918L74.8188 27.5117C76.072 27.5117 77.1885 27.5003 78.1684 27.4775V25.1602H75.7074V20.0469H81.9965V21.0996H76.9926V24.0938H82.0512V25.1602ZM83.5824 18.9121H84.8813V31.1895H83.5824V18.9121ZM90.9977 26.9922C90.9977 27.5482 91.1367 28.0814 91.4146 28.5918C91.6926 29.0977 92.0982 29.5146 92.6314 29.8428C92.9915 29.6104 93.2945 29.3324 93.5406 29.0088C93.7913 28.6852 93.9781 28.348 94.1012 27.9971C94.2242 27.6462 94.288 27.3112 94.2926 26.9922V26.3359H95.5641V26.9922C95.5641 27.4206 95.6575 27.8353 95.8443 28.2363C96.0312 28.6374 96.3092 28.9951 96.6783 29.3096C97.052 29.624 97.5009 29.8633 98.025 30.0273L97.3551 30.998C96.7672 30.7884 96.2659 30.4876 95.8512 30.0957C95.441 29.7083 95.1266 29.2549 94.9078 28.7354C94.6982 29.2594 94.4042 29.7288 94.026 30.1436C93.6523 30.5628 93.1943 30.8841 92.652 31.1074C92.0914 30.8932 91.6197 30.5833 91.2369 30.1777C90.8541 29.7767 90.5624 29.3141 90.3619 28.79C90.1386 29.2868 89.8219 29.7266 89.4117 30.1094C89.0061 30.4922 88.523 30.7884 87.9625 30.998L87.3336 30.0273C87.8395 29.8496 88.2724 29.6012 88.6324 29.2822C88.997 28.9587 89.2727 28.5986 89.4596 28.2021C89.651 27.8011 89.749 27.3978 89.7535 26.9922V26.3359H90.9977V26.9922ZM86.8414 22.4805C86.8414 21.9245 86.9781 21.4277 87.2516 20.9902C87.5296 20.5482 87.9101 20.2041 88.3932 19.958C88.8808 19.7074 89.4299 19.582 90.0406 19.582C90.5647 19.582 91.0455 19.68 91.483 19.876C91.9251 20.0674 92.2919 20.3408 92.5836 20.6963C92.8798 21.0472 93.0735 21.4505 93.1646 21.9062H95.5641V18.9121H96.8629V25.8574H95.5641V22.9727H93.1852C93.1031 23.4421 92.914 23.859 92.6178 24.2236C92.3261 24.5837 91.957 24.8639 91.5104 25.0645C91.0637 25.265 90.5738 25.3652 90.0406 25.3652C89.4299 25.3652 88.8808 25.2422 88.3932 24.9961C87.9101 24.75 87.5296 24.4082 87.2516 23.9707C86.9781 23.5332 86.8414 23.0365 86.8414 22.4805ZM88.0855 22.4805C88.0855 22.8268 88.1676 23.139 88.3316 23.417C88.5003 23.6904 88.7327 23.9046 89.0289 24.0596C89.3297 24.21 89.6669 24.2852 90.0406 24.2852C90.4052 24.2852 90.7333 24.21 91.025 24.0596C91.3212 23.9046 91.5536 23.6904 91.7223 23.417C91.8954 23.139 91.982 22.8268 91.982 22.4805C91.982 22.125 91.8977 21.8105 91.7291 21.5371C91.5605 21.2637 91.3281 21.0518 91.0318 20.9014C90.7356 20.751 90.4052 20.6758 90.0406 20.6758C89.6669 20.6758 89.3297 20.751 89.0289 20.9014C88.7327 21.0518 88.5003 21.2637 88.3316 21.5371C88.1676 21.8105 88.0855 22.125 88.0855 22.4805ZM101.872 19.8281C102.423 19.8281 102.92 19.9785 103.362 20.2793C103.804 20.5801 104.162 21.0062 104.435 21.5576C104.713 22.109 104.884 22.7585 104.948 23.5059H107.477V18.9121H108.763V31.1895H107.477V24.5586H104.962C104.916 25.347 104.757 26.0329 104.483 26.6162C104.21 27.1995 103.847 27.6484 103.396 27.9629C102.945 28.2728 102.437 28.4277 101.872 28.4277C101.266 28.4277 100.726 28.2523 100.252 27.9014C99.7824 27.5505 99.4155 27.0492 99.1512 26.3975C98.8914 25.7458 98.7638 24.987 98.7684 24.1211C98.7638 23.2643 98.8914 22.5124 99.1512 21.8652C99.4155 21.2135 99.7824 20.7122 100.252 20.3613C100.726 20.0059 101.266 19.8281 101.872 19.8281ZM99.9988 24.1211C99.9988 24.7591 100.076 25.3151 100.231 25.7891C100.391 26.263 100.612 26.6276 100.894 26.8828C101.177 27.138 101.503 27.2656 101.872 27.2656C102.241 27.2656 102.567 27.138 102.849 26.8828C103.132 26.6276 103.351 26.263 103.506 25.7891C103.665 25.3151 103.745 24.7591 103.745 24.1211C103.745 23.4922 103.665 22.943 103.506 22.4736C103.346 21.9997 103.125 21.6351 102.843 21.3799C102.565 21.1201 102.241 20.9902 101.872 20.9902C101.503 20.9902 101.177 21.1201 100.894 21.3799C100.616 21.6351 100.398 21.9997 100.238 22.4736C100.079 22.943 99.9988 23.4922 99.9988 24.1211ZM121.66 29.6309H110.449V28.5508H113.129V25.3516C112.614 25.069 112.215 24.7113 111.933 24.2783C111.65 23.8454 111.511 23.36 111.516 22.8223C111.516 22.1888 111.707 21.6305 112.09 21.1475C112.473 20.6644 113.006 20.2907 113.689 20.0264C114.378 19.7575 115.157 19.623 116.027 19.623C116.898 19.623 117.677 19.7575 118.365 20.0264C119.053 20.2907 119.589 20.6644 119.972 21.1475C120.359 21.6305 120.553 22.1888 120.553 22.8223C120.553 23.3555 120.416 23.8363 120.143 24.2646C119.869 24.6885 119.482 25.0417 118.98 25.3242V28.5508H121.66V29.6309ZM112.773 22.8223C112.773 23.2552 112.91 23.6357 113.184 23.9639C113.457 24.292 113.84 24.5472 114.332 24.7295C114.824 24.9072 115.389 24.9961 116.027 24.9961C116.661 24.9961 117.224 24.9049 117.716 24.7227C118.213 24.5404 118.6 24.2874 118.878 23.9639C119.156 23.6357 119.295 23.2552 119.295 22.8223C119.295 22.3893 119.156 22.0111 118.878 21.6875C118.6 21.3594 118.213 21.1064 117.716 20.9287C117.224 20.751 116.661 20.6621 116.027 20.6621C115.389 20.6621 114.824 20.751 114.332 20.9287C113.84 21.1064 113.457 21.3594 113.184 21.6875C112.91 22.0111 112.773 22.3893 112.773 22.8223ZM117.668 28.5508V25.8301C117.158 25.9486 116.611 26.0078 116.027 26.0078C115.453 26.0078 114.915 25.9486 114.414 25.8301V28.5508H117.668Z" fill="white"/>
</svg>
