<svg width="170" height="49" viewBox="0 0 170 49" fill="none" xmlns="http://www.w3.org/2000/svg">
<rect x="0.5" width="169" height="49" rx="24.5" fill="black" fill-opacity="0.5"/>
<circle cx="30.5" cy="24.5" r="10" fill="#0BC73F"/>
<path d="M26 24.2237L29.7895 27.916L35 21.916" stroke="white" stroke-width="2" stroke-linecap="round" stroke-linejoin="round"/>
<path d="M62.1621 29.6992H50.9512V28.6055H55.8867V26.459H52.3184V22.5625H59.5098V20.8398H52.291V19.7734H60.7949V23.6016H53.6035V25.3926H61.082V26.459H57.1719V28.6055H62.1621V29.6992ZM72.5578 21.4688C72.5578 22.1842 72.5487 22.804 72.5305 23.3281C72.5168 23.8477 72.4781 24.4515 72.4143 25.1396C72.3505 25.8278 72.2479 26.5775 72.1066 27.3887L70.7805 27.2656C70.9309 26.5046 71.0425 25.7868 71.1154 25.1123C71.1883 24.4378 71.2316 23.8385 71.2453 23.3145C71.2635 22.7904 71.2727 22.1751 71.2727 21.4688V21.2227H64.0539V20.1562H72.5578V21.4688ZM62.8508 28.3457H74.0207V29.4258H62.8508V28.3457ZM78.0316 19.8281C78.6378 19.8281 79.1778 20.0059 79.6518 20.3613C80.1303 20.7122 80.504 21.2135 80.7729 21.8652C81.0417 22.5124 81.1762 23.2643 81.1762 24.1211C81.1762 24.987 81.0417 25.7458 80.7729 26.3975C80.504 27.0492 80.1326 27.5505 79.6586 27.9014C79.1846 28.2523 78.6423 28.4277 78.0316 28.4277C77.421 28.4277 76.8786 28.2523 76.4047 27.9014C75.9307 27.5505 75.5616 27.0492 75.2973 26.3975C75.0329 25.7458 74.9008 24.987 74.9008 24.1211C74.9008 23.2643 75.0329 22.5124 75.2973 21.8652C75.5616 21.2135 75.9307 20.7122 76.4047 20.3613C76.8786 20.0059 77.421 19.8281 78.0316 19.8281ZM76.1449 24.1211C76.1449 24.7591 76.2224 25.3151 76.3773 25.7891C76.5368 26.263 76.7602 26.6276 77.0473 26.8828C77.3344 27.138 77.6625 27.2656 78.0316 27.2656C78.4099 27.2656 78.7426 27.1403 79.0297 26.8896C79.3168 26.6344 79.5378 26.2699 79.6928 25.7959C79.8523 25.3174 79.932 24.7591 79.932 24.1211C79.932 23.4876 79.8523 22.9362 79.6928 22.4668C79.5378 21.9928 79.3168 21.6283 79.0297 21.373C78.7426 21.1178 78.4099 20.9902 78.0316 20.9902C77.6625 20.9902 77.3344 21.1201 77.0473 21.3799C76.7602 21.6351 76.5368 21.9997 76.3773 22.4736C76.2224 22.943 76.1449 23.4922 76.1449 24.1211ZM82.9945 18.9121H84.2934V23.7109H86.2621V24.8047H84.2934V31.1621H82.9945V18.9121ZM97.8473 25.5156H92.857V26.8008H91.5719V25.5156H86.65V24.4355H97.8473V25.5156ZM87.4293 30.123C88.204 30.0501 88.9036 29.8975 89.5279 29.665C90.1568 29.4281 90.6467 29.1364 90.9977 28.79C91.3531 28.4437 91.5309 28.0723 91.5309 27.6758V27.334H92.8707V27.6758C92.8707 28.0814 93.0462 28.4574 93.3971 28.8037C93.748 29.1455 94.2356 29.4326 94.86 29.665C95.4843 29.8975 96.1884 30.0501 96.9723 30.123L96.5758 31.1074C95.5641 30.998 94.6731 30.7656 93.9029 30.4102C93.1327 30.0592 92.5654 29.6126 92.2008 29.0703C91.8316 29.6126 91.2643 30.0615 90.4986 30.417C89.733 30.7725 88.8512 31.0026 87.8531 31.1074L87.4293 30.123ZM87.8531 21.3594C87.8531 20.8809 88.0286 20.473 88.3795 20.1357C88.7304 19.7939 89.234 19.5342 89.8902 19.3564C90.551 19.1787 91.3303 19.0898 92.2281 19.0898C93.1305 19.0898 93.9075 19.1787 94.5592 19.3564C95.2154 19.5296 95.719 19.7871 96.0699 20.1289C96.4254 20.4707 96.6031 20.8809 96.6031 21.3594C96.6031 21.8333 96.4254 22.2389 96.0699 22.5762C95.719 22.9134 95.2154 23.1709 94.5592 23.3486C93.9029 23.5264 93.1259 23.6152 92.2281 23.6152C91.3349 23.6152 90.5579 23.5264 89.8971 23.3486C89.2408 23.1709 88.735 22.9134 88.3795 22.5762C88.0286 22.2344 87.8531 21.8288 87.8531 21.3594ZM89.193 21.3594C89.193 21.6191 89.3115 21.8447 89.5484 22.0361C89.79 22.223 90.1386 22.3665 90.5943 22.4668C91.0501 22.5671 91.5947 22.6172 92.2281 22.6172C92.857 22.6172 93.3994 22.5671 93.8551 22.4668C94.3108 22.3665 94.6594 22.223 94.901 22.0361C95.1425 21.8447 95.2633 21.6191 95.2633 21.3594C95.2633 21.0859 95.1425 20.8535 94.901 20.6621C94.6594 20.4661 94.3108 20.318 93.8551 20.2178C93.3994 20.1175 92.857 20.0697 92.2281 20.0742C91.5947 20.0697 91.0501 20.1175 90.5943 20.2178C90.1386 20.318 89.79 20.4661 89.5484 20.6621C89.3115 20.8535 89.193 21.0859 89.193 21.3594ZM109.068 25.1602H106.484V27.4297C107.751 27.375 108.868 27.293 109.834 27.1836L109.93 28.1406C108.727 28.3184 107.485 28.4368 106.204 28.4961C104.924 28.5553 103.522 28.5872 102 28.5918L101.836 27.5117C103.089 27.5117 104.206 27.5003 105.186 27.4775V25.1602H102.725V20.0469H109.014V21.0996H104.01V24.0938H109.068V25.1602ZM110.6 18.9121H111.898V31.1895H110.6V18.9121ZM118.015 26.9922C118.015 27.5482 118.154 28.0814 118.432 28.5918C118.71 29.0977 119.115 29.5146 119.649 29.8428C120.009 29.6104 120.312 29.3324 120.558 29.0088C120.808 28.6852 120.995 28.348 121.118 27.9971C121.241 27.6462 121.305 27.3112 121.31 26.9922V26.3359H122.581V26.9922C122.581 27.4206 122.675 27.8353 122.862 28.2363C123.048 28.6374 123.326 28.9951 123.696 29.3096C124.069 29.624 124.518 29.8633 125.042 30.0273L124.372 30.998C123.784 30.7884 123.283 30.4876 122.868 30.0957C122.458 29.7083 122.144 29.2549 121.925 28.7354C121.715 29.2594 121.421 29.7288 121.043 30.1436C120.669 30.5628 120.211 30.8841 119.669 31.1074C119.109 30.8932 118.637 30.5833 118.254 30.1777C117.871 29.7767 117.58 29.3141 117.379 28.79C117.156 29.2868 116.839 29.7266 116.429 30.1094C116.023 30.4922 115.54 30.7884 114.98 30.998L114.351 30.0273C114.857 29.8496 115.29 29.6012 115.65 29.2822C116.014 28.9587 116.29 28.5986 116.477 28.2021C116.668 27.8011 116.766 27.3978 116.771 26.9922V26.3359H118.015V26.9922ZM113.859 22.4805C113.859 21.9245 113.995 21.4277 114.269 20.9902C114.547 20.5482 114.927 20.2041 115.41 19.958C115.898 19.7074 116.447 19.582 117.058 19.582C117.582 19.582 118.063 19.68 118.5 19.876C118.942 20.0674 119.309 20.3408 119.601 20.6963C119.897 21.0472 120.091 21.4505 120.182 21.9062H122.581V18.9121H123.88V25.8574H122.581V22.9727H120.202C120.12 23.4421 119.931 23.859 119.635 24.2236C119.343 24.5837 118.974 24.8639 118.528 25.0645C118.081 25.265 117.591 25.3652 117.058 25.3652C116.447 25.3652 115.898 25.2422 115.41 24.9961C114.927 24.75 114.547 24.4082 114.269 23.9707C113.995 23.5332 113.859 23.0365 113.859 22.4805ZM115.103 22.4805C115.103 22.8268 115.185 23.139 115.349 23.417C115.517 23.6904 115.75 23.9046 116.046 24.0596C116.347 24.21 116.684 24.2852 117.058 24.2852C117.422 24.2852 117.751 24.21 118.042 24.0596C118.338 23.9046 118.571 23.6904 118.739 23.417C118.913 23.139 118.999 22.8268 118.999 22.4805C118.999 22.125 118.915 21.8105 118.746 21.5371C118.578 21.2637 118.345 21.0518 118.049 20.9014C117.753 20.751 117.422 20.6758 117.058 20.6758C116.684 20.6758 116.347 20.751 116.046 20.9014C115.75 21.0518 115.517 21.2637 115.349 21.5371C115.185 21.8105 115.103 22.125 115.103 22.4805ZM128.889 19.8281C129.44 19.8281 129.937 19.9785 130.379 20.2793C130.821 20.5801 131.179 21.0062 131.453 21.5576C131.731 22.109 131.901 22.7585 131.965 23.5059H134.495V18.9121H135.78V31.1895H134.495V24.5586H131.979C131.933 25.347 131.774 26.0329 131.5 26.6162C131.227 27.1995 130.865 27.6484 130.413 27.9629C129.962 28.2728 129.454 28.4277 128.889 28.4277C128.283 28.4277 127.743 28.2523 127.269 27.9014C126.8 27.5505 126.433 27.0492 126.168 26.3975C125.909 25.7458 125.781 24.987 125.786 24.1211C125.781 23.2643 125.909 22.5124 126.168 21.8652C126.433 21.2135 126.8 20.7122 127.269 20.3613C127.743 20.0059 128.283 19.8281 128.889 19.8281ZM127.016 24.1211C127.016 24.7591 127.093 25.3151 127.248 25.7891C127.408 26.263 127.629 26.6276 127.912 26.8828C128.194 27.138 128.52 27.2656 128.889 27.2656C129.258 27.2656 129.584 27.138 129.867 26.8828C130.149 26.6276 130.368 26.263 130.523 25.7891C130.682 25.3151 130.762 24.7591 130.762 24.1211C130.762 23.4922 130.682 22.943 130.523 22.4736C130.363 21.9997 130.142 21.6351 129.86 21.3799C129.582 21.1201 129.258 20.9902 128.889 20.9902C128.52 20.9902 128.194 21.1201 127.912 21.3799C127.634 21.6351 127.415 21.9997 127.255 22.4736C127.096 22.943 127.016 23.4922 127.016 24.1211ZM148.677 29.6309H137.466V28.5508H140.146V25.3516C139.631 25.069 139.232 24.7113 138.95 24.2783C138.667 23.8454 138.528 23.36 138.533 22.8223C138.533 22.1888 138.724 21.6305 139.107 21.1475C139.49 20.6644 140.023 20.2907 140.707 20.0264C141.395 19.7575 142.174 19.623 143.045 19.623C143.915 19.623 144.694 19.7575 145.382 20.0264C146.071 20.2907 146.606 20.6644 146.989 21.1475C147.376 21.6305 147.57 22.1888 147.57 22.8223C147.57 23.3555 147.433 23.8363 147.16 24.2646C146.886 24.6885 146.499 25.0417 145.998 25.3242V28.5508H148.677V29.6309ZM139.791 22.8223C139.791 23.2552 139.927 23.6357 140.201 23.9639C140.474 24.292 140.857 24.5472 141.349 24.7295C141.841 24.9072 142.407 24.9961 143.045 24.9961C143.678 24.9961 144.241 24.9049 144.733 24.7227C145.23 24.5404 145.617 24.2874 145.895 23.9639C146.173 23.6357 146.312 23.2552 146.312 22.8223C146.312 22.3893 146.173 22.0111 145.895 21.6875C145.617 21.3594 145.23 21.1064 144.733 20.9287C144.241 20.751 143.678 20.6621 143.045 20.6621C142.407 20.6621 141.841 20.751 141.349 20.9287C140.857 21.1064 140.474 21.3594 140.201 21.6875C139.927 22.0111 139.791 22.3893 139.791 22.8223ZM144.685 28.5508V25.8301C144.175 25.9486 143.628 26.0078 143.045 26.0078C142.47 26.0078 141.933 25.9486 141.431 25.8301V28.5508H144.685Z" fill="white"/>
</svg>
