<svg width="184" height="49" viewBox="0 0 184 49" fill="none" xmlns="http://www.w3.org/2000/svg">
<rect width="184" height="49" rx="24.5" fill="black" fill-opacity="0.5"/>
<circle cx="30" cy="24.5" r="10" fill="#0BC73F"/>
<path d="M25.5 24.2232L29.2895 27.9155L34.5 21.9155" stroke="white" stroke-width="2" stroke-linecap="round" stroke-linejoin="round"/>
<path d="M60.6641 26.1719H59.3652V24.6816H56.2754V23.6152H59.3652V22.125H56.4053C56.0133 23.1003 55.3685 23.9342 54.4707 24.627C53.5729 25.3197 52.4564 25.8574 51.1211 26.2402L50.6016 25.2285C52.0462 24.8184 53.181 24.2373 54.0059 23.4854C54.8353 22.7334 55.3092 21.8607 55.4277 20.8672H51.2305V19.8008H56.8359C56.8359 20.2337 56.7926 20.6667 56.7061 21.0996H59.3652V18.9258H60.6641V26.1719ZM52.502 28.7012C52.502 28.2135 52.6706 27.7897 53.0078 27.4297C53.3451 27.0697 53.8236 26.7939 54.4434 26.6025C55.0677 26.4066 55.7969 26.3086 56.6309 26.3086C57.4557 26.3086 58.1781 26.4066 58.7979 26.6025C59.4176 26.7939 59.8962 27.0697 60.2334 27.4297C60.5752 27.7897 60.7461 28.2135 60.7461 28.7012C60.7461 29.1934 60.5752 29.6217 60.2334 29.9863C59.8962 30.3464 59.4176 30.6221 58.7979 30.8135C58.1781 31.0094 57.4557 31.1074 56.6309 31.1074C55.7969 31.1074 55.0677 31.0094 54.4434 30.8135C53.8236 30.6221 53.3451 30.3464 53.0078 29.9863C52.6706 29.6217 52.502 29.1934 52.502 28.7012ZM53.7871 28.7012C53.7871 28.9837 53.901 29.2275 54.1289 29.4326C54.3613 29.6377 54.6895 29.7949 55.1133 29.9043C55.5417 30.0137 56.0475 30.0684 56.6309 30.0684C57.2005 30.0684 57.6973 30.0137 58.1211 29.9043C58.5449 29.7949 58.8708 29.6377 59.0986 29.4326C59.3311 29.2275 59.4473 28.9837 59.4473 28.7012C59.4473 28.4141 59.3333 28.168 59.1055 27.9629C58.8776 27.7578 58.554 27.6029 58.1348 27.498C57.7201 27.3887 57.2301 27.334 56.665 27.334C55.7673 27.334 55.0632 27.4525 54.5527 27.6895C54.0423 27.9264 53.7871 28.2637 53.7871 28.7012ZM73.5617 29.6992H62.3508V28.6055H67.2863V26.459H63.718V22.5625H70.9094V20.8398H63.6906V19.7734H72.1945V23.6016H65.0031V25.3926H72.4816V26.459H68.5715V28.6055H73.5617V29.6992ZM83.7934 23.793H85.6938V24.873H83.7934V31.1484H82.4945V18.9121H83.7934V23.793ZM74.2641 27.8809C75.7953 27.1152 76.9779 26.181 77.8119 25.0781C78.6505 23.9753 79.1358 22.7083 79.268 21.2773H74.8793V20.1973H80.5941C80.585 22.0658 80.1316 23.7451 79.2338 25.2354C78.336 26.721 76.921 27.9401 74.9887 28.8926L74.2641 27.8809ZM93.6199 20.8672C93.6199 21.3958 93.7407 21.9062 93.9822 22.3984C94.2238 22.8906 94.5678 23.3258 95.0145 23.7041C95.4656 24.0824 95.9943 24.3717 96.6004 24.5723L95.9305 25.584C95.2514 25.3561 94.659 25.012 94.1531 24.5518C93.6518 24.0869 93.2667 23.5446 92.9979 22.9248C92.729 23.5993 92.3348 24.1849 91.8152 24.6816C91.3003 25.1784 90.685 25.5521 89.9695 25.8027L89.2996 24.7773C89.9285 24.5632 90.4708 24.2555 90.9266 23.8545C91.3823 23.4489 91.7286 22.9795 91.9656 22.4463C92.2072 21.9131 92.3302 21.3503 92.3348 20.7578V19.541H93.6199V20.8672ZM90.8992 26.8965H98.993V31.1621H97.6941V27.9492H90.8992V26.8965ZM97.6941 18.9121H98.993V22.0703H100.77V23.1641H98.993V26.3359H97.6941V18.9121ZM111.781 31.1621H110.537V18.9121H111.781V31.1621ZM101.09 27.7852C101.65 27.4479 102.127 26.9922 102.519 26.418C102.915 25.8438 103.211 25.2057 103.407 24.5039C103.608 23.7975 103.71 23.0729 103.715 22.3301V21.3457H101.459V20.293H107.064V21.3457H104.959V22.3301C104.959 23.041 105.055 23.7314 105.246 24.4014C105.442 25.0713 105.731 25.6774 106.114 26.2197C106.502 26.762 106.973 27.1927 107.529 27.5117L106.75 28.4688C106.18 28.1315 105.693 27.6667 105.287 27.0742C104.886 26.4818 104.574 25.805 104.351 25.0439C104.127 25.8688 103.806 26.6025 103.387 27.2451C102.967 27.8877 102.466 28.3913 101.883 28.7559L101.09 27.7852ZM106.162 23.2461H108.062V19.1719H109.293V30.5469H108.062V24.3125H106.162V23.2461ZM120.468 25.1602H117.884V27.4297C119.151 27.375 120.267 27.293 121.234 27.1836L121.329 28.1406C120.126 28.3184 118.884 28.4368 117.604 28.4961C116.323 28.5553 114.922 28.5872 113.4 28.5918L113.236 27.5117C114.489 27.5117 115.605 27.5003 116.585 27.4775V25.1602H114.124V20.0469H120.413V21.0996H115.409V24.0938H120.468V25.1602ZM121.999 18.9121H123.298V31.1895H121.999V18.9121ZM129.414 26.9922C129.414 27.5482 129.553 28.0814 129.831 28.5918C130.109 29.0977 130.515 29.5146 131.048 29.8428C131.408 29.6104 131.711 29.3324 131.957 29.0088C132.208 28.6852 132.395 28.348 132.518 27.9971C132.641 27.6462 132.705 27.3112 132.709 26.9922V26.3359H133.981V26.9922C133.981 27.4206 134.074 27.8353 134.261 28.2363C134.448 28.6374 134.726 28.9951 135.095 29.3096C135.469 29.624 135.918 29.8633 136.442 30.0273L135.772 30.998C135.184 30.7884 134.683 30.4876 134.268 30.0957C133.858 29.7083 133.543 29.2549 133.325 28.7354C133.115 29.2594 132.821 29.7288 132.443 30.1436C132.069 30.5628 131.611 30.8841 131.069 31.1074C130.508 30.8932 130.037 30.5833 129.654 30.1777C129.271 29.7767 128.979 29.3141 128.779 28.79C128.555 29.2868 128.239 29.7266 127.829 30.1094C127.423 30.4922 126.94 30.7884 126.379 30.998L125.75 30.0273C126.256 29.8496 126.689 29.6012 127.049 29.2822C127.414 28.9587 127.69 28.5986 127.876 28.2021C128.068 27.8011 128.166 27.3978 128.17 26.9922V26.3359H129.414V26.9922ZM125.258 22.4805C125.258 21.9245 125.395 21.4277 125.668 20.9902C125.946 20.5482 126.327 20.2041 126.81 19.958C127.298 19.7074 127.847 19.582 128.457 19.582C128.982 19.582 129.462 19.68 129.9 19.876C130.342 20.0674 130.709 20.3408 131 20.6963C131.297 21.0472 131.49 21.4505 131.581 21.9062H133.981V18.9121H135.28V25.8574H133.981V22.9727H131.602C131.52 23.4421 131.331 23.859 131.035 24.2236C130.743 24.5837 130.374 24.8639 129.927 25.0645C129.481 25.265 128.991 25.3652 128.457 25.3652C127.847 25.3652 127.298 25.2422 126.81 24.9961C126.327 24.75 125.946 24.4082 125.668 23.9707C125.395 23.5332 125.258 23.0365 125.258 22.4805ZM126.502 22.4805C126.502 22.8268 126.584 23.139 126.748 23.417C126.917 23.6904 127.149 23.9046 127.446 24.0596C127.746 24.21 128.084 24.2852 128.457 24.2852C128.822 24.2852 129.15 24.21 129.442 24.0596C129.738 23.9046 129.97 23.6904 130.139 23.417C130.312 23.139 130.399 22.8268 130.399 22.4805C130.399 22.125 130.315 21.8105 130.146 21.5371C129.977 21.2637 129.745 21.0518 129.449 20.9014C129.152 20.751 128.822 20.6758 128.457 20.6758C128.084 20.6758 127.746 20.751 127.446 20.9014C127.149 21.0518 126.917 21.2637 126.748 21.5371C126.584 21.8105 126.502 22.125 126.502 22.4805ZM140.289 19.8281C140.84 19.8281 141.337 19.9785 141.779 20.2793C142.221 20.5801 142.579 21.0062 142.852 21.5576C143.13 22.109 143.301 22.7585 143.365 23.5059H145.894V18.9121H147.179V31.1895H145.894V24.5586H143.379C143.333 25.347 143.173 26.0329 142.9 26.6162C142.627 27.1995 142.264 27.6484 141.813 27.9629C141.362 28.2728 140.854 28.4277 140.289 28.4277C139.683 28.4277 139.143 28.2523 138.669 27.9014C138.199 27.5505 137.832 27.0492 137.568 26.3975C137.308 25.7458 137.181 24.987 137.185 24.1211C137.181 23.2643 137.308 22.5124 137.568 21.8652C137.832 21.2135 138.199 20.7122 138.669 20.3613C139.143 20.0059 139.683 19.8281 140.289 19.8281ZM138.416 24.1211C138.416 24.7591 138.493 25.3151 138.648 25.7891C138.808 26.263 139.029 26.6276 139.311 26.8828C139.594 27.138 139.92 27.2656 140.289 27.2656C140.658 27.2656 140.984 27.138 141.266 26.8828C141.549 26.6276 141.768 26.263 141.922 25.7891C142.082 25.3151 142.162 24.7591 142.162 24.1211C142.162 23.4922 142.082 22.943 141.922 22.4736C141.763 21.9997 141.542 21.6351 141.259 21.3799C140.981 21.1201 140.658 20.9902 140.289 20.9902C139.92 20.9902 139.594 21.1201 139.311 21.3799C139.033 21.6351 138.814 21.9997 138.655 22.4736C138.495 22.943 138.416 23.4922 138.416 24.1211ZM160.077 29.6309H148.866V28.5508H151.546V25.3516C151.031 25.069 150.632 24.7113 150.349 24.2783C150.067 23.8454 149.928 23.36 149.932 22.8223C149.932 22.1888 150.124 21.6305 150.507 21.1475C150.889 20.6644 151.423 20.2907 152.106 20.0264C152.794 19.7575 153.574 19.623 154.444 19.623C155.315 19.623 156.094 19.7575 156.782 20.0264C157.47 20.2907 158.006 20.6644 158.388 21.1475C158.776 21.6305 158.97 22.1888 158.97 22.8223C158.97 23.3555 158.833 23.8363 158.559 24.2646C158.286 24.6885 157.899 25.0417 157.397 25.3242V28.5508H160.077V29.6309ZM151.19 22.8223C151.19 23.2552 151.327 23.6357 151.6 23.9639C151.874 24.292 152.257 24.5472 152.749 24.7295C153.241 24.9072 153.806 24.9961 154.444 24.9961C155.078 24.9961 155.64 24.9049 156.133 24.7227C156.629 24.5404 157.017 24.2874 157.295 23.9639C157.573 23.6357 157.712 23.2552 157.712 22.8223C157.712 22.3893 157.573 22.0111 157.295 21.6875C157.017 21.3594 156.629 21.1064 156.133 20.9287C155.64 20.751 155.078 20.6621 154.444 20.6621C153.806 20.6621 153.241 20.751 152.749 20.9287C152.257 21.1064 151.874 21.3594 151.6 21.6875C151.327 22.0111 151.19 22.3893 151.19 22.8223ZM156.085 28.5508V25.8301C155.574 25.9486 155.027 26.0078 154.444 26.0078C153.87 26.0078 153.332 25.9486 152.831 25.8301V28.5508H156.085ZM162.16 30.0957C161.987 30.0957 161.825 30.0524 161.675 29.9658C161.529 29.8792 161.41 29.763 161.319 29.6172C161.233 29.4714 161.189 29.3118 161.189 29.1387C161.189 28.9609 161.233 28.7969 161.319 28.6465C161.406 28.4961 161.522 28.3776 161.668 28.291C161.818 28.1999 161.982 28.1543 162.16 28.1543C162.333 28.1543 162.493 28.1976 162.639 28.2842C162.789 28.3708 162.908 28.4893 162.994 28.6396C163.085 28.79 163.131 28.9518 163.131 29.125C163.131 29.2982 163.085 29.46 162.994 29.6104C162.908 29.7562 162.789 29.8747 162.639 29.9658C162.493 30.0524 162.333 30.0957 162.16 30.0957Z" fill="white"/>
</svg>
